<?xml version="1.0" encoding="UTF-8"?>
<svg xmlns="http://www.w3.org/2000/svg" xmlns:xlink="http://www.w3.org/1999/xlink" width="150px" height="71px" viewBox="0 0 151 71" version="1.1">
<g id="surface1">
<path style="fill:none;stroke-width:2;stroke-linecap:butt;stroke-linejoin:miter;stroke:rgb(52.54902%,35.686275%,27.45098%);stroke-opacity:1;stroke-miterlimit:4;" d="M 995.570002 759.945478 L 997.859453 753.435684 C 997.908164 753.387104 997.956876 753.338523 998.005588 753.289943 C 998.054299 753.289943 998.103011 753.289943 998.151723 753.289943 C 1030.545012 766.746754 1062.987014 780.203565 1095.429015 793.757537 C 1100.884727 795.992243 1105.609763 797.206756 1109.701547 797.303917 C 1114.718853 797.401078 1119.784872 797.255337 1124.899602 796.818112 C 1132.985746 796.186565 1141.705143 794.389085 1151.00908 791.522832 C 1159.972035 788.753741 1168.691432 784.284331 1174.585549 777.483055 C 1174.87782 777.142991 1174.829108 776.851507 1174.390703 776.608605 L 1101.858961 741.43629 C 1101.664114 741.339129 1101.615403 741.241967 1101.712826 741.047645 L 1104.0997 734.877916 C 1104.148412 734.829335 1104.197123 734.780755 1104.245835 734.780755 C 1104.294547 734.732174 1104.39197 734.732174 1104.440682 734.780755 C 1126.312241 744.10822 1147.30699 753.192782 1169.227261 760.771347 C 1177.751811 763.73476 1185.98409 765.629401 1193.826676 766.40669 C 1196.262262 766.649593 1198.697848 766.503851 1201.182145 765.969465 C 1210.096389 763.977663 1218.231245 761.500055 1225.635425 758.488061 C 1227.583894 757.662192 1229.483651 756.690581 1231.285984 755.524648 C 1231.432119 755.427487 1231.529543 755.233165 1231.529543 755.038842 C 1231.480831 754.84452 1231.383407 754.698779 1231.237272 754.601618 C 1177.800523 725.647612 1124.899602 697.422315 1072.485798 669.925726 C 1067.468491 667.302377 1061.866644 665.067672 1055.680257 663.221611 C 1043.84331 659.675231 1032.883175 657.683429 1022.751138 657.246204 C 1011.791003 656.760398 1001.025714 656.857559 990.455272 657.586268 C 984.268885 657.974912 977.692803 658.752201 970.824452 659.918134 C 961.423091 661.472711 953.336946 663.027289 946.61473 664.630447 C 934.38809 667.59386 922.45372 670.314371 910.81162 672.791978 C 908.619593 673.229203 906.427566 673.326364 904.235539 673.666428 C 892.252458 675.512489 881.828151 666.427927 880.902628 654.622854 C 880.220664 645.489712 882.510115 637.571083 890.88853 633.053092 C 891.132088 632.90735 891.278223 632.615867 891.278223 632.324384 C 891.229512 632.032901 891.034665 631.789998 890.791106 631.692837 C 846.901852 615.07829 803.207445 598.560904 759.707885 582.092099 C 755.128984 580.3432 751.378182 578.302817 748.455479 575.970951 C 743.048479 571.550121 736.862091 565.817617 729.847605 558.627696 C 724.87901 553.575319 720.153974 548.085717 715.672496 542.256052 C 706.904387 530.839624 700.230883 518.645907 695.700693 505.674901 C 691.121792 492.509573 689.0759 478.129732 689.611729 462.486796 C 690.147558 445.580766 692.047315 429.257702 695.311 413.469025 C 698.525973 397.680348 701.838369 381.988831 705.248189 366.345896 C 707.342793 356.726948 708.609297 346.767936 707.732487 337.003246 C 707.245369 331.513644 705.589171 326.849912 702.812603 323.060629 C 697.113333 315.239162 689.514306 309.79814 680.648774 304.551441 C 668.470845 297.361521 653.272791 290.074439 635.05461 282.641615 C 617.079988 275.305953 603.245861 269.816351 593.649653 266.221391 C 587.02486 263.695202 580.838473 261.266175 575.041779 258.934309 C 413.952142 193.301992 253.398334 127.912577 93.380355 62.668904 C 86.073598 59.705491 78.328435 56.596336 70.144868 53.292859 C 69.316768 52.952795 69.121922 53.195698 69.462904 53.972986 C 83.832859 84.092925 98.105391 114.018541 112.2805 143.701254 C 114.813509 148.947953 118.856581 152.980139 123.971311 155.700649 C 128.696347 158.129676 133.470095 160.704445 138.536113 162.501926 C 148.619438 166.048305 159.48215 169.400363 169.468052 172.849582 C 271.519091 208.070478 372.985591 245.768981 472.74718 281.232779 C 477.27737 282.835938 481.953694 284.439096 486.776154 285.993673 C 502.363902 290.997469 517.269686 296.681393 531.493507 302.996864 C 548.34776 310.478268 565.68913 322.089018 576.454418 336.274538 C 583.956022 346.136389 589.704005 357.067011 593.698365 369.017826 C 598.472113 383.154765 601.930645 397.680348 604.07396 412.497414 C 604.999483 418.812885 606.07114 425.662742 607.19151 432.949824 C 611.916546 463.312665 621.41533 491.537962 635.590439 517.625715 C 647.719655 539.924186 663.20998 558.96776 682.110125 574.805018 C 693.167684 584.083902 705.637883 592.196853 719.47201 599.241032 C 720.05655 599.483935 720.397532 600.115482 720.34882 600.747029 L 720.202685 605.507923 C 720.153974 606.090889 719.76428 606.576695 719.228451 606.722436 C 712.165252 608.8114 705.686595 610.948944 698.233702 612.017716 C 691.998603 612.940746 685.568657 614.058099 679.138711 614.592485 C 667.399188 615.564096 654.588007 616.341384 640.705169 616.924351 C 626.968465 617.507317 614.059861 618.916153 599.592482 621.248019 C 599.348924 621.2966 599.154077 621.393761 599.007942 621.588083 C 598.764383 621.928147 598.813095 622.17105 599.202789 622.316791 C 620.782078 632.130062 642.45879 641.943332 663.307404 652.971116 C 676.84926 660.209617 687.322279 665.893541 694.726459 670.071468 C 741.928109 696.693607 790.201418 723.850132 839.595095 751.541043 C 845.586636 754.893101 851.38333 758.196578 856.936465 761.402894 C 894.493196 783.166978 930.637288 804.202355 967.609478 824.654765 C 977.400533 830.047205 985.730236 834.127971 992.647299 836.945643 C 1004.386822 841.706536 1016.905733 843.406855 1030.155319 841.998019 C 1036.682688 841.366472 1042.820364 839.228928 1048.568346 835.585387 C 1048.714482 835.536807 1048.763193 835.342485 1048.763193 835.196743 C 1048.763193 835.002421 1048.66577 834.856679 1048.519635 834.808099 L 949.927126 787.296325 C 949.780991 787.199164 949.73228 787.053422 949.780991 786.90768 L 952.411424 780.349307 C 952.460136 780.252146 952.508847 780.252146 952.606271 780.300726 C 980.712929 792.348702 1009.306705 804.63958 1038.43631 817.17336 C 1043.307481 819.310904 1048.66577 820.962643 1054.07277 821.54561 C 1063.863825 822.565801 1073.752302 821.982835 1083.689492 819.79671 C 1090.801402 818.242132 1097.036501 815.424461 1102.443502 811.295114 C 1102.589637 811.197953 1102.68706 811.003631 1102.638349 810.809309 C 1102.638349 810.614987 1102.492213 810.469245 1102.297367 810.372084 C 1093.383123 806.971446 1084.907285 803.327905 1076.967275 799.392881 C 1060.502716 791.27993 1043.210058 782.681173 1025.138012 773.54803 C 1017.198003 769.564426 1007.406948 765.143596 995.716137 760.285541 C 995.570002 760.236961 995.52129 760.1398 995.570002 759.945478 " transform="matrix(0.0801912,0,0,0.0804077,0,0)"/>
<path style="fill:none;stroke-width:2;stroke-linecap:butt;stroke-linejoin:miter;stroke:rgb(52.54902%,35.686275%,27.45098%);stroke-opacity:1;stroke-miterlimit:4;" d="M 1238.544029 668.614051 C 1238.446606 668.565471 1238.397894 668.46831 1238.349183 668.419729 C 1238.349183 668.322568 1238.349183 668.225407 1238.397894 668.128246 C 1243.171642 662.735805 1248.335084 658.217815 1254.034354 654.671435 C 1257.590309 652.43673 1260.902706 650.104864 1263.971544 647.772997 C 1275.467508 638.979919 1285.209851 629.701034 1293.198572 619.936345 C 1301.138581 610.268816 1307.373681 599.629676 1312.001293 587.970346 C 1317.554429 574.027729 1322.376888 558.287632 1326.419961 540.847216 C 1327.930024 534.434584 1329.196528 527.87621 1330.122051 521.123515 C 1332.557637 504.071743 1333.726718 488.914613 1333.531871 475.554963 C 1333.385736 462.778279 1333.288312 449.758693 1333.337024 436.447623 C 1333.385736 424.059584 1335.188069 412.594575 1338.792736 402.101177 C 1342.105132 392.482229 1347.463421 383.689151 1353.893367 375.721941 C 1364.463809 362.702355 1376.544314 352.014635 1390.962981 344.241747 C 1401.387288 338.606404 1411.470613 332.971061 1422.041054 327.675781 C 1431.247568 323.060629 1440.843776 318.251155 1450.780965 313.34452 C 1456.675083 310.381107 1462.764047 307.563435 1469.047858 304.794344 C 1485.512417 297.507262 1499.005562 291.337533 1509.576004 286.285156 C 1560.674591 261.751981 1615.718828 234.886939 1674.854848 205.64145 C 1696.482849 194.95373 1721.81294 183.731624 1745.340697 171.78081 C 1753.572977 167.602883 1760.831022 163.327795 1767.163545 158.955546 C 1769.891401 157.012324 1772.278275 154.486136 1774.275455 151.27982 C 1778.464663 144.624285 1781.971906 137.628686 1784.943321 130.195863 C 1790.05805 117.322018 1794.247258 104.691076 1797.510943 92.303037 C 1800.920763 79.380612 1803.648619 66.603928 1805.743222 53.924406 C 1805.889357 52.904214 1805.499664 52.661312 1804.622853 53.147117 C 1766.335446 73.745268 1727.999327 94.051937 1689.614497 114.115702 C 1650.74255 134.37379 1612.796125 156.429357 1574.119024 177.12467 C 1534.077996 198.548691 1494.085679 220.021292 1454.093362 241.542474 C 1448.394091 244.603048 1442.548686 247.809364 1436.508433 251.112841 C 1383.120395 280.40691 1329.586222 309.555238 1276.003337 338.509243 C 1268.11204 342.73575 1259.441355 347.690966 1250.039994 353.277729 C 1238.641453 360.079005 1227.437759 369.600792 1221.153948 380.871479 C 1216.867317 388.498625 1215.795659 396.854478 1217.890263 405.93904 C 1218.66965 409.193937 1219.936155 412.740317 1221.300083 415.849472 C 1230.01948 435.913237 1237.764642 455.005392 1244.486858 473.125935 C 1251.257787 491.392221 1256.323805 509.707086 1258.759391 528.944982 C 1259.58749 535.746259 1259.87976 542.498955 1259.58749 549.105909 C 1257.785156 591.128081 1231.188561 623.96853 1201.961532 651.853763 C 1201.62055 652.145246 1201.230857 652.242408 1200.841163 652.096666 C 1148.914476 632.227223 1097.767177 612.649263 1047.447977 593.459947 C 1034.929067 588.699054 1022.556291 583.646677 1010.232228 578.448559 C 1003.217741 575.533726 996.105831 573.590504 989.042632 576.456756 C 984.268885 578.399978 979.59256 581.557713 974.964947 586.027124 C 967.95046 592.77982 960.935974 599.678257 953.824064 606.673856 C 940.330919 619.984925 924.743171 631.401353 905.794314 634.947733 C 901.312836 635.822183 897.513323 637.668244 893.957368 640.194432 C 886.601899 645.392551 886.455764 655.594465 892.106322 662.104258 C 896.149395 666.71941 900.874431 666.67083 906.52499 665.747799 C 910.714197 665.019091 914.659846 664.241802 918.361936 663.318772 C 933.365144 659.772392 947.053135 656.711818 959.474622 654.088468 C 971.457704 651.56228 985.632812 649.910541 1001.853813 649.133253 C 1021.289787 648.161642 1041.164166 650.882152 1061.379527 657.246204 C 1065.958428 658.65504 1070.683464 660.646842 1075.554636 663.221611 C 1131.280836 692.369938 1185.058568 721.178202 1236.887831 749.597821 C 1238.056912 750.229368 1239.225993 750.229368 1240.346363 749.646402 C 1246.922444 746.002861 1252.865273 742.310739 1258.17485 738.521457 C 1276.977571 725.064646 1295.439311 711.316351 1314.826573 698.976893 C 1322.279465 694.215999 1331.24242 689.260783 1341.812862 684.111246 C 1350.239989 679.981899 1358.472268 675.221006 1366.704548 670.508693 C 1367.678782 669.974307 1367.581359 669.682824 1366.509701 669.634243 C 1340.254087 668.128246 1314.144609 667.010893 1288.376112 669.294179 C 1284.576599 669.634243 1276.685301 671.237401 1264.70222 674.200814 C 1261.097553 675.075264 1257.736445 675.221006 1254.277913 673.909331 C 1249.211895 672.01469 1243.95103 670.21721 1238.544029 668.614051 " transform="matrix(0.0801912,0,0,0.0804077,0,0)"/>
<path style="fill:none;stroke-width:2;stroke-linecap:butt;stroke-linejoin:miter;stroke:rgb(52.54902%,35.686275%,27.45098%);stroke-opacity:1;stroke-miterlimit:4;" d="M 1388.235125 648.744608 C 1404.163856 650.590669 1420.043874 644.080876 1432.173091 633.927542 C 1440.989911 626.494718 1450.099001 618.333187 1459.500362 609.394366 C 1465.053498 604.099087 1470.752768 599.435354 1476.598174 595.45175 C 1478.595354 594.091494 1478.400507 593.70285 1476.062345 594.237236 L 1317.359582 631.644256 C 1315.557249 632.081481 1315.557249 632.567287 1317.31087 633.101673 C 1324.715051 635.482119 1331.729537 637.036697 1339.961817 638.591274 C 1356.134106 641.603268 1371.916701 646.898548 1388.235125 648.744608 " transform="matrix(0.0801912,0,0,0.0804077,0,0)"/>
<path style="fill:none;stroke-width:2;stroke-linecap:butt;stroke-linejoin:miter;stroke:rgb(52.54902%,35.686275%,27.45098%);stroke-opacity:1;stroke-miterlimit:4;" d="M 422.13571 288.714184 C 344.294392 259.760178 265.819821 230.466109 189.634701 201.706426 C 183.35089 199.37456 177.164502 196.945533 170.978115 194.516505 C 157.338835 189.075484 143.602132 183.828785 129.768005 178.727828 C 129.427023 178.582086 129.3296 178.679247 129.475735 179.067892 C 131.131933 182.614272 133.03169 186.257812 135.126293 189.901353 C 144.332807 205.884353 153.588033 221.818772 162.89197 237.70461 C 172.877871 254.659221 183.009908 269.330546 193.385503 281.718585 C 195.090413 283.807548 196.795323 285.70219 198.451521 287.49967 C 202.932999 292.163402 207.170918 297.361521 211.895954 301.296545 C 217.643936 306.106019 224.073882 309.846721 231.137081 312.518651 C 236.544081 314.559034 242.535622 316.113611 248.283604 317.230964 C 256.515884 318.882702 264.553316 320.43728 272.249767 321.894696 C 350.967896 336.906085 429.734737 351.723151 508.501578 366.491637 C 525.501966 369.649373 544.986651 373.050011 566.955634 376.596391 C 567.637598 376.693552 567.68631 376.54781 567.199193 376.110585 C 566.127535 375.236136 565.202013 374.313105 564.422625 373.341494 C 561.451211 369.455051 558.382373 365.81151 555.313535 362.362291 C 551.367886 357.892881 546.399291 353.229148 540.40775 348.273933 C 534.367498 343.318717 527.645281 339.189371 521.215335 334.962863 C 511.911398 328.793134 502.071632 323.497854 492.426713 318.251155 C 486.532595 315.044839 479.956514 311.935684 472.74718 308.972271 C 455.941639 302.025253 439.087386 294.981074 422.13571 288.714184 " transform="matrix(0.0801912,0,0,0.0804077,0,0)"/>
<path style="fill:none;stroke-width:2;stroke-linecap:butt;stroke-linejoin:miter;stroke:rgb(52.54902%,35.686275%,27.45098%);stroke-opacity:1;stroke-miterlimit:4;" d="M 1728.145463 275.791758 C 1742.174436 246.157625 1754.693346 215.697623 1765.750905 184.654654 C 1765.897041 184.314591 1765.799617 184.21743 1765.458635 184.411752 C 1664.186983 235.615647 1563.499871 286.430898 1463.397299 336.857504 C 1457.892876 339.626596 1449.270902 344.387489 1437.531379 351.091604 C 1432.855055 353.812115 1428.276154 357.018431 1423.648541 359.981844 C 1420.238721 362.216549 1416.926325 364.548415 1413.711351 367.074604 C 1407.232694 372.0784 1402.848639 375.527619 1400.559189 377.519421 C 1385.750828 390.004621 1373.134494 404.384463 1362.758899 420.561785 C 1362.466629 421.04759 1362.22307 421.533396 1362.076935 422.067782 C 1362.028223 422.262104 1362.076935 422.456426 1362.22307 422.602168 C 1362.369205 422.699329 1362.564052 422.747909 1362.758899 422.699329 C 1379.418305 418.132757 1396.028999 413.177542 1412.590982 407.833682 C 1418.923505 405.793299 1425.304739 403.850077 1431.685974 401.955436 C 1495.8393 383.251926 1558.09287 365.131382 1618.495395 347.593805 C 1638.126216 341.909881 1658.195442 338.072018 1677.241722 330.20197 C 1681.918046 328.258748 1686.350812 325.926882 1690.491308 323.206371 C 1695.313768 320.000055 1699.161993 316.84232 1702.084696 313.781745 C 1712.898696 302.365317 1721.569381 289.685794 1728.145463 275.791758 " transform="matrix(0.0801912,0,0,0.0804077,0,0)"/>
<path style="fill:none;stroke-width:2;stroke-linecap:butt;stroke-linejoin:miter;stroke:rgb(55.294118%,61.176471%,77.647059%);stroke-opacity:1;stroke-miterlimit:4;" d="M 843.589456 329.32752 C 843.881726 333.019641 846.171177 335.642991 847.632528 338.946468 C 880.025817 414.683539 913.052359 491.440801 946.663442 569.266835 C 947.881234 572.133088 952.02173 572.32741 953.288235 569.363996 C 987.094164 488.914613 1020.753958 408.805293 1054.218905 328.987456 C 1054.36504 328.695973 1054.511175 328.647392 1054.706022 328.987456 C 1055.144428 329.861906 1055.387986 330.687775 1055.387986 331.513644 C 1055.339275 398.360475 1055.290563 464.770081 1055.339275 530.742463 C 1055.339275 544.587918 1054.803446 558.481954 1038.679869 562.368398 C 1032.444769 563.874395 1026.550652 564.3602 1020.218129 564.165878 C 1018.269661 564.117298 1017.295426 565.040328 1017.344138 567.03213 L 1017.39285 568.732449 C 1017.441561 570.675671 1018.464507 571.647282 1020.364264 571.647282 L 1155.83154 571.647282 C 1157.292891 571.647282 1158.023567 570.918574 1158.023567 569.461158 L 1158.023567 565.963358 C 1158.023567 564.554522 1157.292891 563.874395 1155.928963 563.971556 C 1144.530422 564.651684 1129.722061 563.534331 1123.243403 552.409386 C 1121.928187 550.223261 1121.197511 547.40559 1120.905241 543.956371 C 1120.564259 538.806833 1120.369412 533.900198 1120.320701 529.333627 C 1120.271989 467.830656 1120.223277 405.647557 1120.271989 342.832912 C 1120.320701 337.34331 1120.612971 332.582416 1121.246223 328.501651 C 1121.684629 325.489657 1122.756286 322.574824 1124.412484 319.757152 C 1130.404025 309.652399 1145.650792 309.846721 1155.685405 309.992463 C 1157.244179 309.992463 1157.974855 309.263754 1157.974855 307.757757 L 1158.023567 304.45428 C 1158.023567 303.045445 1157.341603 302.365317 1155.977675 302.365317 L 1050.809085 302.365317 C 1049.396446 302.365317 1048.081229 303.239767 1047.5454 304.551441 C 1020.412976 370.766725 997.567182 426.197128 979.008019 470.84265 C 978.082497 473.077355 976.913416 475.36064 975.500776 477.741087 C 975.452064 477.886829 975.305929 477.935409 975.159794 477.935409 C 975.013659 477.935409 974.867524 477.838248 974.818812 477.692507 L 900.484737 303.53125 C 900.192467 302.802542 899.510503 302.365317 898.779827 302.365317 L 791.906328 302.365317 C 790.980805 302.365317 790.201418 303.094025 790.152706 304.065636 L 789.957859 308.486466 C 789.909147 309.409496 790.396264 309.846721 791.321787 309.846721 C 800.674436 309.79814 810.17322 309.895301 818.11323 314.656195 C 822.692131 317.376706 826.199374 321.943277 826.686491 327.238556 C 827.319743 333.748349 827.660725 340.355304 827.660725 347.059419 C 827.855572 409.242518 827.855572 470.648327 827.709437 531.228268 C 827.660725 544.78224 822.205013 556.34441 809.150274 561.153884 C 804.230391 562.999945 798.482409 563.971556 792.003751 564.165878 C 790.688535 564.214459 790.006571 564.894586 790.006571 566.254842 L 790.006571 569.461158 C 790.006571 570.918574 790.737246 571.647282 792.198598 571.647282 L 879.392565 571.647282 C 881.048763 571.647282 881.974286 570.821413 882.169133 569.218255 C 882.266556 568.440966 882.315268 567.615097 882.266556 566.789228 C 882.169133 565.040328 881.24361 564.117298 879.489989 563.971556 C 876.080169 563.728653 872.71906 563.388589 869.455376 562.951364 C 855.036708 561.008143 843.394609 550.466164 843.345897 535.357614 C 843.15105 467.830656 843.053627 399.186345 843.004915 329.570423 C 843.004915 329.424681 843.102339 329.32752 843.248474 329.32752 L 843.492032 329.278939 C 843.540744 329.278939 843.589456 329.278939 843.589456 329.32752 " transform="matrix(0.0801912,0,0,0.0804077,0,0)"/>
<path style="fill:none;stroke-width:2;stroke-linecap:butt;stroke-linejoin:miter;stroke:rgb(52.54902%,35.686275%,27.45098%);stroke-opacity:1;stroke-miterlimit:4;" d="M 517.95165 407.930843 C 514.931524 406.716329 511.765263 405.598977 508.501578 404.627366 C 491.744749 399.574989 472.260063 394.619773 449.99881 389.810299 C 442.8869 388.255722 436.408242 386.749725 430.562836 385.292309 C 385.845483 373.924461 338.448986 361.585002 295.728813 350.800121 C 277.705479 346.28213 260.753803 342.249945 244.825072 338.800726 C 242.633045 338.314921 242.243352 338.946468 243.655991 340.695368 C 254.810974 354.832306 266.64792 369.017826 279.166831 383.300506 C 289.10402 394.619773 298.700228 404.238721 307.85803 412.254511 C 316.090309 419.395852 325.053265 425.759903 334.649472 431.395246 C 343.563716 436.593365 353.013788 439.605359 362.902266 440.431228 C 370.793564 441.111356 378.63615 441.597161 386.527447 441.888644 C 443.422729 443.977608 501.876785 445.629346 561.98704 446.84386 C 567.053058 446.941021 572.362635 446.989602 577.964482 446.989602 C 578.159328 446.989602 578.354175 446.84386 578.451599 446.649538 C 578.549022 446.455216 578.50031 446.212313 578.354175 446.066571 C 575.480184 442.617353 572.460058 439.70252 569.293797 437.322073 C 552.634391 424.788292 535.536579 415.023603 517.95165 407.930843 " transform="matrix(0.0801912,0,0,0.0804077,0,0)"/>
<path style="fill:none;stroke-width:2;stroke-linecap:butt;stroke-linejoin:miter;stroke:rgb(52.54902%,35.686275%,27.45098%);stroke-opacity:1;stroke-miterlimit:4;" d="M 1678.31338 356.241142 C 1678.60565 355.318112 1679.141479 354.637984 1679.579884 353.763534 C 1679.920866 353.229148 1679.774731 353.034826 1679.141479 353.229148 C 1601.787278 379.948449 1524.725347 407.493618 1447.906974 435.961818 C 1437.82365 439.70252 1427.058361 443.880447 1417.413442 448.981404 C 1403.871585 456.122744 1390.719423 465.450209 1377.908242 477.012379 C 1373.183206 481.238886 1368.896575 485.805458 1365.04835 490.614932 C 1363.733133 492.26667 1364.122827 492.946798 1366.217431 492.703895 C 1411.080919 487.554357 1456.090542 481.967595 1501.295012 475.846446 C 1522.046202 473.077355 1542.748681 470.259683 1563.499871 467.490592 C 1576.457186 465.741692 1588.537691 463.944212 1598.864575 458.017386 C 1603.784458 455.199714 1607.973665 452.041978 1611.480909 448.495599 C 1617.326314 442.665933 1624.048531 435.087368 1629.796513 427.800286 C 1647.625 405.113171 1663.55373 381.794509 1677.631416 357.747139 C 1677.923686 357.309914 1678.118533 356.775528 1678.31338 356.241142 " transform="matrix(0.0801912,0,0,0.0804077,0,0)"/>
<path style="fill:none;stroke-width:2;stroke-linecap:butt;stroke-linejoin:miter;stroke:rgb(52.54902%,35.686275%,27.45098%);stroke-opacity:1;stroke-miterlimit:4;" d="M 546.107021 484.882427 C 537.241489 482.40482 528.132399 480.607339 518.77975 479.538567 C 481.515289 475.117738 444.737945 470.939811 408.49643 466.859045 C 395.392979 465.401629 381.120447 463.992793 365.630122 462.681118 C 365.337852 462.681118 365.045582 462.87544 364.948158 463.166923 C 364.899446 463.458407 364.99687 463.652729 365.191717 463.847051 C 381.948546 478.566956 399.046358 493.626926 416.485151 509.026959 C 425.496818 517.042749 434.167503 523.35822 442.351071 527.973371 C 455.698081 535.503356 470.068036 534.823228 485.753208 533.025748 C 499.977028 531.42259 513.470173 529.673691 526.232642 527.87621 C 548.493895 524.767055 573.385581 520.540548 600.95641 515.148107 C 601.151257 515.099527 601.346104 514.953785 601.443528 514.759463 C 601.492239 514.51656 601.443528 514.322238 601.346104 514.127916 C 601.102546 513.885013 600.858987 513.64211 600.566717 513.447788 C 587.219707 504.897612 575.675031 497.950594 566.030112 492.752476 C 560.28213 489.59474 553.608625 486.971391 546.107021 484.882427 " transform="matrix(0.0801912,0,0,0.0804077,0,0)"/>
<path style="fill:none;stroke-width:2;stroke-linecap:butt;stroke-linejoin:miter;stroke:rgb(52.54902%,35.686275%,27.45098%);stroke-opacity:1;stroke-miterlimit:4;" d="M 1503.48704 564.846006 C 1512.157725 560.81382 1520.097734 555.129897 1527.258356 547.794234 C 1544.16132 530.49956 1561.941096 509.318442 1578.600502 489.448999 C 1579.379889 488.525968 1579.185042 488.185904 1577.96725 488.428807 C 1539.290149 496.347436 1500.320778 504.314646 1461.059137 512.281855 C 1444.594578 515.633913 1428.276154 519.86042 1412.737117 524.475572 C 1399.049126 528.556338 1385.79954 534.240262 1372.988359 541.430183 C 1368.019764 544.247854 1363.733133 547.162687 1360.079755 550.271842 C 1356.231529 553.526739 1352.724286 557.073118 1349.606736 560.910982 C 1349.411889 561.153884 1349.363178 561.493948 1349.460601 561.785431 C 1349.606736 562.076915 1349.850295 562.271237 1350.191277 562.319817 C 1355.40343 562.854203 1360.51816 563.340009 1365.584178 563.825814 C 1370.796332 564.31162 1375.911062 564.700264 1380.928368 564.894586 C 1391.303963 565.331811 1402.166675 565.817617 1413.467793 566.400583 C 1431.978244 567.323614 1451.560353 569.218255 1470.752768 569.946963 C 1476.939156 570.189866 1482.346156 570.044124 1486.876345 569.461158 C 1492.965309 568.732449 1498.518445 567.177872 1503.48704 564.846006 " transform="matrix(0.0801912,0,0,0.0804077,0,0)"/>
<path style="fill:none;stroke-width:2;stroke-linecap:butt;stroke-linejoin:miter;stroke:rgb(52.54902%,35.686275%,27.45098%);stroke-opacity:1;stroke-miterlimit:4;" d="M 653.613773 576.942562 C 643.238178 572.618893 633.495835 568.78103 624.435456 565.331811 C 618.151645 562.951364 611.088447 561.008143 604.463654 559.939371 C 583.956022 556.684474 564.422625 554.838413 545.863462 554.401188 C 524.089326 553.866802 502.412614 554.449769 480.882036 556.052927 C 479.956514 556.101507 479.85909 556.392991 480.68719 556.927377 C 495.885244 566.789228 511.132011 576.748239 526.378777 586.707251 C 535.731426 592.8284 545.571192 598.803807 555.898075 602.544509 C 557.74912 603.224637 559.697589 603.759023 561.694769 604.147667 C 570.462878 605.750825 579.133563 605.216439 587.755536 602.544509 C 606.753104 596.763424 625.653249 588.990537 644.991799 582.335002 C 648.206773 581.26623 651.373034 580.100297 654.490584 578.885783 C 654.734142 578.788622 654.880277 578.5943 654.928989 578.399978 C 654.977701 578.157075 654.928989 577.914173 654.782854 577.768431 C 654.441872 577.379787 654.052178 577.136884 653.613773 576.942562 " transform="matrix(0.0801912,0,0,0.0804077,0,0)"/>
<path style=" stroke:none;fill-rule:nonzero;fill:rgb(94.117647%,48.627451%,0%);fill-opacity:1;" d="M 88.96875 64.714844 C 89.113281 64.789062 89.261719 64.855469 89.417969 64.910156 C 89.441406 64.917969 89.457031 64.933594 89.464844 64.957031 C 89.472656 64.980469 89.464844 65.007812 89.453125 65.027344 C 88.914062 65.703125 88.203125 66.171875 87.324219 66.429688 C 86.398438 66.703125 85.515625 66.789062 84.671875 66.6875 C 84.589844 66.679688 84.585938 66.695312 84.65625 66.730469 C 84.804688 66.808594 84.953125 66.878906 85.105469 66.9375 C 85.140625 66.949219 85.148438 66.96875 85.125 67 C 84.703125 67.578125 84.148438 67.960938 83.460938 68.144531 C 83.125 68.238281 82.769531 68.3125 82.414062 68.335938 C 81.152344 68.414062 79.941406 68.171875 78.785156 67.605469 C 78.09375 67.261719 77.5 66.953125 77.007812 66.671875 C 73.035156 64.402344 68.910156 62.046875 64.628906 59.597656 C 62.449219 58.351562 60.246094 57.1875 58.101562 55.953125 C 55.582031 54.496094 53.140625 53.117188 50.566406 51.875 C 49.304688 51.265625 48.125 50.71875 47.027344 50.230469 C 46.976562 50.207031 46.941406 50.15625 46.945312 50.097656 L 46.953125 49.726562 C 46.957031 49.671875 46.992188 49.625 47.042969 49.609375 C 47.5 49.453125 47.984375 49.332031 48.492188 49.253906 C 49.042969 49.164062 49.574219 49.101562 50.082031 49.058594 C 51.300781 48.957031 52.515625 48.9375 53.730469 48.871094 C 54.726562 48.820312 55.6875 48.679688 56.621094 48.453125 C 56.648438 48.445312 56.667969 48.421875 56.675781 48.394531 C 56.679688 48.367188 56.667969 48.335938 56.640625 48.320312 C 56.34375 48.125 56.042969 47.929688 55.742188 47.730469 C 54.433594 46.875 53.289062 45.851562 52.304688 44.65625 C 51.199219 43.3125 50.183594 41.652344 49.511719 39.960938 C 48.84375 38.292969 48.386719 36.667969 48.132812 35.089844 C 47.832031 33.195312 47.566406 31.308594 46.910156 29.554688 C 46.328125 28.011719 45.355469 26.773438 43.992188 25.84375 C 42.828125 25.054688 41.535156 24.53125 40.136719 24.035156 C 37.878906 23.234375 35.605469 22.457031 33.351562 21.628906 C 25.714844 18.820312 18.167969 16.132812 10.707031 13.5625 C 10.367188 13.445312 9.949219 13.230469 9.453125 12.914062 C 9.015625 12.636719 8.699219 12.292969 8.503906 11.886719 C 7.09375 8.933594 5.738281 6.101562 4.4375 3.394531 C 4.429688 3.378906 4.433594 3.363281 4.441406 3.347656 C 4.453125 3.335938 4.472656 3.328125 4.488281 3.332031 C 4.792969 3.417969 5.09375 3.46875 5.390625 3.574219 C 6.136719 3.839844 6.683594 4.042969 7.035156 4.183594 C 9.75 5.28125 13.488281 6.84375 17.621094 8.53125 C 27.398438 12.519531 37.171875 16.511719 46.949219 20.5 C 49.222656 21.429688 51.59375 22.25 53.757812 23.347656 C 54.769531 23.863281 55.710938 24.425781 56.527344 25.230469 C 56.945312 25.644531 57.199219 26.136719 57.308594 26.730469 C 57.320312 26.792969 57.34375 26.796875 57.378906 26.746094 C 59.113281 24.050781 61.457031 21.742188 64.128906 20.015625 C 65.308594 19.253906 66.570312 18.554688 67.878906 17.988281 C 68.878906 17.550781 69.828125 17.195312 70.71875 16.921875 C 71.496094 16.679688 72.367188 16.464844 73.339844 16.273438 C 75.492188 15.847656 77.625 15.6875 79.734375 15.789062 C 80.597656 15.832031 81.453125 15.910156 82.300781 16.027344 C 82.953125 16.117188 83.769531 16.273438 84.746094 16.5 C 88.578125 17.382812 92.128906 19.164062 95.152344 21.679688 C 97.171875 23.359375 98.851562 25.386719 100.203125 27.625 C 100.214844 27.644531 100.242188 27.652344 100.265625 27.640625 C 103.695312 25.757812 107.234375 23.839844 110.875 21.882812 C 111.308594 21.652344 111.777344 21.394531 112.28125 21.109375 C 114.195312 20.023438 116.289062 18.875 118.558594 17.660156 C 121.226562 16.234375 123.902344 14.796875 126.585938 13.351562 C 127.96875 12.605469 129.328125 11.855469 130.667969 11.101562 C 131.164062 10.820312 131.648438 10.554688 132.128906 10.296875 C 136.585938 7.910156 141.042969 5.523438 145.5 3.136719 C 145.515625 3.128906 145.53125 3.128906 145.542969 3.136719 C 145.558594 3.144531 145.566406 3.160156 145.5625 3.175781 C 145.507812 3.59375 145.445312 4.023438 145.382812 4.464844 C 145.320312 4.90625 145.246094 5.332031 145.160156 5.742188 C 145.019531 6.425781 144.914062 6.898438 144.847656 7.15625 C 144.519531 8.402344 144.125 9.609375 143.664062 10.773438 C 143.429688 11.359375 143.140625 11.925781 142.800781 12.472656 C 142.597656 12.792969 142.367188 13.054688 142.101562 13.253906 C 141.796875 13.484375 141.324219 13.769531 140.6875 14.109375 C 138.964844 15.035156 137.214844 15.847656 135.453125 16.65625 C 134.976562 16.875 134.496094 17.105469 134.007812 17.347656 C 132.660156 18.023438 131.328125 18.6875 130.011719 19.339844 C 125.851562 21.410156 121.675781 23.402344 117.488281 25.316406 C 116.328125 25.847656 114.582031 26.730469 112.246094 27.972656 C 111.707031 28.257812 111.253906 28.542969 110.878906 28.828125 C 109.414062 29.941406 108.203125 31.367188 107.765625 33.171875 C 107.597656 33.859375 107.519531 34.503906 107.523438 35.101562 C 107.535156 36.460938 107.539062 37.722656 107.527344 38.882812 C 107.5 41.730469 106.875 44.574219 105.898438 47.203125 C 105.453125 48.40625 104.820312 49.496094 103.992188 50.476562 C 103.933594 50.550781 103.949219 50.574219 104.039062 50.554688 L 119.808594 46.8125 C 119.824219 46.808594 119.839844 46.8125 119.847656 46.824219 C 119.859375 46.835938 119.863281 46.851562 119.855469 46.867188 C 119.664062 47.386719 119.4375 47.875 118.960938 48.226562 C 118.511719 48.554688 118.074219 48.871094 117.667969 49.261719 C 116.792969 50.097656 115.9375 50.863281 115.101562 51.554688 C 114.597656 51.972656 113.984375 52.308594 113.261719 52.5625 C 112.609375 52.792969 111.949219 52.867188 111.273438 52.785156 C 110.914062 52.742188 110.515625 52.671875 110.082031 52.570312 C 109.320312 52.394531 108.574219 52.207031 107.808594 52.050781 C 107.011719 51.886719 106.304688 51.726562 105.691406 51.574219 C 105.058594 51.414062 104.4375 51.152344 103.929688 50.714844 C 103.886719 50.679688 103.824219 50.683594 103.789062 50.722656 C 103.484375 51.035156 103.164062 51.347656 102.816406 51.664062 C 102.089844 52.335938 101.324219 52.90625 100.523438 53.386719 C 100.484375 53.410156 100.484375 53.433594 100.515625 53.460938 C 100.730469 53.636719 100.960938 53.695312 101.207031 53.632812 C 102.832031 53.210938 104.476562 53.03125 106.144531 53.089844 C 107.664062 53.140625 109.316406 53.207031 111.101562 53.285156 C 111.117188 53.289062 111.128906 53.292969 111.132812 53.304688 C 111.136719 53.316406 111.136719 53.332031 111.128906 53.34375 C 110.863281 53.710938 110.546875 54.019531 110.171875 54.269531 C 109.785156 54.523438 109.414062 54.746094 109.0625 54.929688 C 107.953125 55.507812 106.800781 56.066406 105.726562 56.726562 C 105.253906 57.019531 104.480469 57.558594 103.414062 58.347656 C 102.527344 59 101.703125 59.59375 100.9375 60.121094 C 100.601562 60.355469 100.222656 60.574219 99.800781 60.78125 C 99.628906 60.867188 99.464844 60.976562 99.300781 61.105469 C 99.082031 61.289062 98.84375 61.429688 98.585938 61.535156 C 97.761719 61.875 97.015625 62.101562 96.351562 62.210938 C 96.011719 62.269531 95.550781 62.238281 94.972656 62.113281 C 94.921875 62.105469 94.917969 62.113281 94.960938 62.144531 L 95.042969 62.203125 C 95.074219 62.222656 95.078125 62.246094 95.0625 62.277344 C 94.617188 63.121094 93.914062 63.625 93.0625 63.992188 C 92.097656 64.410156 91.023438 64.65625 89.84375 64.722656 C 89.5625 64.738281 89.273438 64.726562 88.980469 64.683594 C 88.921875 64.675781 88.917969 64.6875 88.96875 64.714844 Z M 79.835938 61.105469 L 80.019531 60.582031 C 80.023438 60.578125 80.027344 60.574219 80.03125 60.570312 C 80.035156 60.570312 80.039062 60.570312 80.042969 60.570312 C 82.640625 61.652344 85.242188 62.734375 87.84375 63.824219 C 88.28125 64.003906 88.660156 64.101562 88.988281 64.109375 C 89.390625 64.117188 89.796875 64.105469 90.207031 64.070312 C 90.855469 64.019531 91.554688 63.875 92.300781 63.644531 C 93.019531 63.421875 93.71875 63.0625 94.191406 62.515625 C 94.214844 62.488281 94.210938 62.464844 94.175781 62.445312 L 88.359375 59.617188 C 88.34375 59.609375 88.339844 59.601562 88.347656 59.585938 L 88.539062 59.089844 C 88.542969 59.085938 88.546875 59.082031 88.550781 59.082031 C 88.554688 59.078125 88.5625 59.078125 88.566406 59.082031 C 90.320312 59.832031 92.003906 60.5625 93.761719 61.171875 C 94.445312 61.410156 95.105469 61.5625 95.734375 61.625 C 95.929688 61.644531 96.125 61.632812 96.324219 61.589844 C 97.039062 61.429688 97.691406 61.230469 98.285156 60.988281 C 98.441406 60.921875 98.59375 60.84375 98.738281 60.75 C 98.75 60.742188 98.757812 60.726562 98.757812 60.710938 C 98.753906 60.695312 98.746094 60.683594 98.734375 60.675781 C 94.449219 58.347656 90.207031 56.078125 86.003906 53.867188 C 85.601562 53.65625 85.152344 53.476562 84.65625 53.328125 C 83.707031 53.042969 82.828125 52.882812 82.015625 52.847656 C 81.136719 52.808594 80.273438 52.816406 79.425781 52.875 C 78.929688 52.90625 78.402344 52.96875 77.851562 53.0625 C 77.097656 53.1875 76.449219 53.3125 75.910156 53.441406 C 74.929688 53.679688 73.972656 53.898438 73.039062 54.097656 C 72.863281 54.132812 72.6875 54.140625 72.511719 54.167969 C 71.550781 54.316406 70.714844 53.585938 70.640625 52.636719 C 70.585938 51.902344 70.769531 51.265625 71.441406 50.902344 C 71.460938 50.890625 71.472656 50.867188 71.472656 50.84375 C 71.46875 50.820312 71.453125 50.800781 71.433594 50.792969 C 67.914062 49.457031 64.410156 48.128906 60.921875 46.804688 C 60.554688 46.664062 60.253906 46.5 60.019531 46.3125 C 59.585938 45.957031 59.089844 45.496094 58.527344 44.917969 C 58.128906 44.511719 57.75 44.070312 57.390625 43.601562 C 56.6875 42.683594 56.152344 41.703125 55.789062 40.660156 C 55.421875 39.601562 55.257812 38.445312 55.300781 37.1875 C 55.34375 35.828125 55.496094 34.515625 55.757812 33.246094 C 56.015625 31.976562 56.28125 30.714844 56.554688 29.457031 C 56.722656 28.683594 56.824219 27.882812 56.753906 27.097656 C 56.714844 26.65625 56.582031 26.28125 56.359375 25.976562 C 55.902344 25.347656 55.292969 24.910156 54.582031 24.488281 C 53.605469 23.910156 52.386719 23.324219 50.925781 22.726562 C 49.484375 22.136719 48.375 21.695312 47.605469 21.40625 C 47.074219 21.203125 46.578125 21.007812 46.113281 20.820312 C 33.195312 15.542969 20.320312 10.285156 7.488281 5.039062 C 6.902344 4.800781 6.28125 4.550781 5.625 4.285156 C 5.558594 4.257812 5.542969 4.277344 5.570312 4.339844 C 6.722656 6.761719 7.867188 9.167969 9.003906 11.554688 C 9.207031 11.976562 9.53125 12.300781 9.941406 12.519531 C 10.320312 12.714844 10.703125 12.921875 11.109375 13.066406 C 11.917969 13.351562 12.789062 13.621094 13.589844 13.898438 C 21.773438 16.730469 29.910156 19.761719 37.910156 22.613281 C 38.273438 22.742188 38.648438 22.871094 39.035156 22.996094 C 40.285156 23.398438 41.480469 23.855469 42.621094 24.363281 C 43.972656 24.964844 45.363281 25.898438 46.226562 27.039062 C 46.828125 27.832031 47.289062 28.710938 47.609375 29.671875 C 47.992188 30.808594 48.269531 31.976562 48.441406 33.167969 C 48.515625 33.675781 48.601562 34.226562 48.691406 34.8125 C 49.070312 37.253906 49.832031 39.523438 50.96875 41.621094 C 51.941406 43.414062 53.183594 44.945312 54.699219 46.21875 C 55.585938 46.964844 56.585938 47.617188 57.695312 48.183594 C 57.742188 48.203125 57.769531 48.253906 57.765625 48.304688 L 57.753906 48.6875 C 57.75 48.734375 57.71875 48.773438 57.675781 48.785156 C 57.109375 48.953125 56.589844 49.125 55.992188 49.210938 C 55.492188 49.285156 54.976562 49.375 54.460938 49.417969 C 53.519531 49.496094 52.492188 49.558594 51.378906 49.605469 C 50.277344 49.652344 49.242188 49.765625 48.082031 49.953125 C 48.0625 49.957031 48.046875 49.964844 48.035156 49.980469 C 48.015625 50.007812 48.019531 50.027344 48.050781 50.039062 C 49.78125 50.828125 51.519531 51.617188 53.191406 52.503906 C 54.277344 53.085938 55.117188 53.542969 55.710938 53.878906 C 59.496094 56.019531 63.367188 58.203125 67.328125 60.429688 C 67.808594 60.699219 68.273438 60.964844 68.71875 61.222656 C 71.730469 62.972656 74.628906 64.664062 77.59375 66.308594 C 78.378906 66.742188 79.046875 67.070312 79.601562 67.296875 C 80.542969 67.679688 81.546875 67.816406 82.609375 67.703125 C 83.132812 67.652344 83.625 67.480469 84.085938 67.1875 C 84.097656 67.183594 84.101562 67.167969 84.101562 67.15625 C 84.101562 67.140625 84.09375 67.128906 84.082031 67.125 L 76.175781 63.304688 C 76.164062 63.296875 76.160156 63.285156 76.164062 63.273438 L 76.375 62.746094 C 76.378906 62.738281 76.382812 62.738281 76.390625 62.742188 C 78.644531 63.710938 80.9375 64.699219 83.273438 65.707031 C 83.664062 65.878906 84.09375 66.011719 84.527344 66.058594 C 85.3125 66.140625 86.105469 66.09375 86.902344 65.917969 C 87.472656 65.792969 87.972656 65.566406 88.40625 65.234375 C 88.417969 65.226562 88.425781 65.210938 88.421875 65.195312 C 88.421875 65.179688 88.410156 65.167969 88.394531 65.160156 C 87.679688 64.886719 87 64.59375 86.363281 64.277344 C 85.042969 63.625 83.65625 62.933594 82.207031 62.199219 C 81.570312 61.878906 80.785156 61.523438 79.847656 61.132812 C 79.835938 61.128906 79.832031 61.121094 79.835938 61.105469 Z M 99.320312 53.761719 C 99.3125 53.757812 99.308594 53.75 99.304688 53.746094 C 99.304688 53.738281 99.304688 53.730469 99.308594 53.722656 C 99.691406 53.289062 100.105469 52.925781 100.5625 52.640625 C 100.847656 52.460938 101.113281 52.273438 101.359375 52.085938 C 102.28125 51.378906 103.0625 50.632812 103.703125 49.847656 C 104.339844 49.070312 104.839844 48.214844 105.210938 47.277344 C 105.65625 46.15625 106.042969 44.890625 106.367188 43.488281 C 106.488281 42.972656 106.589844 42.445312 106.664062 41.902344 C 106.859375 40.53125 106.953125 39.3125 106.9375 38.238281 C 106.925781 37.210938 106.917969 36.164062 106.921875 35.09375 C 106.925781 34.097656 107.070312 33.175781 107.359375 32.332031 C 107.625 31.558594 108.054688 30.851562 108.570312 30.210938 C 109.417969 29.164062 110.386719 28.304688 111.542969 27.679688 C 112.378906 27.226562 113.1875 26.773438 114.035156 26.347656 C 114.773438 25.976562 115.542969 25.589844 116.339844 25.195312 C 116.8125 24.957031 117.300781 24.730469 117.804688 24.507812 C 119.125 23.921875 120.207031 23.425781 121.054688 23.019531 C 125.152344 21.046875 129.566406 18.886719 134.308594 16.535156 C 136.042969 15.675781 138.074219 14.773438 139.960938 13.8125 C 140.621094 13.476562 141.203125 13.132812 141.710938 12.78125 C 141.929688 12.625 142.121094 12.421875 142.28125 12.164062 C 142.617188 11.628906 142.898438 11.066406 143.136719 10.46875 C 143.546875 9.433594 143.882812 8.417969 144.144531 7.421875 C 144.417969 6.382812 144.636719 5.355469 144.804688 4.335938 C 144.816406 4.253906 144.785156 4.234375 144.714844 4.273438 C 141.644531 5.929688 138.570312 7.5625 135.492188 9.175781 C 132.375 10.804688 129.332031 12.578125 126.230469 14.242188 C 123.019531 15.964844 119.8125 17.691406 116.605469 19.421875 C 116.148438 19.667969 115.679688 19.925781 115.195312 20.191406 C 110.914062 22.546875 106.621094 24.890625 102.324219 27.21875 C 101.691406 27.558594 100.996094 27.957031 100.242188 28.40625 C 99.328125 28.953125 98.429688 29.71875 97.925781 30.625 C 97.582031 31.238281 97.496094 31.910156 97.664062 32.640625 C 97.726562 32.902344 97.828125 33.1875 97.9375 33.4375 C 98.636719 35.050781 99.257812 36.585938 99.796875 38.042969 C 100.339844 39.511719 100.746094 40.984375 100.941406 42.53125 C 101.007812 43.078125 101.03125 43.621094 101.007812 44.152344 C 100.863281 47.53125 98.730469 50.171875 96.386719 52.414062 C 96.359375 52.4375 96.328125 52.445312 96.296875 52.433594 C 92.132812 50.835938 88.03125 49.261719 83.996094 47.71875 C 82.992188 47.335938 82 46.929688 81.011719 46.511719 C 80.449219 46.277344 79.878906 46.121094 79.3125 46.351562 C 78.929688 46.507812 78.554688 46.761719 78.183594 47.121094 C 77.621094 47.664062 77.058594 48.21875 76.488281 48.78125 C 75.40625 49.851562 74.15625 50.769531 72.636719 51.054688 C 72.277344 51.125 71.972656 51.273438 71.6875 51.476562 C 71.097656 51.894531 71.085938 52.714844 71.539062 53.238281 C 71.863281 53.609375 72.242188 53.605469 72.695312 53.53125 C 73.03125 53.472656 73.347656 53.410156 73.644531 53.335938 C 74.847656 53.050781 75.945312 52.804688 76.941406 52.59375 C 77.902344 52.390625 79.039062 52.257812 80.339844 52.195312 C 81.898438 52.117188 83.492188 52.335938 85.113281 52.847656 C 85.480469 52.960938 85.859375 53.121094 86.25 53.328125 C 90.71875 55.671875 95.03125 57.988281 99.1875 60.273438 C 99.28125 60.324219 99.375 60.324219 99.464844 60.277344 C 99.992188 59.984375 100.46875 59.6875 100.894531 59.382812 C 102.402344 58.300781 103.882812 57.195312 105.4375 56.203125 C 106.035156 55.820312 106.753906 55.421875 107.601562 55.007812 C 108.277344 54.675781 108.9375 54.292969 109.597656 53.914062 C 109.675781 53.871094 109.667969 53.847656 109.582031 53.84375 C 107.476562 53.722656 105.382812 53.632812 103.316406 53.816406 C 103.011719 53.84375 102.378906 53.972656 101.417969 54.210938 C 101.128906 54.28125 100.859375 54.292969 100.582031 54.1875 C 100.175781 54.035156 99.753906 53.890625 99.320312 53.761719 Z M 67.953125 27.992188 C 68.011719 28.113281 67.976562 28.300781 68.09375 28.386719 C 68.117188 28.40625 68.136719 28.425781 68.144531 28.453125 C 70.910156 34.894531 73.421875 40.753906 75.683594 46.023438 C 75.746094 46.167969 75.855469 46.25 76.011719 46.265625 C 76.179688 46.285156 76.558594 46.308594 76.644531 46.109375 C 79.195312 40.015625 81.617188 34.246094 83.90625 28.796875 C 84.03125 28.496094 84.183594 28.195312 84.265625 27.894531 C 84.269531 27.875 84.28125 27.871094 84.300781 27.875 C 84.316406 27.878906 84.320312 27.886719 84.320312 27.902344 C 84.324219 32.847656 84.324219 37.785156 84.320312 42.714844 C 84.320312 43.050781 84.304688 43.402344 84.265625 43.734375 C 84.171875 44.597656 83.535156 44.960938 82.71875 45.023438 C 82.277344 45.054688 81.828125 45.066406 81.371094 45.058594 C 81.351562 45.054688 81.332031 45.0625 81.316406 45.078125 C 81.300781 45.09375 81.292969 45.109375 81.292969 45.132812 L 81.277344 45.90625 C 81.277344 45.9375 81.289062 45.957031 81.316406 45.972656 C 81.644531 46.164062 81.941406 46.261719 82.210938 46.261719 C 85.78125 46.257812 89.375 46.257812 92.992188 46.257812 C 93.117188 46.257812 93.179688 46.195312 93.179688 46.070312 L 93.175781 45.214844 C 93.175781 45.097656 93.117188 45.042969 93 45.042969 C 92.238281 45.058594 91.351562 45.128906 90.691406 44.65625 C 90.449219 44.480469 90.28125 44.289062 90.238281 43.984375 C 90.171875 43.5 90.136719 43.070312 90.136719 42.703125 C 90.132812 37.476562 90.132812 32.289062 90.136719 27.140625 C 90.136719 26.96875 90.160156 26.796875 90.179688 26.628906 C 90.253906 25.949219 90.589844 25.480469 91.277344 25.320312 C 91.847656 25.1875 92.417969 25.210938 93.007812 25.21875 C 93.101562 25.21875 93.152344 25.171875 93.15625 25.078125 C 93.183594 24.765625 93.183594 24.445312 93.15625 24.121094 C 93.152344 24.0625 93.101562 24.015625 93.042969 24.015625 L 83.957031 24.015625 C 83.90625 24.015625 83.867188 24.042969 83.847656 24.089844 L 78.328125 37.519531 C 78.3125 37.5625 78.269531 37.589844 78.226562 37.589844 C 78.179688 37.589844 78.136719 37.5625 78.117188 37.519531 L 72.4375 24.140625 C 72.40625 24.066406 72.332031 24.015625 72.253906 24.015625 L 63.144531 24.015625 C 63.082031 24.015625 63.050781 24.046875 63.050781 24.109375 L 63.050781 25.144531 C 63.050781 25.164062 63.058594 25.1875 63.078125 25.203125 C 63.09375 25.21875 63.117188 25.230469 63.140625 25.230469 C 63.535156 25.21875 63.925781 25.222656 64.308594 25.234375 C 64.980469 25.25 65.921875 25.585938 65.996094 26.375 C 66.046875 26.894531 66.082031 27.425781 66.082031 27.9375 C 66.078125 32.828125 66.078125 37.707031 66.082031 42.566406 C 66.082031 43.671875 65.730469 44.582031 64.574219 44.898438 C 64.128906 45.019531 63.664062 45.070312 63.179688 45.050781 C 63.144531 45.046875 63.113281 45.058594 63.089844 45.082031 C 63.066406 45.105469 63.050781 45.136719 63.050781 45.171875 L 63.050781 46.207031 C 63.050781 46.234375 63.074219 46.257812 63.101562 46.257812 L 70.875 46.257812 C 70.992188 46.257812 71.046875 46.203125 71.046875 46.085938 L 71.046875 45.1875 C 71.046875 45.148438 71.03125 45.113281 71.007812 45.085938 C 70.980469 45.0625 70.945312 45.046875 70.910156 45.046875 C 70.59375 45.054688 70.269531 45.035156 69.933594 44.996094 C 69.066406 44.886719 68.332031 44.519531 68.039062 43.664062 C 67.949219 43.414062 67.90625 43 67.90625 42.429688 C 67.902344 37.597656 67.902344 32.789062 67.910156 28.003906 C 67.910156 27.9375 67.921875 27.933594 67.953125 27.992188 Z M 111.324219 52.164062 C 112.601562 52.3125 113.875 51.789062 114.847656 50.972656 C 115.554688 50.375 116.285156 49.71875 117.039062 49 C 117.484375 48.574219 117.941406 48.199219 118.410156 47.878906 C 118.570312 47.769531 118.554688 47.738281 118.367188 47.78125 L 105.640625 50.789062 C 105.496094 50.824219 105.496094 50.863281 105.636719 50.90625 C 106.230469 51.097656 106.792969 51.222656 107.453125 51.347656 C 108.75 51.589844 110.015625 52.015625 111.324219 52.164062 Z M 111.324219 52.164062 "/>
<path style=" stroke:none;fill-rule:nonzero;fill:rgb(10.588235%,22.352941%,54.901961%);fill-opacity:1;" d="M 79.847656 61.132812 C 80.785156 61.523438 81.570312 61.878906 82.207031 62.199219 C 83.65625 62.933594 85.042969 63.625 86.363281 64.277344 C 87 64.59375 87.679688 64.886719 88.394531 65.160156 C 88.410156 65.167969 88.421875 65.179688 88.421875 65.195312 C 88.425781 65.210938 88.417969 65.226562 88.40625 65.234375 C 87.972656 65.566406 87.472656 65.792969 86.902344 65.917969 C 86.105469 66.09375 85.3125 66.140625 84.527344 66.058594 C 84.09375 66.011719 83.664062 65.878906 83.273438 65.707031 C 80.9375 64.699219 78.644531 63.710938 76.390625 62.742188 C 76.382812 62.738281 76.378906 62.738281 76.375 62.746094 L 76.164062 63.273438 C 76.160156 63.285156 76.164062 63.296875 76.175781 63.304688 L 84.082031 67.125 C 84.09375 67.128906 84.101562 67.140625 84.101562 67.15625 C 84.101562 67.167969 84.097656 67.183594 84.085938 67.1875 C 83.625 67.480469 83.132812 67.652344 82.609375 67.703125 C 81.546875 67.816406 80.542969 67.679688 79.601562 67.296875 C 79.046875 67.070312 78.378906 66.742188 77.59375 66.308594 C 74.628906 64.664062 71.730469 62.972656 68.71875 61.222656 C 68.273438 60.964844 67.808594 60.699219 67.328125 60.429688 C 63.367188 58.203125 59.496094 56.019531 55.710938 53.878906 C 55.117188 53.542969 54.277344 53.085938 53.191406 52.503906 C 51.519531 51.617188 49.78125 50.828125 48.050781 50.039062 C 48.019531 50.027344 48.015625 50.007812 48.035156 49.980469 C 48.046875 49.964844 48.0625 49.957031 48.082031 49.953125 C 49.242188 49.765625 50.277344 49.652344 51.378906 49.605469 C 52.492188 49.558594 53.519531 49.496094 54.460938 49.417969 C 54.976562 49.375 55.492188 49.285156 55.992188 49.210938 C 56.589844 49.125 57.109375 48.953125 57.675781 48.785156 C 57.71875 48.773438 57.75 48.734375 57.753906 48.6875 L 57.765625 48.304688 C 57.769531 48.253906 57.742188 48.203125 57.695312 48.183594 C 56.585938 47.617188 55.585938 46.964844 54.699219 46.21875 C 53.183594 44.945312 51.941406 43.414062 50.96875 41.621094 C 49.832031 39.523438 49.070312 37.253906 48.691406 34.8125 C 48.601562 34.226562 48.515625 33.675781 48.441406 33.167969 C 48.269531 31.976562 47.992188 30.808594 47.609375 29.671875 C 47.289062 28.710938 46.828125 27.832031 46.226562 27.039062 C 45.363281 25.898438 43.972656 24.964844 42.621094 24.363281 C 41.480469 23.855469 40.285156 23.398438 39.035156 22.996094 C 38.648438 22.871094 38.273438 22.742188 37.910156 22.613281 C 29.910156 19.761719 21.773438 16.730469 13.589844 13.898438 C 12.789062 13.621094 11.917969 13.351562 11.109375 13.066406 C 10.703125 12.921875 10.320312 12.714844 9.941406 12.519531 C 9.53125 12.300781 9.207031 11.976562 9.003906 11.554688 C 7.867188 9.167969 6.722656 6.761719 5.570312 4.339844 C 5.542969 4.277344 5.558594 4.257812 5.625 4.285156 C 6.28125 4.550781 6.902344 4.800781 7.488281 5.039062 C 20.320312 10.285156 33.195312 15.542969 46.113281 20.820312 C 46.578125 21.007812 47.074219 21.203125 47.605469 21.40625 C 48.375 21.695312 49.484375 22.136719 50.925781 22.726562 C 52.386719 23.324219 53.605469 23.910156 54.582031 24.488281 C 55.292969 24.910156 55.902344 25.347656 56.359375 25.976562 C 56.582031 26.28125 56.714844 26.65625 56.753906 27.097656 C 56.824219 27.882812 56.722656 28.683594 56.554688 29.457031 C 56.28125 30.714844 56.015625 31.976562 55.757812 33.246094 C 55.496094 34.515625 55.34375 35.828125 55.300781 37.1875 C 55.257812 38.445312 55.421875 39.601562 55.789062 40.660156 C 56.152344 41.703125 56.6875 42.683594 57.390625 43.601562 C 57.75 44.070312 58.128906 44.511719 58.527344 44.917969 C 59.089844 45.496094 59.585938 45.957031 60.019531 46.3125 C 60.253906 46.5 60.554688 46.664062 60.921875 46.804688 C 64.410156 48.128906 67.914062 49.457031 71.433594 50.792969 C 71.453125 50.800781 71.46875 50.820312 71.472656 50.84375 C 71.472656 50.867188 71.460938 50.890625 71.441406 50.902344 C 70.769531 51.265625 70.585938 51.902344 70.640625 52.636719 C 70.714844 53.585938 71.550781 54.316406 72.511719 54.167969 C 72.6875 54.140625 72.863281 54.132812 73.039062 54.097656 C 73.972656 53.898438 74.929688 53.679688 75.910156 53.441406 C 76.449219 53.3125 77.097656 53.1875 77.851562 53.0625 C 78.402344 52.96875 78.929688 52.90625 79.425781 52.875 C 80.273438 52.816406 81.136719 52.808594 82.015625 52.847656 C 82.828125 52.882812 83.707031 53.042969 84.65625 53.328125 C 85.152344 53.476562 85.601562 53.65625 86.003906 53.867188 C 90.207031 56.078125 94.449219 58.347656 98.734375 60.675781 C 98.746094 60.683594 98.753906 60.695312 98.757812 60.710938 C 98.757812 60.726562 98.75 60.742188 98.738281 60.75 C 98.59375 60.84375 98.441406 60.921875 98.285156 60.988281 C 97.691406 61.230469 97.039062 61.429688 96.324219 61.589844 C 96.125 61.632812 95.929688 61.644531 95.734375 61.625 C 95.105469 61.5625 94.445312 61.410156 93.761719 61.171875 C 92.003906 60.5625 90.320312 59.832031 88.566406 59.082031 C 88.5625 59.078125 88.554688 59.078125 88.550781 59.082031 C 88.546875 59.082031 88.542969 59.085938 88.539062 59.089844 L 88.347656 59.585938 C 88.339844 59.601562 88.34375 59.609375 88.359375 59.617188 L 94.175781 62.445312 C 94.210938 62.464844 94.214844 62.488281 94.191406 62.515625 C 93.71875 63.0625 93.019531 63.421875 92.300781 63.644531 C 91.554688 63.875 90.855469 64.019531 90.207031 64.070312 C 89.796875 64.105469 89.390625 64.117188 88.988281 64.109375 C 88.660156 64.101562 88.28125 64.003906 87.84375 63.824219 C 85.242188 62.734375 82.640625 61.652344 80.042969 60.570312 C 80.039062 60.570312 80.035156 60.570312 80.03125 60.570312 C 80.027344 60.574219 80.023438 60.578125 80.019531 60.582031 L 79.835938 61.105469 C 79.832031 61.121094 79.835938 61.128906 79.847656 61.132812 Z M 79.847656 61.132812 "/>
<path style=" stroke:none;fill-rule:nonzero;fill:rgb(10.588235%,22.352941%,54.901961%);fill-opacity:1;" d="M 99.320312 53.761719 C 99.753906 53.890625 100.175781 54.035156 100.582031 54.1875 C 100.859375 54.292969 101.128906 54.28125 101.417969 54.210938 C 102.378906 53.972656 103.011719 53.84375 103.316406 53.816406 C 105.382812 53.632812 107.476562 53.722656 109.582031 53.84375 C 109.667969 53.847656 109.675781 53.871094 109.597656 53.914062 C 108.9375 54.292969 108.277344 54.675781 107.601562 55.007812 C 106.753906 55.421875 106.035156 55.820312 105.4375 56.203125 C 103.882812 57.195312 102.402344 58.300781 100.894531 59.382812 C 100.46875 59.6875 99.992188 59.984375 99.464844 60.277344 C 99.375 60.324219 99.28125 60.324219 99.1875 60.273438 C 95.03125 57.988281 90.71875 55.671875 86.25 53.328125 C 85.859375 53.121094 85.480469 52.960938 85.113281 52.847656 C 83.492188 52.335938 81.898438 52.117188 80.339844 52.195312 C 79.039062 52.257812 77.902344 52.390625 76.941406 52.59375 C 75.945312 52.804688 74.847656 53.050781 73.644531 53.335938 C 73.347656 53.410156 73.03125 53.472656 72.695312 53.53125 C 72.242188 53.605469 71.863281 53.609375 71.539062 53.238281 C 71.085938 52.714844 71.097656 51.894531 71.6875 51.476562 C 71.972656 51.273438 72.277344 51.125 72.636719 51.054688 C 74.15625 50.769531 75.40625 49.851562 76.488281 48.78125 C 77.058594 48.21875 77.621094 47.664062 78.183594 47.121094 C 78.554688 46.761719 78.929688 46.507812 79.3125 46.351562 C 79.878906 46.121094 80.449219 46.277344 81.011719 46.511719 C 82 46.929688 82.992188 47.335938 83.996094 47.71875 C 88.03125 49.261719 92.132812 50.835938 96.296875 52.433594 C 96.328125 52.445312 96.359375 52.4375 96.386719 52.414062 C 98.730469 50.171875 100.863281 47.53125 101.007812 44.152344 C 101.03125 43.621094 101.007812 43.078125 100.941406 42.53125 C 100.746094 40.984375 100.339844 39.511719 99.796875 38.042969 C 99.257812 36.585938 98.636719 35.050781 97.9375 33.4375 C 97.828125 33.1875 97.726562 32.902344 97.664062 32.640625 C 97.496094 31.910156 97.582031 31.238281 97.925781 30.625 C 98.429688 29.71875 99.328125 28.953125 100.242188 28.40625 C 100.996094 27.957031 101.691406 27.558594 102.324219 27.21875 C 106.621094 24.890625 110.914062 22.546875 115.195312 20.191406 C 115.679688 19.925781 116.148438 19.667969 116.605469 19.421875 C 119.8125 17.691406 123.019531 15.964844 126.230469 14.242188 C 129.332031 12.578125 132.375 10.804688 135.492188 9.175781 C 138.570312 7.5625 141.644531 5.929688 144.714844 4.273438 C 144.785156 4.234375 144.816406 4.253906 144.804688 4.335938 C 144.636719 5.355469 144.417969 6.382812 144.144531 7.421875 C 143.882812 8.417969 143.546875 9.433594 143.136719 10.46875 C 142.898438 11.066406 142.617188 11.628906 142.28125 12.164062 C 142.121094 12.421875 141.929688 12.625 141.710938 12.78125 C 141.203125 13.132812 140.621094 13.476562 139.960938 13.8125 C 138.074219 14.773438 136.042969 15.675781 134.308594 16.535156 C 129.566406 18.886719 125.152344 21.046875 121.054688 23.019531 C 120.207031 23.425781 119.125 23.921875 117.804688 24.507812 C 117.300781 24.730469 116.8125 24.957031 116.339844 25.195312 C 115.542969 25.589844 114.773438 25.976562 114.035156 26.347656 C 113.1875 26.773438 112.378906 27.226562 111.542969 27.679688 C 110.386719 28.304688 109.417969 29.164062 108.570312 30.210938 C 108.054688 30.851562 107.625 31.558594 107.359375 32.332031 C 107.070312 33.175781 106.925781 34.097656 106.921875 35.09375 C 106.917969 36.164062 106.925781 37.210938 106.9375 38.238281 C 106.953125 39.3125 106.859375 40.53125 106.664062 41.902344 C 106.589844 42.445312 106.488281 42.972656 106.367188 43.488281 C 106.042969 44.890625 105.65625 46.15625 105.210938 47.277344 C 104.839844 48.214844 104.339844 49.070312 103.703125 49.847656 C 103.0625 50.632812 102.28125 51.378906 101.359375 52.085938 C 101.113281 52.273438 100.847656 52.460938 100.5625 52.640625 C 100.105469 52.925781 99.691406 53.289062 99.308594 53.722656 C 99.304688 53.730469 99.304688 53.738281 99.304688 53.746094 C 99.308594 53.75 99.3125 53.757812 99.320312 53.761719 Z M 99.320312 53.761719 "/>
<path style=" stroke:none;fill-rule:nonzero;fill:rgb(94.117647%,48.627451%,0%);fill-opacity:1;" d="M 29.910156 21.078125 C 32.683594 22.132812 35.457031 23.171875 38.171875 24.3125 C 40.191406 25.160156 42.070312 26.277344 43.851562 27.660156 C 44.246094 27.96875 44.578125 28.269531 44.839844 28.570312 C 45.417969 29.222656 45.925781 29.847656 46.375 30.453125 C 46.40625 30.492188 46.410156 30.550781 46.386719 30.597656 L 46.21875 30.917969 C 46.183594 30.980469 46.136719 31.003906 46.066406 30.992188 C 43.933594 30.660156 41.875 30.304688 39.894531 29.925781 C 33.34375 28.679688 26.8125 27.410156 20.269531 26.210938 C 19.34375 26.039062 18.429688 25.753906 17.535156 25.355469 C 17.382812 25.289062 17.242188 25.207031 17.113281 25.109375 C 15.875 24.171875 14.925781 22.914062 13.984375 21.648438 C 13.535156 21.042969 12.910156 20.0625 12.113281 18.710938 C 11.074219 16.945312 10.109375 15.203125 9.222656 13.492188 C 9.222656 13.484375 9.222656 13.476562 9.226562 13.46875 C 9.230469 13.464844 9.238281 13.460938 9.246094 13.460938 C 9.976562 13.613281 10.675781 13.820312 11.34375 14.078125 C 17.015625 16.292969 22.703125 18.4375 28.410156 20.519531 C 28.894531 20.695312 29.394531 20.882812 29.910156 21.078125 Z M 33.851562 23.214844 C 27.609375 20.886719 21.316406 18.53125 15.207031 16.21875 C 14.703125 16.03125 14.207031 15.835938 13.710938 15.640625 C 12.617188 15.203125 11.515625 14.78125 10.40625 14.371094 C 10.378906 14.359375 10.371094 14.367188 10.382812 14.398438 C 10.515625 14.683594 10.667969 14.976562 10.835938 15.269531 C 11.574219 16.554688 12.316406 17.835938 13.0625 19.113281 C 13.863281 20.476562 14.675781 21.65625 15.507812 22.652344 C 15.644531 22.820312 15.78125 22.972656 15.914062 23.117188 C 16.273438 23.492188 16.613281 23.910156 16.992188 24.226562 C 17.453125 24.613281 17.96875 24.914062 18.535156 25.128906 C 18.96875 25.292969 19.449219 25.417969 19.910156 25.507812 C 20.570312 25.640625 21.214844 25.765625 21.832031 25.882812 C 28.144531 27.089844 34.460938 28.28125 40.777344 29.46875 C 42.140625 29.722656 43.703125 29.996094 45.464844 30.28125 C 45.519531 30.289062 45.523438 30.277344 45.484375 30.242188 C 45.398438 30.171875 45.324219 30.097656 45.261719 30.019531 C 45.023438 29.707031 44.777344 29.414062 44.53125 29.136719 C 44.214844 28.777344 43.816406 28.402344 43.335938 28.003906 C 42.851562 27.605469 42.3125 27.273438 41.796875 26.933594 C 41.050781 26.4375 40.261719 26.011719 39.488281 25.589844 C 39.015625 25.332031 38.488281 25.082031 37.910156 24.84375 C 36.5625 24.285156 35.210938 23.71875 33.851562 23.214844 Z M 33.851562 23.214844 "/>
<path style=" stroke:none;fill-rule:nonzero;fill:rgb(94.117647%,48.627451%,0%);fill-opacity:1;" d="M 141.902344 15.832031 C 141.144531 17.925781 140.238281 20.054688 139.257812 22.1875 C 138.851562 23.074219 138.359375 23.90625 137.78125 24.679688 C 137.671875 24.828125 137.417969 25.121094 137.023438 25.5625 C 136.476562 26.167969 135.851562 26.632812 135.144531 26.964844 C 134.617188 27.207031 134.0625 27.429688 133.496094 27.578125 C 128.828125 28.8125 124.5 30.125 119.972656 31.472656 C 119.472656 31.621094 118.957031 31.769531 118.433594 31.917969 C 116.125 32.566406 113.816406 33.253906 111.511719 33.984375 C 110.453125 34.316406 109.398438 34.605469 108.328125 34.777344 C 108.316406 34.78125 108.300781 34.777344 108.292969 34.765625 C 108.28125 34.757812 108.28125 34.742188 108.28125 34.730469 C 108.507812 33.863281 108.960938 33.027344 109.523438 32.363281 C 109.992188 31.816406 110.472656 31.261719 110.988281 30.75 C 111.710938 30.035156 112.449219 29.402344 113.207031 28.851562 C 113.933594 28.320312 114.808594 27.773438 115.824219 27.214844 C 116.773438 26.6875 117.738281 26.179688 118.722656 25.683594 C 126.535156 21.742188 134.480469 17.726562 142.558594 13.640625 C 142.597656 13.621094 142.609375 13.632812 142.597656 13.671875 C 142.375 14.457031 142.140625 15.175781 141.902344 15.832031 Z M 138.582031 22.175781 C 139.707031 19.792969 140.710938 17.34375 141.597656 14.847656 C 141.609375 14.820312 141.601562 14.8125 141.574219 14.828125 C 133.453125 18.945312 125.378906 23.03125 117.351562 27.085938 C 116.910156 27.308594 116.21875 27.691406 115.277344 28.230469 C 114.902344 28.449219 114.535156 28.707031 114.164062 28.945312 C 113.890625 29.125 113.625 29.3125 113.367188 29.515625 C 112.847656 29.917969 112.496094 30.195312 112.3125 30.355469 C 111.125 31.359375 110.113281 32.515625 109.28125 33.816406 C 109.257812 33.855469 109.238281 33.894531 109.226562 33.9375 C 109.222656 33.953125 109.226562 33.96875 109.238281 33.980469 C 109.25 33.988281 109.265625 33.992188 109.28125 33.988281 C 110.617188 33.621094 111.949219 33.222656 113.277344 32.792969 C 113.785156 32.628906 114.296875 32.472656 114.808594 32.320312 C 119.953125 30.816406 124.945312 29.359375 129.789062 27.949219 C 131.363281 27.492188 132.972656 27.183594 134.5 26.550781 C 134.875 26.394531 135.230469 26.207031 135.5625 25.988281 C 135.949219 25.730469 136.257812 25.476562 136.492188 25.230469 C 137.359375 24.3125 138.054688 23.292969 138.582031 22.175781 Z M 138.582031 22.175781 "/>
<path style=" stroke:none;fill-rule:nonzero;fill:rgb(10.588235%,22.352941%,54.901961%);fill-opacity:1;" d="M 15.207031 16.21875 C 21.316406 18.53125 27.609375 20.886719 33.851562 23.214844 C 35.210938 23.71875 36.5625 24.285156 37.910156 24.84375 C 38.488281 25.082031 39.015625 25.332031 39.488281 25.589844 C 40.261719 26.011719 41.050781 26.4375 41.796875 26.933594 C 42.3125 27.273438 42.851562 27.605469 43.335938 28.003906 C 43.816406 28.402344 44.214844 28.777344 44.53125 29.136719 C 44.777344 29.414062 45.023438 29.707031 45.261719 30.019531 C 45.324219 30.097656 45.398438 30.171875 45.484375 30.242188 C 45.523438 30.277344 45.519531 30.289062 45.464844 30.28125 C 43.703125 29.996094 42.140625 29.722656 40.777344 29.46875 C 34.460938 28.28125 28.144531 27.089844 21.832031 25.882812 C 21.214844 25.765625 20.570312 25.640625 19.910156 25.507812 C 19.449219 25.417969 18.96875 25.292969 18.535156 25.128906 C 17.96875 24.914062 17.453125 24.613281 16.992188 24.226562 C 16.613281 23.910156 16.273438 23.492188 15.914062 23.117188 C 15.78125 22.972656 15.644531 22.820312 15.507812 22.652344 C 14.675781 21.65625 13.863281 20.476562 13.0625 19.113281 C 12.316406 17.835938 11.574219 16.554688 10.835938 15.269531 C 10.667969 14.976562 10.515625 14.683594 10.382812 14.398438 C 10.371094 14.367188 10.378906 14.359375 10.40625 14.371094 C 11.515625 14.78125 12.617188 15.203125 13.710938 15.640625 C 14.207031 15.835938 14.703125 16.03125 15.207031 16.21875 Z M 15.207031 16.21875 "/>
<path style=" stroke:none;fill-rule:nonzero;fill:rgb(10.588235%,22.352941%,54.901961%);fill-opacity:1;" d="M 138.582031 22.175781 C 138.054688 23.292969 137.359375 24.3125 136.492188 25.230469 C 136.257812 25.476562 135.949219 25.730469 135.5625 25.988281 C 135.230469 26.207031 134.875 26.394531 134.5 26.550781 C 132.972656 27.183594 131.363281 27.492188 129.789062 27.949219 C 124.945312 29.359375 119.953125 30.816406 114.808594 32.320312 C 114.296875 32.472656 113.785156 32.628906 113.277344 32.792969 C 111.949219 33.222656 110.617188 33.621094 109.28125 33.988281 C 109.265625 33.992188 109.25 33.988281 109.238281 33.980469 C 109.226562 33.96875 109.222656 33.953125 109.226562 33.9375 C 109.238281 33.894531 109.257812 33.855469 109.28125 33.816406 C 110.113281 32.515625 111.125 31.359375 112.3125 30.355469 C 112.496094 30.195312 112.847656 29.917969 113.367188 29.515625 C 113.625 29.3125 113.890625 29.125 114.164062 28.945312 C 114.535156 28.707031 114.902344 28.449219 115.277344 28.230469 C 116.21875 27.691406 116.910156 27.308594 117.351562 27.085938 C 125.378906 23.03125 133.453125 18.945312 141.574219 14.828125 C 141.601562 14.8125 141.609375 14.820312 141.597656 14.847656 C 140.710938 17.34375 139.707031 19.792969 138.582031 22.175781 Z M 138.582031 22.175781 "/>
<path style=" stroke:none;fill-rule:nonzero;fill:rgb(100%,100%,100%);fill-opacity:1;" d="M 67.953125 27.992188 C 67.921875 27.933594 67.910156 27.9375 67.910156 28.003906 C 67.902344 32.789062 67.902344 37.597656 67.90625 42.429688 C 67.90625 43 67.949219 43.414062 68.039062 43.664062 C 68.332031 44.519531 69.066406 44.886719 69.933594 44.996094 C 70.269531 45.035156 70.59375 45.054688 70.910156 45.046875 C 70.945312 45.046875 70.980469 45.0625 71.007812 45.085938 C 71.03125 45.113281 71.046875 45.148438 71.046875 45.1875 L 71.046875 46.085938 C 71.046875 46.203125 70.992188 46.257812 70.875 46.257812 L 63.101562 46.257812 C 63.074219 46.257812 63.050781 46.234375 63.050781 46.207031 L 63.050781 45.171875 C 63.050781 45.136719 63.066406 45.105469 63.089844 45.082031 C 63.113281 45.058594 63.144531 45.046875 63.179688 45.050781 C 63.664062 45.070312 64.128906 45.019531 64.574219 44.898438 C 65.730469 44.582031 66.082031 43.671875 66.082031 42.566406 C 66.078125 37.707031 66.078125 32.828125 66.082031 27.9375 C 66.082031 27.425781 66.046875 26.894531 65.996094 26.375 C 65.921875 25.585938 64.980469 25.25 64.308594 25.234375 C 63.925781 25.222656 63.535156 25.21875 63.140625 25.230469 C 63.117188 25.230469 63.09375 25.21875 63.078125 25.203125 C 63.058594 25.1875 63.050781 25.164062 63.050781 25.144531 L 63.050781 24.109375 C 63.050781 24.046875 63.082031 24.015625 63.144531 24.015625 L 72.253906 24.015625 C 72.332031 24.015625 72.40625 24.066406 72.4375 24.140625 L 78.117188 37.519531 C 78.136719 37.5625 78.179688 37.589844 78.226562 37.589844 C 78.269531 37.589844 78.3125 37.5625 78.328125 37.519531 L 83.847656 24.089844 C 83.867188 24.042969 83.90625 24.015625 83.957031 24.015625 L 93.042969 24.015625 C 93.101562 24.015625 93.152344 24.0625 93.15625 24.121094 C 93.183594 24.445312 93.183594 24.765625 93.15625 25.078125 C 93.152344 25.171875 93.101562 25.21875 93.007812 25.21875 C 92.417969 25.210938 91.847656 25.1875 91.277344 25.320312 C 90.589844 25.480469 90.253906 25.949219 90.179688 26.628906 C 90.160156 26.796875 90.136719 26.96875 90.136719 27.140625 C 90.132812 32.289062 90.132812 37.476562 90.136719 42.703125 C 90.136719 43.070312 90.171875 43.5 90.238281 43.984375 C 90.28125 44.289062 90.449219 44.480469 90.691406 44.65625 C 91.351562 45.128906 92.238281 45.058594 93 45.042969 C 93.117188 45.042969 93.175781 45.097656 93.175781 45.214844 L 93.179688 46.070312 C 93.179688 46.195312 93.117188 46.257812 92.992188 46.257812 C 89.375 46.257812 85.78125 46.257812 82.210938 46.261719 C 81.941406 46.261719 81.644531 46.164062 81.316406 45.972656 C 81.289062 45.957031 81.277344 45.9375 81.277344 45.90625 L 81.292969 45.132812 C 81.292969 45.109375 81.300781 45.09375 81.316406 45.078125 C 81.332031 45.0625 81.351562 45.054688 81.371094 45.058594 C 81.828125 45.066406 82.277344 45.054688 82.71875 45.023438 C 83.535156 44.960938 84.171875 44.597656 84.265625 43.734375 C 84.304688 43.402344 84.320312 43.050781 84.320312 42.714844 C 84.324219 37.785156 84.324219 32.847656 84.320312 27.902344 C 84.320312 27.886719 84.316406 27.878906 84.300781 27.875 C 84.28125 27.871094 84.269531 27.875 84.265625 27.894531 C 84.183594 28.195312 84.03125 28.496094 83.90625 28.796875 C 81.617188 34.246094 79.195312 40.015625 76.644531 46.109375 C 76.558594 46.308594 76.179688 46.285156 76.011719 46.265625 C 75.855469 46.25 75.746094 46.167969 75.683594 46.023438 C 73.421875 40.753906 70.910156 34.894531 68.144531 28.453125 C 68.136719 28.425781 68.117188 28.40625 68.09375 28.386719 C 67.976562 28.300781 68.011719 28.113281 67.953125 27.992188 Z M 67.648438 26.480469 C 67.671875 26.777344 67.855469 26.988281 67.972656 27.253906 C 70.570312 33.34375 73.21875 39.515625 75.914062 45.773438 C 76.011719 46.003906 76.34375 46.019531 76.445312 45.78125 C 79.15625 39.3125 81.855469 32.871094 84.539062 26.453125 C 84.550781 26.429688 84.5625 26.425781 84.578125 26.453125 C 84.613281 26.523438 84.632812 26.589844 84.632812 26.65625 C 84.628906 32.03125 84.625 37.371094 84.628906 42.675781 C 84.628906 43.789062 84.585938 44.90625 83.292969 45.21875 C 82.792969 45.339844 82.320312 45.378906 81.8125 45.363281 C 81.65625 45.359375 81.578125 45.433594 81.582031 45.59375 L 81.585938 45.730469 C 81.589844 45.886719 81.671875 45.964844 81.824219 45.964844 L 92.6875 45.964844 C 92.804688 45.964844 92.863281 45.90625 92.863281 45.789062 L 92.863281 45.507812 C 92.863281 45.394531 92.804688 45.339844 92.695312 45.347656 C 91.78125 45.402344 90.59375 45.3125 90.074219 44.417969 C 89.96875 44.242188 89.910156 44.015625 89.886719 43.738281 C 89.859375 43.324219 89.84375 42.929688 89.839844 42.5625 C 89.835938 37.617188 89.832031 32.617188 89.835938 27.566406 C 89.839844 27.125 89.863281 26.742188 89.914062 26.414062 C 89.949219 26.171875 90.035156 25.9375 90.167969 25.710938 C 90.648438 24.898438 91.871094 24.914062 92.675781 24.925781 C 92.800781 24.925781 92.859375 24.867188 92.859375 24.746094 L 92.863281 24.480469 C 92.863281 24.367188 92.808594 24.3125 92.699219 24.3125 L 84.265625 24.3125 C 84.152344 24.3125 84.046875 24.382812 84.003906 24.488281 C 81.828125 29.8125 79.996094 34.269531 78.507812 37.859375 C 78.433594 38.039062 78.339844 38.222656 78.226562 38.414062 C 78.222656 38.425781 78.210938 38.429688 78.199219 38.429688 C 78.1875 38.429688 78.175781 38.421875 78.171875 38.410156 L 72.210938 24.40625 C 72.1875 24.347656 72.132812 24.3125 72.074219 24.3125 L 63.503906 24.3125 C 63.429688 24.3125 63.367188 24.371094 63.363281 24.449219 L 63.347656 24.804688 C 63.34375 24.878906 63.382812 24.914062 63.457031 24.914062 C 64.207031 24.910156 64.96875 24.917969 65.605469 25.300781 C 65.972656 25.519531 66.253906 25.886719 66.292969 26.3125 C 66.34375 26.835938 66.371094 27.367188 66.371094 27.90625 C 66.386719 32.90625 66.386719 37.84375 66.375 42.714844 C 66.371094 43.804688 65.933594 44.734375 64.886719 45.121094 C 64.492188 45.269531 64.03125 45.347656 63.511719 45.363281 C 63.40625 45.367188 63.351562 45.421875 63.351562 45.53125 L 63.351562 45.789062 C 63.351562 45.90625 63.410156 45.964844 63.527344 45.964844 L 70.519531 45.964844 C 70.652344 45.964844 70.726562 45.898438 70.742188 45.769531 C 70.75 45.707031 70.753906 45.640625 70.75 45.574219 C 70.742188 45.433594 70.667969 45.359375 70.527344 45.347656 C 70.253906 45.328125 69.984375 45.300781 69.722656 45.265625 C 68.566406 45.109375 67.632812 44.261719 67.628906 43.046875 C 67.613281 37.617188 67.605469 32.097656 67.601562 26.5 C 67.601562 26.488281 67.609375 26.480469 67.621094 26.480469 L 67.640625 26.476562 C 67.644531 26.476562 67.648438 26.476562 67.648438 26.480469 Z M 67.648438 26.480469 "/>
<path style=" stroke:none;fill-rule:nonzero;fill:rgb(10.588235%,22.352941%,54.901961%);fill-opacity:1;" d="M 67.648438 26.480469 C 67.648438 26.476562 67.644531 26.476562 67.640625 26.476562 L 67.621094 26.480469 C 67.609375 26.480469 67.601562 26.488281 67.601562 26.5 C 67.605469 32.097656 67.613281 37.617188 67.628906 43.046875 C 67.632812 44.261719 68.566406 45.109375 69.722656 45.265625 C 69.984375 45.300781 70.253906 45.328125 70.527344 45.347656 C 70.667969 45.359375 70.742188 45.433594 70.75 45.574219 C 70.753906 45.640625 70.75 45.707031 70.742188 45.769531 C 70.726562 45.898438 70.652344 45.964844 70.519531 45.964844 L 63.527344 45.964844 C 63.410156 45.964844 63.351562 45.90625 63.351562 45.789062 L 63.351562 45.53125 C 63.351562 45.421875 63.40625 45.367188 63.511719 45.363281 C 64.03125 45.347656 64.492188 45.269531 64.886719 45.121094 C 65.933594 44.734375 66.371094 43.804688 66.375 42.714844 C 66.386719 37.84375 66.386719 32.90625 66.371094 27.90625 C 66.371094 27.367188 66.34375 26.835938 66.292969 26.3125 C 66.253906 25.886719 65.972656 25.519531 65.605469 25.300781 C 64.96875 24.917969 64.207031 24.910156 63.457031 24.914062 C 63.382812 24.914062 63.34375 24.878906 63.347656 24.804688 L 63.363281 24.449219 C 63.367188 24.371094 63.429688 24.3125 63.503906 24.3125 L 72.074219 24.3125 C 72.132812 24.3125 72.1875 24.347656 72.210938 24.40625 L 78.171875 38.410156 C 78.175781 38.421875 78.1875 38.429688 78.199219 38.429688 C 78.210938 38.429688 78.222656 38.425781 78.226562 38.414062 C 78.339844 38.222656 78.433594 38.039062 78.507812 37.859375 C 79.996094 34.269531 81.828125 29.8125 84.003906 24.488281 C 84.046875 24.382812 84.152344 24.3125 84.265625 24.3125 L 92.699219 24.3125 C 92.808594 24.3125 92.863281 24.367188 92.863281 24.480469 L 92.859375 24.746094 C 92.859375 24.867188 92.800781 24.925781 92.675781 24.925781 C 91.871094 24.914062 90.648438 24.898438 90.167969 25.710938 C 90.035156 25.9375 89.949219 26.171875 89.914062 26.414062 C 89.863281 26.742188 89.839844 27.125 89.835938 27.566406 C 89.832031 32.617188 89.835938 37.617188 89.839844 42.5625 C 89.84375 42.929688 89.859375 43.324219 89.886719 43.738281 C 89.910156 44.015625 89.96875 44.242188 90.074219 44.417969 C 90.59375 45.3125 91.78125 45.402344 92.695312 45.347656 C 92.804688 45.339844 92.863281 45.394531 92.863281 45.507812 L 92.863281 45.789062 C 92.863281 45.90625 92.804688 45.964844 92.6875 45.964844 L 81.824219 45.964844 C 81.671875 45.964844 81.589844 45.886719 81.585938 45.730469 L 81.582031 45.59375 C 81.578125 45.433594 81.65625 45.359375 81.8125 45.363281 C 82.320312 45.378906 82.792969 45.339844 83.292969 45.21875 C 84.585938 44.90625 84.628906 43.789062 84.628906 42.675781 C 84.625 37.371094 84.628906 32.03125 84.632812 26.65625 C 84.632812 26.589844 84.613281 26.523438 84.578125 26.453125 C 84.5625 26.425781 84.550781 26.429688 84.539062 26.453125 C 81.855469 32.871094 79.15625 39.3125 76.445312 45.78125 C 76.34375 46.019531 76.011719 46.003906 75.914062 45.773438 C 73.21875 39.515625 70.570312 33.34375 67.972656 27.253906 C 67.855469 26.988281 67.671875 26.777344 67.648438 26.480469 Z M 67.648438 26.480469 "/>
<path style=" stroke:none;fill-rule:nonzero;fill:rgb(94.117647%,48.627451%,0%);fill-opacity:1;" d="M 26.984375 35.453125 C 26.058594 35.003906 25.179688 34.378906 24.355469 33.65625 C 23.617188 33.007812 22.921875 32.320312 22.273438 31.597656 C 22.082031 31.386719 21.695312 30.941406 21.121094 30.265625 C 20.441406 29.46875 19.820312 28.671875 19.144531 27.917969 C 18.710938 27.425781 18.484375 27.035156 18.320312 26.433594 C 18.308594 26.382812 18.328125 26.359375 18.382812 26.371094 C 19.039062 26.496094 19.6875 26.617188 20.335938 26.773438 C 24.484375 27.769531 28.65625 28.824219 32.847656 29.9375 C 33.328125 30.0625 33.839844 30.191406 34.378906 30.320312 C 35.71875 30.640625 37.117188 30.96875 38.566406 31.300781 C 39.074219 31.417969 39.601562 31.554688 40.15625 31.714844 C 41.320312 32.054688 42.320312 32.441406 43.15625 32.878906 C 43.691406 33.160156 44.269531 33.496094 44.894531 33.886719 C 45.394531 34.203125 45.816406 34.511719 46.164062 34.816406 C 46.667969 35.261719 47.128906 35.769531 47.550781 36.34375 C 47.59375 36.402344 47.605469 36.464844 47.589844 36.535156 C 47.582031 36.570312 47.5625 36.589844 47.527344 36.589844 C 41.585938 36.472656 36.140625 36.328125 31.191406 36.160156 C 30.398438 36.132812 29.589844 36.074219 28.769531 35.984375 C 28.171875 35.917969 27.578125 35.742188 26.984375 35.453125 Z M 41.535156 32.800781 C 41.292969 32.703125 41.039062 32.613281 40.777344 32.535156 C 39.433594 32.128906 37.871094 31.730469 36.085938 31.34375 C 35.515625 31.21875 34.996094 31.097656 34.527344 30.980469 C 30.941406 30.066406 27.140625 29.074219 23.714844 28.207031 C 22.269531 27.84375 20.910156 27.519531 19.632812 27.242188 C 19.457031 27.203125 19.425781 27.253906 19.539062 27.394531 C 20.433594 28.53125 21.382812 29.671875 22.386719 30.820312 C 23.183594 31.730469 23.953125 32.503906 24.6875 33.148438 C 25.347656 33.722656 26.066406 34.234375 26.835938 34.6875 C 27.550781 35.105469 28.308594 35.347656 29.101562 35.414062 C 29.734375 35.46875 30.363281 35.507812 30.996094 35.53125 C 35.558594 35.699219 40.246094 35.832031 45.066406 35.929688 C 45.472656 35.9375 45.898438 35.941406 46.347656 35.941406 C 46.363281 35.941406 46.378906 35.929688 46.386719 35.914062 C 46.394531 35.898438 46.390625 35.878906 46.378906 35.867188 C 46.148438 35.589844 45.90625 35.355469 45.652344 35.164062 C 44.316406 34.15625 42.945312 33.371094 41.535156 32.800781 Z M 41.535156 32.800781 "/>
<path style=" stroke:none;fill-rule:nonzero;fill:rgb(10.588235%,22.352941%,54.901961%);fill-opacity:1;" d="M 41.535156 32.800781 C 42.945312 33.371094 44.316406 34.15625 45.652344 35.164062 C 45.90625 35.355469 46.148438 35.589844 46.378906 35.867188 C 46.390625 35.878906 46.394531 35.898438 46.386719 35.914062 C 46.378906 35.929688 46.363281 35.941406 46.347656 35.941406 C 45.898438 35.941406 45.472656 35.9375 45.066406 35.929688 C 40.246094 35.832031 35.558594 35.699219 30.996094 35.53125 C 30.363281 35.507812 29.734375 35.46875 29.101562 35.414062 C 28.308594 35.347656 27.550781 35.105469 26.835938 34.6875 C 26.066406 34.234375 25.347656 33.722656 24.6875 33.148438 C 23.953125 32.503906 23.183594 31.730469 22.386719 30.820312 C 21.382812 29.671875 20.433594 28.53125 19.539062 27.394531 C 19.425781 27.253906 19.457031 27.203125 19.632812 27.242188 C 20.910156 27.519531 22.269531 27.84375 23.714844 28.207031 C 27.140625 29.074219 30.941406 30.066406 34.527344 30.980469 C 34.996094 31.097656 35.515625 31.21875 36.085938 31.34375 C 37.871094 31.730469 39.433594 32.128906 40.777344 32.535156 C 41.039062 32.613281 41.292969 32.703125 41.535156 32.800781 Z M 41.535156 32.800781 "/>
<path style=" stroke:none;fill-rule:nonzero;fill:rgb(94.117647%,48.627451%,0%);fill-opacity:1;" d="M 135.097656 29.027344 C 133.882812 31.117188 132.53125 33.046875 131.007812 34.984375 C 130.625 35.464844 130.246094 35.910156 129.863281 36.320312 C 129.542969 36.660156 129.15625 36.976562 128.707031 37.265625 C 128.363281 37.488281 127.957031 37.664062 127.492188 37.800781 C 126.957031 37.953125 126.457031 38.0625 125.996094 38.125 C 119.949219 38.9375 114.082031 39.691406 108.386719 40.386719 C 108.359375 40.390625 108.332031 40.378906 108.316406 40.359375 C 108.296875 40.335938 108.292969 40.308594 108.300781 40.28125 C 108.617188 39.371094 109.226562 38.726562 109.902344 38.074219 C 110.957031 37.058594 112.105469 36.222656 113.351562 35.5625 C 113.945312 35.246094 114.589844 34.960938 115.285156 34.699219 C 117.097656 34.023438 118.71875 33.425781 120.148438 32.90625 C 125.316406 31.035156 130.496094 29.191406 135.683594 27.378906 C 135.714844 27.367188 135.75 27.375 135.769531 27.398438 C 135.792969 27.421875 135.800781 27.453125 135.792969 27.484375 C 135.621094 28.003906 135.390625 28.519531 135.097656 29.027344 Z M 134.585938 28.644531 C 134.609375 28.570312 134.652344 28.515625 134.6875 28.445312 C 134.714844 28.402344 134.703125 28.386719 134.652344 28.402344 C 128.449219 30.550781 122.269531 32.765625 116.109375 35.054688 C 115.300781 35.355469 114.4375 35.691406 113.664062 36.101562 C 112.578125 36.675781 111.523438 37.425781 110.496094 38.355469 C 110.117188 38.695312 109.773438 39.0625 109.464844 39.449219 C 109.359375 39.582031 109.390625 39.636719 109.558594 39.617188 C 113.15625 39.203125 116.765625 38.753906 120.390625 38.261719 C 122.054688 38.039062 123.714844 37.8125 125.378906 37.589844 C 126.417969 37.449219 127.386719 37.304688 128.214844 36.828125 C 128.609375 36.601562 128.945312 36.347656 129.226562 36.0625 C 129.695312 35.59375 130.234375 34.984375 130.695312 34.398438 C 132.125 32.574219 133.402344 30.699219 134.53125 28.765625 C 134.554688 28.730469 134.570312 28.6875 134.585938 28.644531 Z M 134.585938 28.644531 "/>
<path style=" stroke:none;fill-rule:nonzero;fill:rgb(10.588235%,22.352941%,54.901961%);fill-opacity:1;" d="M 134.585938 28.644531 C 134.570312 28.6875 134.554688 28.730469 134.53125 28.765625 C 133.402344 30.699219 132.125 32.574219 130.695312 34.398438 C 130.234375 34.984375 129.695312 35.59375 129.226562 36.0625 C 128.945312 36.347656 128.609375 36.601562 128.214844 36.828125 C 127.386719 37.304688 126.417969 37.449219 125.378906 37.589844 C 123.714844 37.8125 122.054688 38.039062 120.390625 38.261719 C 116.765625 38.753906 113.15625 39.203125 109.558594 39.617188 C 109.390625 39.636719 109.359375 39.582031 109.464844 39.449219 C 109.773438 39.0625 110.117188 38.695312 110.496094 38.355469 C 111.523438 37.425781 112.578125 36.675781 113.664062 36.101562 C 114.4375 35.691406 115.300781 35.355469 116.109375 35.054688 C 122.269531 32.765625 128.449219 30.550781 134.652344 28.402344 C 134.703125 28.386719 134.714844 28.402344 134.6875 28.445312 C 134.652344 28.515625 134.609375 28.570312 134.585938 28.644531 Z M 134.585938 28.644531 "/>
<path style=" stroke:none;fill-rule:nonzero;fill:rgb(94.117647%,48.627451%,0%);fill-opacity:1;" d="M 28.234375 36.675781 C 28.253906 36.550781 28.324219 36.496094 28.449219 36.507812 C 32.640625 36.890625 37.015625 37.410156 41.339844 37.910156 C 42.660156 38.0625 44.042969 38.320312 45.203125 38.859375 C 45.710938 39.097656 46.269531 39.402344 46.882812 39.78125 C 47.835938 40.367188 48.804688 40.960938 49.78125 41.554688 C 49.789062 41.5625 49.796875 41.570312 49.792969 41.582031 C 49.792969 41.59375 49.789062 41.601562 49.777344 41.605469 C 49.4375 41.753906 49.105469 41.863281 48.773438 41.929688 C 46.042969 42.5 43.238281 42.964844 40.359375 43.320312 C 39.582031 43.417969 38.699219 43.5 37.710938 43.570312 C 36.53125 43.65625 35.289062 43.175781 34.371094 42.484375 C 33.890625 42.125 33.402344 41.722656 32.929688 41.304688 C 31.320312 39.886719 29.738281 38.488281 28.179688 37.113281 C 28.15625 37.089844 28.144531 37.066406 28.136719 37.035156 C 28.121094 36.949219 28.144531 36.859375 28.203125 36.765625 C 28.21875 36.738281 28.230469 36.707031 28.234375 36.675781 Z M 43.792969 38.988281 C 43.082031 38.789062 42.351562 38.644531 41.601562 38.558594 C 38.613281 38.203125 35.664062 37.867188 32.757812 37.539062 C 31.707031 37.421875 30.5625 37.308594 29.320312 37.203125 C 29.296875 37.203125 29.273438 37.21875 29.265625 37.242188 C 29.261719 37.265625 29.269531 37.28125 29.285156 37.296875 C 30.628906 38.480469 32 39.691406 33.398438 40.929688 C 34.121094 41.574219 34.816406 42.082031 35.472656 42.453125 C 36.542969 43.058594 37.695312 43.003906 38.953125 42.859375 C 40.09375 42.730469 41.175781 42.589844 42.199219 42.445312 C 43.984375 42.195312 45.980469 41.855469 48.191406 41.421875 C 48.207031 41.417969 48.222656 41.40625 48.230469 41.390625 C 48.234375 41.371094 48.230469 41.355469 48.222656 41.339844 C 48.203125 41.320312 48.183594 41.300781 48.160156 41.285156 C 47.089844 40.597656 46.164062 40.039062 45.390625 39.621094 C 44.929688 39.367188 44.394531 39.15625 43.792969 38.988281 Z M 43.792969 38.988281 "/>
<path style=" stroke:none;fill-rule:nonzero;fill:rgb(10.588235%,22.352941%,54.901961%);fill-opacity:1;" d="M 43.792969 38.988281 C 44.394531 39.15625 44.929688 39.367188 45.390625 39.621094 C 46.164062 40.039062 47.089844 40.597656 48.160156 41.285156 C 48.183594 41.300781 48.203125 41.320312 48.222656 41.339844 C 48.230469 41.355469 48.234375 41.371094 48.230469 41.390625 C 48.222656 41.40625 48.207031 41.417969 48.191406 41.421875 C 45.980469 41.855469 43.984375 42.195312 42.199219 42.445312 C 41.175781 42.589844 40.09375 42.730469 38.953125 42.859375 C 37.695312 43.003906 36.542969 43.058594 35.472656 42.453125 C 34.816406 42.082031 34.121094 41.574219 33.398438 40.929688 C 32 39.691406 30.628906 38.480469 29.285156 37.296875 C 29.269531 37.28125 29.261719 37.265625 29.265625 37.242188 C 29.273438 37.21875 29.296875 37.203125 29.320312 37.203125 C 30.5625 37.308594 31.707031 37.421875 32.757812 37.539062 C 35.664062 37.867188 38.613281 38.203125 41.601562 38.558594 C 42.351562 38.644531 43.082031 38.789062 43.792969 38.988281 Z M 43.792969 38.988281 "/>
<path style=" stroke:none;fill-rule:nonzero;fill:rgb(94.117647%,48.627451%,0%);fill-opacity:1;" d="M 128.121094 38.414062 C 127.976562 38.6875 127.820312 38.976562 127.625 39.199219 C 127.28125 39.582031 126.921875 39.925781 126.585938 40.328125 C 125.398438 41.746094 124.191406 43.179688 122.894531 44.484375 C 122.71875 44.660156 122.527344 44.835938 122.324219 45.015625 C 121.207031 45.984375 119.941406 46.457031 118.527344 46.441406 C 117.605469 46.429688 116.554688 46.375 115.371094 46.277344 C 114.855469 46.234375 114.324219 46.199219 113.773438 46.175781 C 112.648438 46.125 111.417969 46.0625 110.082031 45.984375 C 109.136719 45.929688 108.207031 45.855469 107.273438 45.617188 C 107.253906 45.609375 107.234375 45.597656 107.226562 45.578125 C 107.21875 45.558594 107.21875 45.539062 107.230469 45.519531 C 107.691406 44.644531 108.3125 43.957031 109.128906 43.410156 C 110.054688 42.792969 111.054688 42.292969 112.128906 41.917969 C 113.40625 41.46875 114.730469 41.097656 116.113281 40.808594 C 119.867188 40.015625 123.847656 39.191406 128.0625 38.335938 C 128.136719 38.320312 128.15625 38.347656 128.121094 38.414062 Z M 120.566406 45.417969 C 121.261719 45.09375 121.898438 44.636719 122.472656 44.046875 C 123.828125 42.65625 125.253906 40.953125 126.589844 39.355469 C 126.652344 39.28125 126.636719 39.253906 126.539062 39.273438 C 123.4375 39.910156 120.3125 40.550781 117.164062 41.191406 C 115.84375 41.460938 114.535156 41.800781 113.289062 42.171875 C 112.191406 42.5 111.128906 42.957031 110.101562 43.535156 C 109.703125 43.761719 109.359375 43.996094 109.066406 44.246094 C 108.757812 44.507812 108.476562 44.792969 108.226562 45.101562 C 108.210938 45.121094 108.207031 45.148438 108.214844 45.171875 C 108.226562 45.195312 108.246094 45.210938 108.273438 45.214844 C 108.691406 45.257812 109.101562 45.296875 109.507812 45.335938 C 109.925781 45.375 110.335938 45.40625 110.738281 45.421875 C 111.570312 45.457031 112.441406 45.496094 113.347656 45.542969 C 114.832031 45.617188 116.402344 45.769531 117.941406 45.828125 C 118.4375 45.847656 118.871094 45.835938 119.234375 45.789062 C 119.722656 45.730469 120.167969 45.605469 120.566406 45.417969 Z M 120.566406 45.417969 "/>
<path style=" stroke:none;fill-rule:nonzero;fill:rgb(10.588235%,22.352941%,54.901961%);fill-opacity:1;" d="M 120.566406 45.417969 C 120.167969 45.605469 119.722656 45.730469 119.234375 45.789062 C 118.871094 45.835938 118.4375 45.847656 117.941406 45.828125 C 116.402344 45.769531 114.832031 45.617188 113.347656 45.542969 C 112.441406 45.496094 111.570312 45.457031 110.738281 45.421875 C 110.335938 45.40625 109.925781 45.375 109.507812 45.335938 C 109.101562 45.296875 108.691406 45.257812 108.273438 45.214844 C 108.246094 45.210938 108.226562 45.195312 108.214844 45.171875 C 108.207031 45.148438 108.210938 45.121094 108.226562 45.101562 C 108.476562 44.792969 108.757812 44.507812 109.066406 44.246094 C 109.359375 43.996094 109.703125 43.761719 110.101562 43.535156 C 111.128906 42.957031 112.191406 42.5 113.289062 42.171875 C 114.535156 41.800781 115.84375 41.460938 117.164062 41.191406 C 120.3125 40.550781 123.4375 39.910156 126.539062 39.273438 C 126.636719 39.253906 126.652344 39.28125 126.589844 39.355469 C 125.253906 40.953125 123.828125 42.65625 122.472656 44.046875 C 121.898438 44.636719 121.261719 45.09375 120.566406 45.417969 Z M 120.566406 45.417969 "/>
<path style=" stroke:none;fill-rule:nonzero;fill:rgb(94.117647%,48.627451%,0%);fill-opacity:1;" d="M 51.40625 45.335938 C 52.175781 45.652344 52.9375 45.949219 53.6875 46.234375 C 53.695312 46.238281 53.703125 46.246094 53.707031 46.257812 C 53.707031 46.269531 53.703125 46.277344 53.699219 46.285156 C 53.582031 46.410156 53.464844 46.539062 53.351562 46.675781 C 53.160156 46.90625 52.835938 47.078125 52.546875 47.183594 C 51.679688 47.507812 50.753906 47.808594 49.910156 48.128906 C 49.019531 48.46875 48.121094 48.785156 47.214844 49.082031 C 47 49.152344 46.667969 49.214844 46.210938 49.265625 C 45.507812 49.34375 44.832031 49.246094 44.179688 48.972656 C 43.652344 48.753906 43.117188 48.46875 42.578125 48.121094 C 41.226562 47.253906 39.917969 46.402344 38.652344 45.5625 C 38.113281 45.207031 37.605469 44.789062 37.125 44.3125 C 37.113281 44.300781 37.109375 44.285156 37.113281 44.273438 C 37.121094 44.257812 37.132812 44.25 37.144531 44.246094 C 39.023438 44.023438 40.941406 43.929688 42.894531 43.96875 C 44.03125 43.988281 45.007812 44.027344 45.828125 44.085938 C 46.621094 44.140625 47.46875 44.246094 48.375 44.398438 C 48.824219 44.472656 49.214844 44.5625 49.550781 44.664062 C 50.074219 44.820312 50.691406 45.046875 51.40625 45.335938 Z M 52.414062 46.390625 C 51.582031 46.042969 50.800781 45.734375 50.074219 45.457031 C 49.570312 45.265625 49.003906 45.109375 48.472656 45.023438 C 46.828125 44.761719 45.261719 44.613281 43.773438 44.578125 C 42.027344 44.535156 40.289062 44.582031 38.5625 44.710938 C 38.488281 44.714844 38.480469 44.738281 38.546875 44.78125 C 39.765625 45.574219 40.988281 46.375 42.210938 47.175781 C 42.960938 47.667969 43.75 48.148438 44.578125 48.449219 C 44.726562 48.503906 44.882812 48.546875 45.042969 48.578125 C 45.746094 48.707031 46.441406 48.664062 47.132812 48.449219 C 48.65625 47.984375 50.171875 47.359375 51.722656 46.824219 C 51.980469 46.738281 52.234375 46.644531 52.484375 46.546875 C 52.503906 46.539062 52.515625 46.523438 52.519531 46.507812 C 52.523438 46.488281 52.519531 46.46875 52.507812 46.457031 C 52.480469 46.425781 52.449219 46.40625 52.414062 46.390625 Z M 52.414062 46.390625 "/>
<path style=" stroke:none;fill-rule:nonzero;fill:rgb(10.588235%,22.352941%,54.901961%);fill-opacity:1;" d="M 52.414062 46.390625 C 52.449219 46.40625 52.480469 46.425781 52.507812 46.457031 C 52.519531 46.46875 52.523438 46.488281 52.519531 46.507812 C 52.515625 46.523438 52.503906 46.539062 52.484375 46.546875 C 52.234375 46.644531 51.980469 46.738281 51.722656 46.824219 C 50.171875 47.359375 48.65625 47.984375 47.132812 48.449219 C 46.441406 48.664062 45.746094 48.707031 45.042969 48.578125 C 44.882812 48.546875 44.726562 48.503906 44.578125 48.449219 C 43.75 48.148438 42.960938 47.667969 42.210938 47.175781 C 40.988281 46.375 39.765625 45.574219 38.546875 44.78125 C 38.480469 44.738281 38.488281 44.714844 38.5625 44.710938 C 40.289062 44.582031 42.027344 44.535156 43.773438 44.578125 C 45.261719 44.613281 46.828125 44.761719 48.472656 45.023438 C 49.003906 45.109375 49.570312 45.265625 50.074219 45.457031 C 50.800781 45.734375 51.582031 46.042969 52.414062 46.390625 Z M 52.414062 46.390625 "/>
<path style=" stroke:none;fill-rule:nonzero;fill:rgb(10.588235%,22.352941%,54.901961%);fill-opacity:1;" d="M 114.847656 50.972656 C 113.875 51.789062 112.601562 52.3125 111.324219 52.164062 C 110.015625 52.015625 108.75 51.589844 107.453125 51.347656 C 106.792969 51.222656 106.230469 51.097656 105.636719 50.90625 C 105.496094 50.863281 105.496094 50.824219 105.640625 50.789062 L 118.367188 47.78125 C 118.554688 47.738281 118.570312 47.769531 118.410156 47.878906 C 117.941406 48.199219 117.484375 48.574219 117.039062 49 C 116.285156 49.71875 115.554688 50.375 114.847656 50.972656 Z M 114.847656 50.972656 "/>
</g>
</svg>
