<?xml version="1.0" encoding="UTF-8" standalone="no"?>
<!DOCTYPE svg PUBLIC "-//W3C//DTD SVG 1.1//EN" "http://www.w3.org/Graphics/SVG/1.1/DTD/svg11.dtd">
<svg xmlns="http://www.w3.org/2000/svg" version="1.1" viewBox="0.00 0.00 263.00 125.00">
<g stroke-width="2.00" fill="none" stroke-linecap="butt">
<path stroke="#784410" vector-effect="non-scaling-stroke" d="
  M 225.53 29.80
  Q 229.16 23.11 229.78 15.87
  Q 229.83 15.18 229.22 15.51
  L 162.95 51.46
  Q 162.40 51.76 162.03 51.26
  C 161.13 50.06 160.36 48.74 159.39 47.59
  Q 151.92 38.83 141.58 35.88
  Q 121.06 30.02 104.63 43.45
  C 102.13 45.48 100.24 48.15 98.02 50.62"
/>
<path stroke="#5d3716" vector-effect="non-scaling-stroke" d="
  M 98.02 50.62
  C 98.55 48.00 93.68 45.49 91.59 44.63
  Q 56.85 30.39 20.59 15.66
  Q 19.27 15.13 19.89 16.41
  Q 22.66 22.07 25.39 27.87
  Q 26.07 29.31 27.37 30.22
  Q 27.87 30.57 27.27 30.68
  Q 27.11 30.71 27.09 30.87
  Q 27.04 31.21 27.19 31.53
  Q 30.77 39.03 34.99 44.54
  C 36.74 46.82 39.32 49.45 42.34 49.20
  Q 42.40 49.20 42.40 49.27
  L 42.39 49.53
  Q 42.38 49.78 42.12 49.79
  L 40.88 49.83
  Q 39.92 49.85 40.45 50.65
  C 43.71 55.57 48.63 61.44 54.10 63.99
  Q 54.49 64.18 54.92 64.11
  Q 56.52 63.85 58.28 64.24
  Q 58.97 64.40 58.29 64.61
  Q 56.99 65.02 55.46 64.63
  A 0.46 0.46 0.0 0 0 54.89 65.16
  Q 55.04 65.95 55.63 66.51
  Q 59.44 70.14 63.33 73.28
  Q 65.24 74.83 67.69 75.63
  A 1.07 1.06 -1.1 0 1 68.35 76.26
  Q 68.66 77.09 69.38 77.64
  C 73.04 80.43 78.48 84.42 83.02 84.30
  A 0.19 0.18 0.0 0 1 83.21 84.48
  Q 83.22 84.93 83.38 85.31
  Q 83.55 85.71 84.00 85.91
  Q 88.34 87.83 92.10 89.88
  Q 109.44 99.37 127.61 109.94
  C 130.61 111.69 136.26 114.22 139.18 110.92
  A 2.07 2.05 17.4 0 1 140.48 110.25
  Q 143.87 109.86 146.01 107.67
  Q 146.48 107.19 147.16 107.13
  Q 151.98 106.75 154.63 103.76
  Q 155.05 103.28 155.70 103.30
  C 159.88 103.44 165.15 99.24 168.41 96.77
  C 171.47 94.45 175.04 93.00 178.21 90.65
  Q 179.32 89.83 177.95 89.90
  Q 175.79 90.00 173.50 89.80
  Q 168.33 89.35 164.01 90.44
  Q 162.52 90.82 163.69 89.82
  Q 165.38 88.38 166.89 87.01
  C 170.00 84.16 171.26 80.11 172.38 75.99
  C 173.37 72.32 173.40 68.09 173.22 64.29
  C 172.96 58.49 176.02 54.38 181.25 51.81
  Q 198.36 43.40 215.05 35.44
  Q 216.59 34.70 218.29 33.97
  Q 219.95 33.26 221.44 32.32
  Q 221.54 32.27 221.64 32.24
  Q 221.78 32.20 221.84 32.38
  Q 221.90 32.53 221.75 32.61
  Q 215.45 36.08 213.16 37.20
  Q 199.39 43.93 185.81 51.04
  C 181.20 53.45 176.46 57.02 174.45 61.92
  A 0.44 0.44 0.0 0 0 174.98 62.51
  Q 192.46 57.34 209.81 52.30
  Q 210.54 52.09 211.26 52.12
  Q 212.07 52.14 212.61 51.56
  Q 212.96 51.18 213.46 51.11
  C 216.72 50.62 219.51 46.20 220.81 43.29
  Q 223.40 37.49 225.36 31.76
  Q 225.44 31.53 225.36 31.30
  Q 225.06 30.50 224.57 31.20
  Q 224.08 31.90 223.24 31.94
  Q 222.69 31.97 222.98 31.49
  C 223.47 30.66 224.85 30.69 225.53 29.80"
/>
<path stroke="#6b4e4c" vector-effect="non-scaling-stroke" d="
  M 98.02 50.62
  Q 95.15 46.94 91.73 45.55
  Q 56.93 31.47 22.60 17.31
  Q 20.96 16.63 21.73 18.24
  L 25.81 26.76
  A 6.60 6.60 0.0 0 0 29.60 30.14
  Q 53.74 38.49 75.93 46.72
  C 81.41 48.75 84.24 53.48 84.98 59.12
  C 86.25 68.97 89.68 77.57 98.58 82.20
  Q 99.27 82.56 98.69 83.08
  Q 97.86 83.83 96.72 83.87
  Q 91.39 84.07 86.56 84.82
  Q 83.86 85.23 86.40 86.24
  Q 89.52 87.48 92.42 89.08
  Q 109.38 98.37 127.98 109.25
  C 130.77 110.88 134.66 112.65 137.62 111.05
  A 0.49 0.49 0.0 0 0 137.60 110.18
  L 127.04 104.96
  Q 126.88 104.88 126.96 104.72
  L 127.08 104.46
  Q 127.17 104.27 127.36 104.36
  Q 131.38 106.15 135.34 107.97
  C 137.77 109.09 140.34 109.25 142.94 108.81
  Q 145.94 108.31 143.22 106.96
  L 132.12 101.48
  Q 131.94 101.40 132.06 101.24
  L 132.24 101.02
  Q 132.26 100.99 132.30 101.00
  Q 136.28 102.52 140.63 104.53
  C 144.80 106.46 149.13 106.84 152.92 104.29
  A 0.58 0.58 0.0 0 0 152.84 103.28
  L 145.21 99.68
  Q 144.93 99.54 145.13 99.30
  L 145.33 99.07
  Q 145.41 98.98 145.52 99.03
  Q 149.29 100.51 152.75 101.86
  Q 155.99 103.13 159.30 101.70
  A 0.65 0.65 0.0 0 0 159.35 100.54
  Q 150.80 95.79 141.61 91.12
  Q 138.77 89.68 135.11 89.11
  C 132.42 88.70 129.68 89.64 126.97 89.99
  C 124.44 90.31 122.42 91.46 119.76 90.85
  A 1.78 1.75 87.2 0 1 118.47 89.66
  Q 117.92 87.99 119.09 87.19
  Q 119.45 86.94 119.43 87.37
  Q 119.41 87.73 119.17 87.97
  Q 118.72 88.43 118.91 89.04
  Q 119.31 90.32 120.62 90.32
  Q 122.84 90.31 125.06 89.72
  Q 126.99 89.20 128.99 88.87
  Q 131.06 88.53 132.99 88.47
  Q 135.99 88.37 138.88 89.25
  Q 141.32 89.99 143.79 91.31
  Q 151.67 95.51 159.55 99.92
  C 160.62 100.52 162.05 100.12 162.94 99.42
  Q 168.65 94.96 174.88 91.90
  Q 176.74 90.98 174.67 90.84
  Q 168.98 90.45 163.42 91.26
  Q 162.55 91.39 161.69 91.13
  A 0.53 0.53 0.0 0 1 161.55 90.18
  Q 164.28 88.28 166.50 86.07
  Q 168.52 84.06 169.77 81.12
  Q 171.67 76.64 171.92 72.67
  Q 172.17 68.52 172.21 64.36
  Q 172.29 55.25 180.32 51.36
  Q 201.31 41.19 222.70 30.68
  Q 224.10 29.99 225.09 28.75"
/>
<path stroke="#d56f06" vector-effect="non-scaling-stroke" d="
  M 225.09 28.75
  Q 224.99 30.02 225.53 29.80"
/>
<path stroke="#865b46" vector-effect="non-scaling-stroke" d="
  M 225.09 28.75
  Q 227.89 23.42 228.88 17.51
  A 0.50 0.50 0.0 0 0 228.15 16.99
  Q 196.47 33.98 166.44 50.45
  C 163.27 52.19 156.70 55.15 158.56 59.79
  C 162.72 70.14 167.09 79.32 156.92 88.08
  A 1.18 1.18 0.0 0 1 155.72 88.28
  L 133.16 79.52
  A 2.97 2.96 -57.3 0 0 129.96 80.22
  C 127.22 83.04 124.30 85.94 120.20 86.77
  Q 119.69 86.87 119.32 86.52
  C 118.90 86.12 118.50 85.78 117.95 85.56
  Q 113.47 83.79 108.95 82.19
  Q 102.89 80.04 100.56 77.75
  Q 94.68 71.95 95.82 63.25
  Q 96.21 60.32 98.02 50.62"
/>
<path stroke="#0e2356" vector-effect="non-scaling-stroke" d="
  M 211.96 52.80
  L 211.53 52.90"
/>
<path stroke="#5d3716" vector-effect="non-scaling-stroke" d="
  M 211.53 52.90
  Q 210.66 52.89 209.89 53.17
  Q 197.82 57.44 185.78 61.80
  C 182.59 62.96 175.58 66.78 174.58 70.28
  A 0.43 0.43 0.0 0 0 175.05 70.83
  Q 185.16 69.56 195.64 68.21
  C 197.10 68.02 198.60 68.12 199.98 67.62
  C 202.09 66.87 203.99 67.36 205.74 65.60
  Q 210.95 60.38 214.93 52.62
  Q 215.68 51.16 214.17 51.80
  Q 213.74 51.99 213.27 51.90
  Q 212.73 51.80 212.34 52.18
  Q 212.10 52.42 211.96 52.80"
/>
<path stroke="#6b4e4c" vector-effect="non-scaling-stroke" d="
  M 211.53 52.90
  Q 211.79 52.92 211.88 53.22
  A 0.22 0.22 0.0 0 1 211.75 53.48
  Q 197.51 58.44 185.43 62.86
  Q 179.93 64.87 176.58 68.95
  Q 175.63 70.12 177.09 69.75
  Q 179.75 69.08 182.59 69.01
  C 185.01 68.95 187.14 68.07 189.53 68.02
  C 192.53 67.96 195.12 67.04 198.12 66.93
  C 200.46 66.85 203.98 65.94 205.62 64.24
  Q 209.07 60.68 213.35 53.82
  Q 213.61 53.40 213.19 53.15
  Q 212.77 52.90 211.96 52.80"
/>
<path stroke="#5d3716" vector-effect="non-scaling-stroke" d="
  M 199.49 68.67
  Q 198.59 69.01 197.48 69.04
  Q 196.58 69.06 195.69 69.24
  Q 188.95 70.58 182.31 72.30
  Q 177.32 73.60 174.19 76.42
  Q 171.45 78.89 175.14 79.07
  Q 181.59 79.37 188.78 80.08
  Q 191.11 80.31 192.99 79.25
  C 197.12 76.90 200.86 72.00 203.74 68.14
  Q 204.37 67.30 203.40 67.71
  Q 202.50 68.09 201.45 68.19
  Q 200.46 68.29 199.49 68.67"
/>
<path stroke="#5d3716" vector-effect="non-scaling-stroke" d="
  M 178.40 89.21
  Q 181.36 89.67 183.72 88.03
  C 186.33 86.22 188.84 83.89 190.97 81.57
  Q 192.32 80.11 190.38 80.56
  L 169.35 85.51
  Q 166.79 86.11 169.25 87.06
  Q 172.48 88.30 178.40 89.21"
/>
<path stroke="#6b4e4c" vector-effect="non-scaling-stroke" d="
  M 29.93 32.21
  Q 30.06 31.83 30.39 31.63
  A 0.06 0.05 36.7 0 0 30.37 31.53
  Q 30.25 31.49 30.14 31.40
  Q 30.02 31.30 29.89 31.39
  C 29.21 31.88 28.78 32.81 29.21 33.62
  Q 32.39 39.53 36.04 44.35
  Q 38.74 47.91 42.24 48.58
  Q 61.30 52.26 79.82 55.64
  A 0.30 0.30 0.0 0 0 80.14 55.21
  Q 79.10 53.25 77.24 51.97
  Q 71.89 48.30 66.15 46.16
  Q 48.08 39.43 30.11 32.59
  A 0.31 0.30 -71.0 0 1 29.93 32.21"
/>
<path stroke="#6b4e4c" vector-effect="non-scaling-stroke" d="
  M 181.86 59.61
  Q 196.62 55.09 211.52 50.90
  Q 216.39 49.54 218.82 45.00
  Q 221.66 39.70 223.76 33.60
  A 0.51 0.50 22.8 0 0 223.50 32.99
  Q 222.71 32.61 222.22 33.30
  Q 221.97 33.66 221.58 33.85
  Q 204.60 42.35 186.30 51.66
  Q 180.27 54.73 176.49 59.96
  Q 175.47 61.38 177.16 60.94
  Q 179.53 60.33 181.86 59.61"
/>
<path stroke="#6b4e4c" vector-effect="non-scaling-stroke" d="
  M 43.00 52.40
  Q 46.38 57.55 51.20 61.10
  Q 53.71 62.95 56.64 63.37
  C 64.66 64.52 73.33 63.94 81.26 64.11
  Q 82.49 64.13 81.54 63.36
  C 78.55 60.92 75.57 59.54 71.55 58.49
  Q 57.96 54.92 44.15 51.56"
/>
<path stroke="#5d3716" vector-effect="non-scaling-stroke" d="
  M 44.15 51.56
  Q 43.83 51.11 45.19 51.00
  Q 45.70 50.96 46.30 51.11
  Q 57.80 54.16 69.36 56.95
  C 75.51 58.43 79.58 60.02 83.64 64.15
  A 0.53 0.53 0.0 0 1 83.26 65.05
  Q 72.46 65.00 61.43 65.08
  Q 61.19 65.08 61.18 65.33
  L 61.18 65.34
  Q 61.17 65.59 61.42 65.61
  Q 69.36 66.21 76.94 67.43
  Q 81.29 68.13 86.57 72.30
  Q 87.17 72.78 86.43 72.96
  Q 78.80 74.81 71.67 75.19
  C 70.61 75.25 70.11 75.78 68.96 75.59
  Q 68.48 75.51 68.63 75.97
  Q 68.73 76.26 69.02 76.34
  Q 69.45 76.45 69.85 76.25
  Q 70.43 75.94 71.10 75.93
  C 77.93 75.87 84.32 75.65 90.59 78.53
  Q 92.88 79.58 91.25 77.66
  C 85.96 71.42 85.00 64.62 83.47 56.93
  C 82.30 51.03 77.83 48.22 72.43 46.33
  Q 59.13 41.69 45.38 36.77
  Q 45.32 36.75 45.30 36.81
  L 45.21 37.04
  Q 45.14 37.26 45.35 37.34
  Q 65.58 44.80 72.53 48.09
  C 75.63 49.55 80.93 52.91 82.10 56.46
  A 0.41 0.41 0.0 0 1 81.64 56.99
  Q 67.51 54.40 53.30 51.60
  C 50.88 51.12 48.48 50.95 46.15 50.22
  Q 44.32 49.64 42.66 50.91
  Q 42.26 51.22 42.45 51.69
  Q 42.63 52.10 43.00 52.40"
/>
<path stroke="#0e2356" vector-effect="non-scaling-stroke" d="
  M 44.15 51.56
  L 43.21 51.72
  Q 42.86 51.77 42.86 52.12
  Q 42.85 52.29 43.00 52.40"
/>
<path stroke="#6b4e4c" vector-effect="non-scaling-stroke" d="
  M 76.16 68.18
  Q 73.45 67.84 70.87 67.48
  Q 68.21 67.12 65.60 66.94
  Q 62.70 66.75 59.20 66.05
  Q 55.60 65.33 58.31 67.81
  C 60.64 69.94 65.48 74.84 68.71 74.59
  Q 76.13 74.01 83.92 72.73
  Q 85.25 72.51 84.16 71.72
  C 81.76 70.00 79.01 68.55 76.16 68.18"
/>
<path stroke="#6b4e4c" vector-effect="non-scaling-stroke" d="
  M 84.72 82.29
  Q 87.72 81.60 90.45 80.26
  A 0.54 0.53 -46.3 0 0 90.43 79.29
  C 84.34 76.63 77.89 76.80 71.53 76.96
  Q 70.22 77.00 71.25 77.81
  Q 74.28 80.19 77.86 82.22
  C 79.52 83.16 81.43 82.99 83.26 83.04
  Q 83.78 83.05 84.11 82.65
  Q 84.35 82.37 84.72 82.29"
/>
<path stroke="#5d3716" vector-effect="non-scaling-stroke" d="
  M 84.24 83.94
  Q 84.26 84.04 84.36 84.03
  Q 90.61 83.39 96.36 83.00
  A 0.43 0.43 0.0 0 0 96.63 82.27
  Q 95.07 80.76 93.27 80.16
  Q 92.86 80.02 92.49 80.23
  Q 88.63 82.37 84.38 83.14
  Q 84.12 83.19 84.16 83.45
  L 84.24 83.94"
/>
<path stroke="#865b46" vector-effect="non-scaling-stroke" d="
  M 138.79 51.89
  Q 139.10 63.76 138.80 75.64
  A 2.12 2.12 0.0 0 1 136.86 77.70
  L 134.64 77.90
  A 0.25 0.24 82.6 0 0 134.42 78.19
  L 134.49 78.62
  A 0.64 0.62 -3.7 0 0 135.11 79.15
  L 150.64 79.20
  A 0.68 0.68 0.0 0 0 151.21 78.89
  L 151.58 78.32
  A 0.33 0.32 -77.7 0 0 151.26 77.82
  Q 147.07 78.50 147.05 74.52
  Q 146.98 62.09 147.07 50.51
  A 2.34 2.33 87.6 0 1 149.18 48.20
  L 150.75 48.05
  Q 151.47 47.98 151.52 47.25
  L 151.54 46.87
  Q 151.56 46.50 151.19 46.50
  L 138.73 46.49
  A 0.86 0.85 -78.6 0 0 137.94 47.02
  L 129.92 66.71
  Q 129.56 67.60 129.19 66.71
  L 120.93 47.16
  A 1.09 1.08 -11.4 0 0 119.93 46.50
  L 107.70 46.49
  A 0.48 0.47 84.9 0 0 107.24 47.05
  L 107.30 47.42
  A 0.80 0.79 -6.5 0 0 108.13 48.07
  Q 109.91 47.96 111.03 48.93
  Q 111.43 49.27 111.50 49.80
  Q 111.80 52.18 111.84 54.36
  Q 112.02 63.79 111.81 73.15
  C 111.76 75.65 110.86 78.04 107.79 77.76
  A 0.32 0.31 0.8 0 0 107.44 78.09
  L 107.46 78.47
  Q 107.50 79.09 108.11 79.10
  L 117.61 79.25
  Q 118.19 79.26 118.49 78.76
  L 118.73 78.36
  A 0.28 0.27 18.7 0 0 118.52 77.95
  C 116.50 77.77 114.15 77.65 114.11 74.96
  Q 113.94 62.96 114.09 52.23
  Q 114.11 51.20 114.51 52.15
  L 125.85 78.68
  A 0.71 0.71 0.0 0 0 127.16 78.68
  L 138.40 51.82
  Q 138.77 50.93 138.79 51.89"
/>
<path stroke="#6b4e4c" vector-effect="non-scaling-stroke" d="
  M 174.77 77.88
  C 179.85 78.56 185.02 79.00 190.03 78.98
  Q 192.57 78.98 194.56 77.04
  Q 198.15 73.55 201.17 69.96
  Q 201.96 69.03 200.74 69.03
  C 199.94 69.03 199.49 69.59 198.65 69.72
  Q 190.18 71.04 181.98 73.28
  Q 177.78 74.42 174.56 77.18
  A 0.40 0.40 0.0 0 0 174.77 77.88"
/>
<path stroke="#6b4e4c" vector-effect="non-scaling-stroke" d="
  M 183.49 83.09
  C 179.46 84.18 175.28 84.86 171.40 86.13
  Q 170.07 86.57 171.45 86.84
  C 175.61 87.65 180.26 89.72 184.17 86.54
  Q 186.18 84.90 188.07 83.18
  Q 189.67 81.73 187.55 82.15
  Q 185.60 82.52 183.49 83.09"
/>
</g>
<path fill="#ba620b" d="
  M 98.02 50.62
  Q 95.15 46.94 91.73 45.55
  Q 56.93 31.47 22.60 17.31
  Q 20.96 16.63 21.73 18.24
  L 25.81 26.76
  A 6.60 6.60 0.0 0 0 29.60 30.14
  Q 53.74 38.49 75.93 46.72
  C 81.41 48.75 84.24 53.48 84.98 59.12
  C 86.25 68.97 89.68 77.57 98.58 82.20
  Q 99.27 82.56 98.69 83.08
  Q 97.86 83.83 96.72 83.87
  Q 91.39 84.07 86.56 84.82
  Q 83.86 85.23 86.40 86.24
  Q 89.52 87.48 92.42 89.08
  Q 109.38 98.37 127.98 109.25
  C 130.77 110.88 134.66 112.65 137.62 111.05
  A 0.49 0.49 0.0 0 0 137.60 110.18
  L 127.04 104.96
  Q 126.88 104.88 126.96 104.72
  L 127.08 104.46
  Q 127.17 104.27 127.36 104.36
  Q 131.38 106.15 135.34 107.97
  C 137.77 109.09 140.34 109.25 142.94 108.81
  Q 145.94 108.31 143.22 106.96
  L 132.12 101.48
  Q 131.94 101.40 132.06 101.24
  L 132.24 101.02
  Q 132.26 100.99 132.30 101.00
  Q 136.28 102.52 140.63 104.53
  C 144.80 106.46 149.13 106.84 152.92 104.29
  A 0.58 0.58 0.0 0 0 152.84 103.28
  L 145.21 99.68
  Q 144.93 99.54 145.13 99.30
  L 145.33 99.07
  Q 145.41 98.98 145.52 99.03
  Q 149.29 100.51 152.75 101.86
  Q 155.99 103.13 159.30 101.70
  A 0.65 0.65 0.0 0 0 159.35 100.54
  Q 150.80 95.79 141.61 91.12
  Q 138.77 89.68 135.11 89.11
  C 132.42 88.70 129.68 89.64 126.97 89.99
  C 124.44 90.31 122.42 91.46 119.76 90.85
  A 1.78 1.75 87.2 0 1 118.47 89.66
  Q 117.92 87.99 119.09 87.19
  Q 119.45 86.94 119.43 87.37
  Q 119.41 87.73 119.17 87.97
  Q 118.72 88.43 118.91 89.04
  Q 119.31 90.32 120.62 90.32
  Q 122.84 90.31 125.06 89.72
  Q 126.99 89.20 128.99 88.87
  Q 131.06 88.53 132.99 88.47
  Q 135.99 88.37 138.88 89.25
  Q 141.32 89.99 143.79 91.31
  Q 151.67 95.51 159.55 99.92
  C 160.62 100.52 162.05 100.12 162.94 99.42
  Q 168.65 94.96 174.88 91.90
  Q 176.74 90.98 174.67 90.84
  Q 168.98 90.45 163.42 91.26
  Q 162.55 91.39 161.69 91.13
  A 0.53 0.53 0.0 0 1 161.55 90.18
  Q 164.28 88.28 166.50 86.07
  Q 168.52 84.06 169.77 81.12
  Q 171.67 76.64 171.92 72.67
  Q 172.17 68.52 172.21 64.36
  Q 172.29 55.25 180.32 51.36
  Q 201.31 41.19 222.70 30.68
  Q 224.10 29.99 225.09 28.75
  Q 224.99 30.02 225.53 29.80
  C 224.85 30.69 223.47 30.66 222.98 31.49
  Q 222.69 31.97 223.24 31.94
  Q 224.08 31.90 224.57 31.20
  Q 225.06 30.50 225.36 31.30
  Q 225.44 31.53 225.36 31.76
  Q 223.40 37.49 220.81 43.29
  C 219.51 46.20 216.72 50.62 213.46 51.11
  Q 212.96 51.18 212.61 51.56
  Q 212.07 52.14 211.26 52.12
  Q 210.54 52.09 209.81 52.30
  Q 192.46 57.34 174.98 62.51
  A 0.44 0.44 0.0 0 1 174.45 61.92
  C 176.46 57.02 181.20 53.45 185.81 51.04
  Q 199.39 43.93 213.16 37.20
  Q 215.45 36.08 221.75 32.61
  Q 221.90 32.53 221.84 32.38
  Q 221.78 32.20 221.64 32.24
  Q 221.54 32.27 221.44 32.32
  Q 219.95 33.26 218.29 33.97
  Q 216.59 34.70 215.05 35.44
  Q 198.36 43.40 181.25 51.81
  C 176.02 54.38 172.96 58.49 173.22 64.29
  C 173.40 68.09 173.37 72.32 172.38 75.99
  C 171.26 80.11 170.00 84.16 166.89 87.01
  Q 165.38 88.38 163.69 89.82
  Q 162.52 90.82 164.01 90.44
  Q 168.33 89.35 173.50 89.80
  Q 175.79 90.00 177.95 89.90
  Q 179.32 89.83 178.21 90.65
  C 175.04 93.00 171.47 94.45 168.41 96.77
  C 165.15 99.24 159.88 103.44 155.70 103.30
  Q 155.05 103.28 154.63 103.76
  Q 151.98 106.75 147.16 107.13
  Q 146.48 107.19 146.01 107.67
  Q 143.87 109.86 140.48 110.25
  A 2.07 2.05 17.4 0 0 139.18 110.92
  C 136.26 114.22 130.61 111.69 127.61 109.94
  Q 109.44 99.37 92.10 89.88
  Q 88.34 87.83 84.00 85.91
  Q 83.55 85.71 83.38 85.31
  Q 83.22 84.93 83.21 84.48
  A 0.19 0.18 -0.0 0 0 83.02 84.30
  C 78.48 84.42 73.04 80.43 69.38 77.64
  Q 68.66 77.09 68.35 76.26
  A 1.07 1.06 -1.1 0 0 67.69 75.63
  Q 65.24 74.83 63.33 73.28
  Q 59.44 70.14 55.63 66.51
  Q 55.04 65.95 54.89 65.16
  A 0.46 0.46 0.0 0 1 55.46 64.63
  Q 56.99 65.02 58.29 64.61
  Q 58.97 64.40 58.28 64.24
  Q 56.52 63.85 54.92 64.11
  Q 54.49 64.18 54.10 63.99
  C 48.63 61.44 43.71 55.57 40.45 50.65
  Q 39.92 49.85 40.88 49.83
  L 42.12 49.79
  Q 42.38 49.78 42.39 49.53
  L 42.40 49.27
  Q 42.40 49.20 42.34 49.20
  C 39.32 49.45 36.74 46.82 34.99 44.54
  Q 30.77 39.03 27.19 31.53
  Q 27.04 31.21 27.09 30.87
  Q 27.11 30.71 27.27 30.68
  Q 27.87 30.57 27.37 30.22
  Q 26.07 29.31 25.39 27.87
  Q 22.66 22.07 19.89 16.41
  Q 19.27 15.13 20.59 15.66
  Q 56.85 30.39 91.59 44.63
  C 93.68 45.49 98.55 48.00 98.02 50.62
  Z
  M 29.93 32.21
  Q 30.06 31.83 30.39 31.63
  A 0.06 0.05 36.7 0 0 30.37 31.53
  Q 30.25 31.49 30.14 31.40
  Q 30.02 31.30 29.89 31.39
  C 29.21 31.88 28.78 32.81 29.21 33.62
  Q 32.39 39.53 36.04 44.35
  Q 38.74 47.91 42.24 48.58
  Q 61.30 52.26 79.82 55.64
  A 0.30 0.30 0.0 0 0 80.14 55.21
  Q 79.10 53.25 77.24 51.97
  Q 71.89 48.30 66.15 46.16
  Q 48.08 39.43 30.11 32.59
  A 0.31 0.30 -71.0 0 1 29.93 32.21
  Z
  M 181.86 59.61
  Q 196.62 55.09 211.52 50.90
  Q 216.39 49.54 218.82 45.00
  Q 221.66 39.70 223.76 33.60
  A 0.51 0.50 22.8 0 0 223.50 32.99
  Q 222.71 32.61 222.22 33.30
  Q 221.97 33.66 221.58 33.85
  Q 204.60 42.35 186.30 51.66
  Q 180.27 54.73 176.49 59.96
  Q 175.47 61.38 177.16 60.94
  Q 179.53 60.33 181.86 59.61
  Z
  M 43.00 52.40
  Q 46.38 57.55 51.20 61.10
  Q 53.71 62.95 56.64 63.37
  C 64.66 64.52 73.33 63.94 81.26 64.11
  Q 82.49 64.13 81.54 63.36
  C 78.55 60.92 75.57 59.54 71.55 58.49
  Q 57.96 54.92 44.15 51.56
  Q 43.83 51.11 45.19 51.00
  Q 45.70 50.96 46.30 51.11
  Q 57.80 54.16 69.36 56.95
  C 75.51 58.43 79.58 60.02 83.64 64.15
  A 0.53 0.53 0.0 0 1 83.26 65.05
  Q 72.46 65.00 61.43 65.08
  Q 61.19 65.08 61.18 65.33
  L 61.18 65.34
  Q 61.17 65.59 61.42 65.61
  Q 69.36 66.21 76.94 67.43
  Q 81.29 68.13 86.57 72.30
  Q 87.17 72.78 86.43 72.96
  Q 78.80 74.81 71.67 75.19
  C 70.61 75.25 70.11 75.78 68.96 75.59
  Q 68.48 75.51 68.63 75.97
  Q 68.73 76.26 69.02 76.34
  Q 69.45 76.45 69.85 76.25
  Q 70.43 75.94 71.10 75.93
  C 77.93 75.87 84.32 75.65 90.59 78.53
  Q 92.88 79.58 91.25 77.66
  C 85.96 71.42 85.00 64.62 83.47 56.93
  C 82.30 51.03 77.83 48.22 72.43 46.33
  Q 59.13 41.69 45.38 36.77
  Q 45.32 36.75 45.30 36.81
  L 45.21 37.04
  Q 45.14 37.26 45.35 37.34
  Q 65.58 44.80 72.53 48.09
  C 75.63 49.55 80.93 52.91 82.10 56.46
  A 0.41 0.41 0.0 0 1 81.64 56.99
  Q 67.51 54.40 53.30 51.60
  C 50.88 51.12 48.48 50.95 46.15 50.22
  Q 44.32 49.64 42.66 50.91
  Q 42.26 51.22 42.45 51.69
  Q 42.63 52.10 43.00 52.40
  Z
  M 76.16 68.18
  Q 73.45 67.84 70.87 67.48
  Q 68.21 67.12 65.60 66.94
  Q 62.70 66.75 59.20 66.05
  Q 55.60 65.33 58.31 67.81
  C 60.64 69.94 65.48 74.84 68.71 74.59
  Q 76.13 74.01 83.92 72.73
  Q 85.25 72.51 84.16 71.72
  C 81.76 70.00 79.01 68.55 76.16 68.18
  Z
  M 84.72 82.29
  Q 87.72 81.60 90.45 80.26
  A 0.54 0.53 -46.3 0 0 90.43 79.29
  C 84.34 76.63 77.89 76.80 71.53 76.96
  Q 70.22 77.00 71.25 77.81
  Q 74.28 80.19 77.86 82.22
  C 79.52 83.16 81.43 82.99 83.26 83.04
  Q 83.78 83.05 84.11 82.65
  Q 84.35 82.37 84.72 82.29
  Z
  M 84.24 83.94
  Q 84.26 84.04 84.36 84.03
  Q 90.61 83.39 96.36 83.00
  A 0.43 0.43 0.0 0 0 96.63 82.27
  Q 95.07 80.76 93.27 80.16
  Q 92.86 80.02 92.49 80.23
  Q 88.63 82.37 84.38 83.14
  Q 84.12 83.19 84.16 83.45
  L 84.24 83.94
  Z"
/>
<path fill="#f07c00" d="
  M 225.53 29.80
  Q 224.99 30.02 225.09 28.75
  Q 227.89 23.42 228.88 17.51
  A 0.50 0.50 0.0 0 0 228.15 16.99
  Q 196.47 33.98 166.44 50.45
  C 163.27 52.19 156.70 55.15 158.56 59.79
  C 162.72 70.14 167.09 79.32 156.92 88.08
  A 1.18 1.18 0.0 0 1 155.72 88.28
  L 133.16 79.52
  A 2.97 2.96 -57.3 0 0 129.96 80.22
  C 127.22 83.04 124.30 85.94 120.20 86.77
  Q 119.69 86.87 119.32 86.52
  C 118.90 86.12 118.50 85.78 117.95 85.56
  Q 113.47 83.79 108.95 82.19
  Q 102.89 80.04 100.56 77.75
  Q 94.68 71.95 95.82 63.25
  Q 96.21 60.32 98.02 50.62
  C 100.24 48.15 102.13 45.48 104.63 43.45
  Q 121.06 30.02 141.58 35.88
  Q 151.92 38.83 159.39 47.59
  C 160.36 48.74 161.13 50.06 162.03 51.26
  Q 162.40 51.76 162.95 51.46
  L 229.22 15.51
  Q 229.83 15.18 229.78 15.87
  Q 229.16 23.11 225.53 29.80
  Z
  M 138.79 51.89
  Q 139.10 63.76 138.80 75.64
  A 2.12 2.12 0.0 0 1 136.86 77.70
  L 134.64 77.90
  A 0.25 0.24 82.6 0 0 134.42 78.19
  L 134.49 78.62
  A 0.64 0.62 -3.7 0 0 135.11 79.15
  L 150.64 79.20
  A 0.68 0.68 0.0 0 0 151.21 78.89
  L 151.58 78.32
  A 0.33 0.32 -77.7 0 0 151.26 77.82
  Q 147.07 78.50 147.05 74.52
  Q 146.98 62.09 147.07 50.51
  A 2.34 2.33 87.6 0 1 149.18 48.20
  L 150.75 48.05
  Q 151.47 47.98 151.52 47.25
  L 151.54 46.87
  Q 151.56 46.50 151.19 46.50
  L 138.73 46.49
  A 0.86 0.85 -78.6 0 0 137.94 47.02
  L 129.92 66.71
  Q 129.56 67.60 129.19 66.71
  L 120.93 47.16
  A 1.09 1.08 -11.4 0 0 119.93 46.50
  L 107.70 46.49
  A 0.48 0.47 84.9 0 0 107.24 47.05
  L 107.30 47.42
  A 0.80 0.79 -6.5 0 0 108.13 48.07
  Q 109.91 47.96 111.03 48.93
  Q 111.43 49.27 111.50 49.80
  Q 111.80 52.18 111.84 54.36
  Q 112.02 63.79 111.81 73.15
  C 111.76 75.65 110.86 78.04 107.79 77.76
  A 0.32 0.31 0.8 0 0 107.44 78.09
  L 107.46 78.47
  Q 107.50 79.09 108.11 79.10
  L 117.61 79.25
  Q 118.19 79.26 118.49 78.76
  L 118.73 78.36
  A 0.28 0.27 18.7 0 0 118.52 77.95
  C 116.50 77.77 114.15 77.65 114.11 74.96
  Q 113.94 62.96 114.09 52.23
  Q 114.11 51.20 114.51 52.15
  L 125.85 78.68
  A 0.71 0.71 0.0 0 0 127.16 78.68
  L 138.40 51.82
  Q 138.77 50.93 138.79 51.89
  Z"
/>
<path fill="#1b398c" d="
  M 98.02 50.62
  Q 96.21 60.32 95.82 63.25
  Q 94.68 71.95 100.56 77.75
  Q 102.89 80.04 108.95 82.19
  Q 113.47 83.79 117.95 85.56
  C 118.50 85.78 118.90 86.12 119.32 86.52
  Q 119.69 86.87 120.20 86.77
  C 124.30 85.94 127.22 83.04 129.96 80.22
  A 2.97 2.96 -57.3 0 1 133.16 79.52
  L 155.72 88.28
  A 1.18 1.18 0.0 0 0 156.92 88.08
  C 167.09 79.32 162.72 70.14 158.56 59.79
  C 156.70 55.15 163.27 52.19 166.44 50.45
  Q 196.47 33.98 228.15 16.99
  A 0.50 0.50 0.0 0 1 228.88 17.51
  Q 227.89 23.42 225.09 28.75
  Q 224.10 29.99 222.70 30.68
  Q 201.31 41.19 180.32 51.36
  Q 172.29 55.25 172.21 64.36
  Q 172.17 68.52 171.92 72.67
  Q 171.67 76.64 169.77 81.12
  Q 168.52 84.06 166.50 86.07
  Q 164.28 88.28 161.55 90.18
  A 0.53 0.53 0.0 0 0 161.69 91.13
  Q 162.55 91.39 163.42 91.26
  Q 168.98 90.45 174.67 90.84
  Q 176.74 90.98 174.88 91.90
  Q 168.65 94.96 162.94 99.42
  C 162.05 100.12 160.62 100.52 159.55 99.92
  Q 151.67 95.51 143.79 91.31
  Q 141.32 89.99 138.88 89.25
  Q 135.99 88.37 132.99 88.47
  Q 131.06 88.53 128.99 88.87
  Q 126.99 89.20 125.06 89.72
  Q 122.84 90.31 120.62 90.32
  Q 119.31 90.32 118.91 89.04
  Q 118.72 88.43 119.17 87.97
  Q 119.41 87.73 119.43 87.37
  Q 119.45 86.94 119.09 87.19
  Q 117.92 87.99 118.47 89.66
  A 1.78 1.75 87.2 0 0 119.76 90.85
  C 122.42 91.46 124.44 90.31 126.97 89.99
  C 129.68 89.64 132.42 88.70 135.11 89.11
  Q 138.77 89.68 141.61 91.12
  Q 150.80 95.79 159.35 100.54
  A 0.65 0.65 0.0 0 1 159.30 101.70
  Q 155.99 103.13 152.75 101.86
  Q 149.29 100.51 145.52 99.03
  Q 145.41 98.98 145.33 99.07
  L 145.13 99.30
  Q 144.93 99.54 145.21 99.68
  L 152.84 103.28
  A 0.58 0.58 0.0 0 1 152.92 104.29
  C 149.13 106.84 144.80 106.46 140.63 104.53
  Q 136.28 102.52 132.30 101.00
  Q 132.26 100.99 132.24 101.02
  L 132.06 101.24
  Q 131.94 101.40 132.12 101.48
  L 143.22 106.96
  Q 145.94 108.31 142.94 108.81
  C 140.34 109.25 137.77 109.09 135.34 107.97
  Q 131.38 106.15 127.36 104.36
  Q 127.17 104.27 127.08 104.46
  L 126.96 104.72
  Q 126.88 104.88 127.04 104.96
  L 137.60 110.18
  A 0.49 0.49 0.0 0 1 137.62 111.05
  C 134.66 112.65 130.77 110.88 127.98 109.25
  Q 109.38 98.37 92.42 89.08
  Q 89.52 87.48 86.40 86.24
  Q 83.86 85.23 86.56 84.82
  Q 91.39 84.07 96.72 83.87
  Q 97.86 83.83 98.69 83.08
  Q 99.27 82.56 98.58 82.20
  C 89.68 77.57 86.25 68.97 84.98 59.12
  C 84.24 53.48 81.41 48.75 75.93 46.72
  Q 53.74 38.49 29.60 30.14
  A 6.60 6.60 0.0 0 1 25.81 26.76
  L 21.73 18.24
  Q 20.96 16.63 22.60 17.31
  Q 56.93 31.47 91.73 45.55
  Q 95.15 46.94 98.02 50.62
  Z"
/>
<path fill="#1b398c" d="
  M 29.93 32.21
  A 0.31 0.30 -71.0 0 0 30.11 32.59
  Q 48.08 39.43 66.15 46.16
  Q 71.89 48.30 77.24 51.97
  Q 79.10 53.25 80.14 55.21
  A 0.30 0.30 0.0 0 1 79.82 55.64
  Q 61.30 52.26 42.24 48.58
  Q 38.74 47.91 36.04 44.35
  Q 32.39 39.53 29.21 33.62
  C 28.78 32.81 29.21 31.88 29.89 31.39
  Q 30.02 31.30 30.14 31.40
  Q 30.25 31.49 30.37 31.53
  A 0.06 0.05 36.7 0 1 30.39 31.63
  Q 30.06 31.83 29.93 32.21
  Z"
/>
<path fill="#1b398c" d="
  M 181.86 59.61
  Q 179.53 60.33 177.16 60.94
  Q 175.47 61.38 176.49 59.96
  Q 180.27 54.73 186.30 51.66
  Q 204.60 42.35 221.58 33.85
  Q 221.97 33.66 222.22 33.30
  Q 222.71 32.61 223.50 32.99
  A 0.51 0.50 22.8 0 1 223.76 33.60
  Q 221.66 39.70 218.82 45.00
  Q 216.39 49.54 211.52 50.90
  Q 196.62 55.09 181.86 59.61
  Z"
/>
<path fill="#1b398c" d="
  M 138.40 51.82
  L 127.16 78.68
  A 0.71 0.71 0.0 0 1 125.85 78.68
  L 114.51 52.15
  Q 114.11 51.20 114.09 52.23
  Q 113.94 62.96 114.11 74.96
  C 114.15 77.65 116.50 77.77 118.52 77.95
  A 0.28 0.27 18.7 0 1 118.73 78.36
  L 118.49 78.76
  Q 118.19 79.26 117.61 79.25
  L 108.11 79.10
  Q 107.50 79.09 107.46 78.47
  L 107.44 78.09
  A 0.32 0.31 0.8 0 1 107.79 77.76
  C 110.86 78.04 111.76 75.65 111.81 73.15
  Q 112.02 63.79 111.84 54.36
  Q 111.80 52.18 111.50 49.80
  Q 111.43 49.27 111.03 48.93
  Q 109.91 47.96 108.13 48.07
  A 0.80 0.79 -6.5 0 1 107.30 47.42
  L 107.24 47.05
  A 0.48 0.47 84.9 0 1 107.70 46.49
  L 119.93 46.50
  A 1.09 1.08 -11.4 0 1 120.93 47.16
  L 129.19 66.71
  Q 129.56 67.60 129.92 66.71
  L 137.94 47.02
  A 0.86 0.85 -78.6 0 1 138.73 46.49
  L 151.19 46.50
  Q 151.56 46.50 151.54 46.87
  L 151.52 47.25
  Q 151.47 47.98 150.75 48.05
  L 149.18 48.20
  A 2.34 2.33 87.6 0 0 147.07 50.51
  Q 146.98 62.09 147.05 74.52
  Q 147.07 78.50 151.26 77.82
  A 0.33 0.32 -77.7 0 1 151.58 78.32
  L 151.21 78.89
  A 0.68 0.68 0.0 0 1 150.64 79.20
  L 135.11 79.15
  A 0.64 0.62 -3.7 0 1 134.49 78.62
  L 134.42 78.19
  A 0.25 0.24 82.6 0 1 134.64 77.90
  L 136.86 77.70
  A 2.12 2.12 0.0 0 0 138.80 75.64
  Q 139.10 63.76 138.79 51.89
  Q 138.77 50.93 138.40 51.82
  Z"
/>
<path fill="#ba620b" d="
  M 211.53 52.90
  Q 211.79 52.92 211.88 53.22
  A 0.22 0.22 0.0 0 1 211.75 53.48
  Q 197.51 58.44 185.43 62.86
  Q 179.93 64.87 176.58 68.95
  Q 175.63 70.12 177.09 69.75
  Q 179.75 69.08 182.59 69.01
  C 185.01 68.95 187.14 68.07 189.53 68.02
  C 192.53 67.96 195.12 67.04 198.12 66.93
  C 200.46 66.85 203.98 65.94 205.62 64.24
  Q 209.07 60.68 213.35 53.82
  Q 213.61 53.40 213.19 53.15
  Q 212.77 52.90 211.96 52.80
  Q 212.10 52.42 212.34 52.18
  Q 212.73 51.80 213.27 51.90
  Q 213.74 51.99 214.17 51.80
  Q 215.68 51.16 214.93 52.62
  Q 210.95 60.38 205.74 65.60
  C 203.99 67.36 202.09 66.87 199.98 67.62
  C 198.60 68.12 197.10 68.02 195.64 68.21
  Q 185.16 69.56 175.05 70.83
  A 0.43 0.43 0.0 0 1 174.58 70.28
  C 175.58 66.78 182.59 62.96 185.78 61.80
  Q 197.82 57.44 209.89 53.17
  Q 210.66 52.89 211.53 52.90
  Z"
/>
<path fill="#1b398c" d="
  M 44.15 51.56
  Q 57.96 54.92 71.55 58.49
  C 75.57 59.54 78.55 60.92 81.54 63.36
  Q 82.49 64.13 81.26 64.11
  C 73.33 63.94 64.66 64.52 56.64 63.37
  Q 53.71 62.95 51.20 61.10
  Q 46.38 57.55 43.00 52.40
  Q 42.85 52.29 42.86 52.12
  Q 42.86 51.77 43.21 51.72
  L 44.15 51.56
  Z"
/>
<path fill="#1b398c" d="
  M 211.96 52.80
  Q 212.77 52.90 213.19 53.15
  Q 213.61 53.40 213.35 53.82
  Q 209.07 60.68 205.62 64.24
  C 203.98 65.94 200.46 66.85 198.12 66.93
  C 195.12 67.04 192.53 67.96 189.53 68.02
  C 187.14 68.07 185.01 68.95 182.59 69.01
  Q 179.75 69.08 177.09 69.75
  Q 175.63 70.12 176.58 68.95
  Q 179.93 64.87 185.43 62.86
  Q 197.51 58.44 211.75 53.48
  A 0.22 0.22 0.0 0 0 211.88 53.22
  Q 211.79 52.92 211.53 52.90
  L 211.96 52.80
  Z"
/>
<path fill="#1b398c" d="
  M 76.16 68.18
  C 79.01 68.55 81.76 70.00 84.16 71.72
  Q 85.25 72.51 83.92 72.73
  Q 76.13 74.01 68.71 74.59
  C 65.48 74.84 60.64 69.94 58.31 67.81
  Q 55.60 65.33 59.20 66.05
  Q 62.70 66.75 65.60 66.94
  Q 68.21 67.12 70.87 67.48
  Q 73.45 67.84 76.16 68.18
  Z"
/>
<path fill="#ba620b" d="
  M 201.45 68.19
  Q 202.50 68.09 203.40 67.71
  Q 204.37 67.30 203.74 68.14
  C 200.86 72.00 197.12 76.90 192.99 79.25
  Q 191.11 80.31 188.78 80.08
  Q 181.59 79.37 175.14 79.07
  Q 171.45 78.89 174.19 76.42
  Q 177.32 73.60 182.31 72.30
  Q 188.95 70.58 195.69 69.24
  Q 196.58 69.06 197.48 69.04
  Q 198.59 69.01 199.49 68.67
  Q 200.46 68.29 201.45 68.19
  Z
  M 174.77 77.88
  C 179.85 78.56 185.02 79.00 190.03 78.98
  Q 192.57 78.98 194.56 77.04
  Q 198.15 73.55 201.17 69.96
  Q 201.96 69.03 200.74 69.03
  C 199.94 69.03 199.49 69.59 198.65 69.72
  Q 190.18 71.04 181.98 73.28
  Q 177.78 74.42 174.56 77.18
  A 0.40 0.40 0.0 0 0 174.77 77.88
  Z"
/>
<path fill="#1b398c" d="
  M 190.03 78.98
  C 185.02 79.00 179.85 78.56 174.77 77.88
  A 0.40 0.40 0.0 0 1 174.56 77.18
  Q 177.78 74.42 181.98 73.28
  Q 190.18 71.04 198.65 69.72
  C 199.49 69.59 199.94 69.03 200.74 69.03
  Q 201.96 69.03 201.17 69.96
  Q 198.15 73.55 194.56 77.04
  Q 192.57 78.98 190.03 78.98
  Z"
/>
<path fill="#1b398c" d="
  M 84.72 82.29
  Q 84.35 82.37 84.11 82.65
  Q 83.78 83.05 83.26 83.04
  C 81.43 82.99 79.52 83.16 77.86 82.22
  Q 74.28 80.19 71.25 77.81
  Q 70.22 77.00 71.53 76.96
  C 77.89 76.80 84.34 76.63 90.43 79.29
  A 0.54 0.53 -46.3 0 1 90.45 80.26
  Q 87.72 81.60 84.72 82.29
  Z"
/>
<path fill="#ba620b" d="
  M 178.40 89.21
  Q 172.48 88.30 169.25 87.06
  Q 166.79 86.11 169.35 85.51
  L 190.38 80.56
  Q 192.32 80.11 190.97 81.57
  C 188.84 83.89 186.33 86.22 183.72 88.03
  Q 181.36 89.67 178.40 89.21
  Z
  M 183.49 83.09
  C 179.46 84.18 175.28 84.86 171.40 86.13
  Q 170.07 86.57 171.45 86.84
  C 175.61 87.65 180.26 89.72 184.17 86.54
  Q 186.18 84.90 188.07 83.18
  Q 189.67 81.73 187.55 82.15
  Q 185.60 82.52 183.49 83.09
  Z"
/>
<path fill="#1b398c" d="
  M 183.49 83.09
  Q 185.60 82.52 187.55 82.15
  Q 189.67 81.73 188.07 83.18
  Q 186.18 84.90 184.17 86.54
  C 180.26 89.72 175.61 87.65 171.45 86.84
  Q 170.07 86.57 171.40 86.13
  C 175.28 84.86 179.46 84.18 183.49 83.09
  Z"
/>
</svg>
