<?xml version="1.0" encoding="UTF-8" standalone="no"?>
<!DOCTYPE svg PUBLIC "-//W3C//DTD SVG 1.1//EN" "http://www.w3.org/Graphics/SVG/1.1/DTD/svg11.dtd">
<svg xmlns="http://www.w3.org/2000/svg" version="1.1" viewBox="0.00 0.00 1883.00 883.00">
<g stroke-width="2.00" fill="none" stroke-linecap="butt">
<path stroke="#865b46" vector-effect="non-scaling-stroke" d="
  M 995.57 759.95
  L 997.88 753.42
  A 0.19 0.18 -68.0 0 1 998.13 753.31
  Q 1046.77 773.46 1095.42 793.74
  Q 1103.60 797.15 1109.69 797.28
  Q 1117.20 797.44 1124.92 796.82
  Q 1137.01 795.84 1151.03 791.51
  C 1159.95 788.76 1168.68 784.28 1174.57 777.50
  Q 1175.06 776.94 1174.39 776.61
  L 1101.85 741.44
  Q 1101.59 741.31 1101.70 741.04
  L 1104.11 734.90
  A 0.26 0.25 21.2 0 1 1104.45 734.76
  C 1126.31 744.13 1147.29 753.18 1169.21 760.78
  Q 1182.03 765.22 1193.85 766.41
  Q 1197.49 766.77 1201.18 765.95
  Q 1214.53 762.99 1225.62 758.47
  Q 1228.58 757.26 1231.27 755.51
  A 0.53 0.53 0.0 0 0 1231.23 754.60
  Q 1151.09 711.15 1072.49 669.94
  Q 1064.96 665.99 1055.67 663.21
  Q 1037.95 657.92 1022.73 657.24
  Q 1006.31 656.51 990.47 657.57
  Q 981.15 658.19 970.82 659.90
  Q 956.70 662.24 946.61 664.65
  Q 928.25 669.05 910.82 672.78
  C 908.62 673.25 906.42 673.31 904.22 673.65
  C 892.27 675.51 881.84 666.43 880.92 654.60
  C 880.22 645.47 882.51 637.57 890.87 633.04
  A 0.75 0.75 0.0 0 0 890.78 631.68
  Q 824.97 606.78 759.69 582.07
  Q 752.82 579.47 748.47 575.96
  Q 740.35 569.38 729.85 558.64
  Q 722.41 551.02 715.67 542.25
  Q 702.51 525.12 695.72 505.69
  Q 688.81 485.94 689.59 462.50
  Q 690.44 437.12 695.30 413.49
  Q 700.16 389.78 705.25 366.36
  C 707.34 356.73 708.59 346.75 707.73 337.00
  Q 707.00 328.77 702.81 323.05
  C 697.09 315.26 689.52 309.79 680.63 304.55
  Q 662.36 293.78 635.05 282.65
  Q 608.07 271.65 593.67 266.20
  Q 583.71 262.44 575.06 258.92
  Q 333.42 160.50 93.38 62.69
  Q 82.45 58.23 70.13 53.29
  Q 68.93 52.80 69.48 53.97
  Q 91.01 99.16 112.29 143.72
  C 114.80 148.96 118.86 153.00 123.96 155.68
  C 128.69 158.15 133.49 160.70 138.55 162.49
  C 148.62 166.05 159.46 169.38 169.45 172.83
  C 271.50 208.08 372.97 245.76 472.75 281.22
  Q 479.56 283.64 486.79 285.98
  Q 510.12 293.54 531.51 303.01
  C 548.37 310.48 565.70 322.08 576.47 336.27
  Q 587.70 351.07 593.72 369.01
  Q 600.85 390.26 604.09 412.50
  Q 605.48 421.99 607.19 432.97
  Q 614.31 478.49 635.61 517.65
  Q 653.78 551.03 682.13 574.80
  Q 698.71 588.71 719.48 599.22
  A 1.64 1.62 -75.6 0 1 720.37 600.74
  L 720.19 605.51
  A 1.34 1.34 0.0 0 1 719.23 606.74
  C 712.15 608.80 705.67 610.97 698.25 612.04
  C 692.00 612.94 685.57 614.08 679.15 614.61
  Q 661.50 616.07 640.71 616.93
  C 626.95 617.50 614.05 618.90 599.59 621.26
  Q 599.23 621.32 599.02 621.58
  Q 598.62 622.07 599.19 622.32
  C 620.77 632.12 642.45 641.92 663.30 652.99
  Q 683.64 663.80 694.74 670.07
  Q 765.53 710.01 839.59 751.53
  Q 848.62 756.59 856.96 761.42
  C 894.48 783.15 930.66 804.18 967.63 824.65
  Q 982.25 832.74 992.64 836.94
  Q 1010.26 844.07 1030.16 842.01
  Q 1039.93 841.01 1048.55 835.60
  A 0.46 0.46 0.0 0 0 1048.51 834.79
  L 949.95 787.28
  Q 949.70 787.16 949.80 786.90
  L 952.42 780.35
  Q 952.47 780.23 952.59 780.28
  Q 994.78 798.39 1038.42 817.19
  C 1043.31 819.30 1048.68 820.98 1054.05 821.55
  Q 1068.75 823.10 1083.70 819.81
  Q 1094.34 817.47 1102.44 811.29
  A 0.53 0.52 37.0 0 0 1102.31 810.38
  Q 1088.90 805.28 1076.99 799.41
  Q 1052.25 787.21 1025.14 773.57
  Q 1013.23 767.58 995.72 760.30
  Q 995.48 760.20 995.57 759.95"
/>
<path stroke="#865b46" vector-effect="non-scaling-stroke" d="
  M 1238.54 668.59
  A 0.29 0.28 -61.5 0 1 1238.41 668.13
  Q 1245.53 660.02 1254.01 654.67
  Q 1259.37 651.29 1263.97 647.77
  Q 1281.24 634.57 1293.21 619.94
  Q 1305.08 605.45 1312.01 587.96
  Q 1320.31 567.04 1326.44 540.84
  Q 1328.69 531.23 1330.14 521.11
  Q 1333.80 495.57 1333.54 475.54
  Q 1333.28 456.39 1333.33 436.44
  Q 1333.38 417.88 1338.80 402.09
  C 1342.09 392.48 1347.47 383.70 1353.91 375.74
  C 1364.47 362.69 1376.53 352.01 1390.97 344.22
  C 1401.41 338.60 1411.47 332.97 1422.04 327.66
  Q 1435.86 320.73 1450.79 313.33
  Q 1459.65 308.94 1469.05 304.79
  Q 1493.74 293.89 1509.58 286.27
  Q 1586.19 249.47 1674.84 205.65
  C 1696.49 194.95 1721.79 183.71 1745.36 171.76
  Q 1757.66 165.52 1767.16 158.94
  Q 1771.29 156.07 1774.29 151.27
  Q 1780.52 141.30 1784.92 130.22
  Q 1792.62 110.86 1797.51 92.32
  Q 1802.63 72.92 1805.72 53.92
  Q 1805.96 52.42 1804.63 53.14
  Q 1747.22 84.05 1689.60 114.12
  C 1650.76 134.39 1612.79 156.42 1574.11 177.13
  Q 1514.06 209.27 1454.09 241.55
  Q 1445.53 246.16 1436.52 251.10
  Q 1356.40 295.08 1275.99 338.50
  Q 1264.17 344.88 1250.03 353.29
  C 1238.65 360.06 1227.46 369.60 1221.15 380.86
  Q 1214.74 392.31 1217.91 405.92
  C 1218.67 409.18 1219.96 412.74 1221.32 415.87
  Q 1234.39 445.97 1244.47 473.11
  C 1251.26 491.39 1256.34 509.72 1258.75 528.95
  Q 1260.03 539.17 1259.60 549.09
  C 1257.79 591.11 1231.19 623.99 1201.94 651.87
  A 1.07 1.06 -55.9 0 1 1200.83 652.09
  Q 1122.96 622.27 1047.43 593.45
  C 1034.92 588.68 1022.54 583.63 1010.24 578.46
  C 1003.21 575.51 996.10 573.59 989.02 576.46
  Q 981.88 579.34 974.97 586.02
  Q 964.46 596.17 953.83 606.66
  C 940.33 619.98 924.72 631.39 905.78 634.97
  C 901.29 635.82 897.53 637.68 893.97 640.18
  C 886.62 645.38 886.44 655.60 892.11 662.12
  C 896.13 666.74 900.87 666.69 906.51 665.73
  Q 912.82 664.66 918.38 663.34
  Q 940.86 658.02 959.46 654.11
  Q 977.49 650.32 1001.87 649.13
  Q 1031.02 647.70 1061.40 657.23
  Q 1068.25 659.38 1075.54 663.20
  Q 1159.12 706.96 1236.89 749.60
  Q 1238.64 750.56 1240.33 749.63
  Q 1250.22 744.21 1258.17 738.53
  C 1276.99 725.08 1295.45 711.33 1314.83 698.96
  Q 1325.99 691.84 1341.82 684.10
  C 1350.25 679.97 1358.46 675.20 1366.71 670.53
  Q 1368.14 669.72 1366.50 669.62
  C 1340.24 668.11 1314.16 667.03 1288.38 669.29
  Q 1282.70 669.79 1264.71 674.18
  C 1261.11 675.06 1257.73 675.24 1254.28 673.93
  Q 1246.68 671.05 1238.54 668.59"
/>
<path stroke="#865b46" vector-effect="non-scaling-stroke" d="
  M 1388.22 648.76
  C 1404.15 650.58 1420.06 644.10 1432.18 633.92
  Q 1445.42 622.80 1459.48 609.40
  Q 1467.84 601.44 1476.58 595.46
  Q 1479.57 593.41 1476.04 594.25
  L 1317.36 631.64
  Q 1314.68 632.27 1317.31 633.11
  C 1324.72 635.48 1331.72 637.06 1339.97 638.59
  C 1356.14 641.60 1371.91 646.89 1388.22 648.76"
/>
<path stroke="#865b46" vector-effect="non-scaling-stroke" d="
  M 422.14 288.70
  C 344.31 259.77 265.83 230.49 189.65 201.73
  Q 180.22 198.17 171.00 194.51
  Q 150.53 186.36 129.79 178.72
  Q 129.25 178.53 129.49 179.05
  Q 131.98 184.42 135.14 189.92
  Q 148.91 213.90 162.91 237.72
  Q 177.83 263.12 193.37 281.74
  Q 195.94 284.82 198.47 287.48
  C 202.91 292.16 207.19 297.36 211.89 301.28
  Q 220.55 308.49 231.14 312.50
  C 236.55 314.55 242.53 316.09 248.26 317.22
  Q 260.67 319.68 272.27 321.89
  Q 390.35 344.38 508.51 366.48
  Q 534.02 371.25 566.96 376.59
  Q 567.96 376.75 567.18 376.11
  Q 565.58 374.78 564.43 373.32
  Q 559.93 367.55 555.33 362.35
  Q 549.42 355.67 540.39 348.29
  C 534.35 343.34 527.65 339.21 521.23 334.96
  C 511.89 328.79 502.05 323.52 492.44 318.27
  Q 483.56 313.41 472.74 308.95
  C 455.93 302.01 439.11 295.00 422.14 288.70"
/>
<path stroke="#865b46" vector-effect="non-scaling-stroke" d="
  M 1728.14 275.80
  C 1742.17 246.16 1754.67 215.71 1765.75 184.66
  Q 1765.94 184.15 1765.45 184.39
  Q 1613.53 261.23 1463.40 336.88
  Q 1455.15 341.03 1437.54 351.10
  C 1432.84 353.79 1428.27 357.02 1423.66 360.00
  Q 1418.56 363.30 1413.69 367.07
  Q 1404.03 374.55 1400.54 377.50
  Q 1378.35 396.29 1362.77 420.54
  Q 1362.29 421.29 1362.09 422.07
  A 0.53 0.53 0.0 0 0 1362.75 422.71
  Q 1387.78 415.86 1412.59 407.85
  Q 1422.08 404.78 1431.70 401.97
  Q 1527.88 373.89 1618.49 347.61
  C 1638.11 341.92 1658.21 338.06 1677.23 330.21
  Q 1684.27 327.30 1690.47 323.20
  Q 1697.71 318.41 1702.10 313.77
  Q 1718.28 296.66 1728.14 275.80"
/>
<path stroke="#8d9cc6" vector-effect="non-scaling-stroke" d="
  M 843.58 329.34
  C 843.89 333.03 846.18 335.65 847.61 338.97
  Q 896.27 452.51 946.66 569.26
  C 947.89 572.13 952.04 572.35 953.30 569.35
  Q 1004.00 448.72 1054.24 329.01
  Q 1054.45 328.51 1054.70 328.99
  Q 1055.37 330.27 1055.37 331.50
  Q 1055.29 431.80 1055.35 530.75
  C 1055.36 544.58 1054.78 558.48 1038.66 562.38
  C 1032.46 563.89 1026.53 564.37 1020.21 564.16
  Q 1017.27 564.07 1017.35 567.01
  L 1017.40 568.75
  Q 1017.49 571.64 1020.37 571.64
  L 1155.81 571.64
  Q 1158.00 571.64 1158.01 569.44
  L 1158.01 565.95
  Q 1158.02 563.84 1155.91 563.97
  C 1144.52 564.67 1129.72 563.54 1123.22 552.40
  Q 1121.30 549.10 1120.92 543.97
  Q 1120.35 536.19 1120.34 529.35
  Q 1120.22 437.09 1120.29 342.83
  Q 1120.30 334.59 1121.23 328.51
  Q 1121.93 323.96 1124.42 319.76
  C 1130.41 309.66 1145.67 309.85 1155.70 309.98
  Q 1157.98 310.02 1157.99 307.74
  L 1158.02 304.45
  Q 1158.04 302.37 1155.96 302.37
  L 1050.82 302.37
  A 3.52 3.51 11.0 0 0 1047.56 304.56
  Q 1006.83 403.87 978.99 470.83
  Q 977.60 474.19 975.52 477.74
  A 0.39 0.39 0.0 0 1 974.82 477.69
  L 900.50 303.52
  A 1.89 1.89 0.0 0 0 898.76 302.37
  L 791.93 302.37
  A 1.76 1.76 0.0 0 0 790.17 304.06
  L 789.97 308.48
  Q 789.91 309.87 791.31 309.86
  C 800.66 309.80 810.17 309.88 818.09 314.64
  C 822.67 317.40 826.19 321.92 826.71 327.24
  Q 827.65 336.98 827.68 347.06
  Q 827.95 440.34 827.70 531.24
  C 827.67 544.78 822.20 556.36 809.16 561.16
  Q 801.73 563.89 792.01 564.18
  Q 790.00 564.24 790.00 566.25
  L 790.00 569.44
  Q 790.00 571.63 792.19 571.63
  L 879.41 571.64
  Q 881.85 571.64 882.18 569.22
  Q 882.34 568.02 882.26 566.78
  Q 882.10 564.18 879.50 563.99
  Q 874.34 563.60 869.45 562.95
  C 855.02 561.01 843.38 550.46 843.34 535.38
  Q 843.05 434.02 843.01 329.58
  Q 843.01 329.36 843.23 329.33
  L 843.51 329.29
  Q 843.57 329.28 843.58 329.34"
/>
<path stroke="#865b46" vector-effect="non-scaling-stroke" d="
  M 517.94 407.94
  Q 513.41 406.11 508.48 404.62
  Q 483.37 397.02 450.02 389.82
  Q 439.31 387.50 430.55 385.28
  C 385.86 373.92 338.44 361.57 295.71 350.80
  Q 268.69 344.00 244.84 338.78
  Q 241.55 338.06 243.64 340.71
  Q 260.36 361.86 279.19 383.31
  Q 294.08 400.26 307.88 412.24
  Q 320.22 422.95 334.67 431.39
  Q 348.03 439.20 362.92 440.44
  Q 374.70 441.43 386.51 441.87
  Q 471.85 445.03 561.98 446.84
  Q 569.59 446.99 577.95 446.98
  A 0.56 0.56 0.0 0 0 578.37 446.06
  Q 574.04 440.89 569.31 437.33
  Q 544.32 418.55 517.94 407.94"
/>
<path stroke="#865b46" vector-effect="non-scaling-stroke" d="
  M 1678.31 356.26
  C 1678.62 355.31 1679.13 354.64 1679.60 353.78
  Q 1680.06 352.93 1679.14 353.25
  Q 1563.13 393.28 1447.89 435.96
  C 1437.83 439.68 1427.08 443.86 1417.43 448.96
  Q 1397.10 459.70 1377.89 477.00
  Q 1370.81 483.38 1365.04 490.62
  Q 1363.08 493.08 1366.21 492.72
  Q 1433.49 484.99 1501.31 475.86
  Q 1532.40 471.67 1563.50 467.49
  C 1576.46 465.75 1588.55 463.93 1598.85 458.03
  Q 1606.22 453.80 1611.48 448.51
  C 1617.31 442.65 1624.06 435.09 1629.78 427.82
  Q 1656.52 393.78 1677.63 357.77
  Q 1678.05 357.06 1678.31 356.26"
/>
<path stroke="#865b46" vector-effect="non-scaling-stroke" d="
  M 546.10 484.89
  Q 532.80 481.17 518.76 479.52
  Q 462.88 472.95 408.52 466.87
  Q 388.85 464.68 365.65 462.69
  A 0.65 0.65 0.0 0 0 364.97 463.17
  Q 364.87 463.57 365.18 463.85
  Q 390.35 485.93 416.47 509.05
  Q 430.04 521.06 442.35 527.99
  C 455.68 535.48 470.06 534.84 485.75 533.04
  Q 507.08 530.58 526.25 527.90
  Q 559.60 523.22 600.95 515.15
  A 0.64 0.64 0.0 0 0 601.33 514.13
  Q 601.02 513.74 600.59 513.46
  Q 580.50 500.59 566.03 492.74
  Q 557.38 488.04 546.10 484.89"
/>
<path stroke="#865b46" vector-effect="non-scaling-stroke" d="
  M 1503.49 564.86
  Q 1516.48 558.80 1527.27 547.77
  C 1544.17 530.49 1561.92 509.30 1578.60 489.44
  Q 1579.77 488.05 1577.99 488.41
  Q 1519.93 500.31 1461.05 512.29
  C 1444.61 515.64 1428.27 519.86 1412.76 524.48
  Q 1392.18 530.62 1373.00 541.44
  Q 1365.54 545.64 1360.07 550.28
  Q 1354.31 555.16 1349.60 560.91
  A 0.86 0.85 22.4 0 0 1350.18 562.30
  Q 1357.99 563.10 1365.57 563.82
  Q 1373.41 564.58 1380.93 564.89
  Q 1396.50 565.53 1413.49 566.39
  C 1431.99 567.33 1451.55 569.24 1470.77 569.96
  Q 1480.05 570.32 1486.87 569.47
  Q 1496.03 568.34 1503.49 564.86"
/>
<path stroke="#865b46" vector-effect="non-scaling-stroke" d="
  M 653.59 576.92
  Q 638.03 570.48 624.42 565.33
  C 618.15 562.96 611.09 561.02 604.48 559.96
  Q 573.68 555.04 545.87 554.39
  Q 513.19 553.62 480.90 556.05
  Q 479.49 556.15 480.67 556.92
  Q 503.49 571.75 526.37 586.71
  C 535.71 592.83 545.57 598.80 555.89 602.56
  Q 558.71 603.59 561.70 604.13
  Q 574.81 606.53 587.77 602.56
  C 606.77 596.74 625.67 589.00 644.97 582.35
  Q 649.79 580.69 654.51 578.87
  A 0.70 0.69 58.4 0 0 654.77 577.76
  Q 654.27 577.21 653.59 576.92"
/>
</g>
<path fill="#f07c00" d="
  M 1109.46 804.81
  Q 1112.14 806.24 1115.05 807.24
  A 0.93 0.93 0.0 0 1 1115.48 808.70
  Q 1105.41 821.36 1088.96 826.18
  Q 1071.64 831.24 1055.86 829.39
  Q 1054.36 829.21 1055.69 829.92
  Q 1058.45 831.38 1061.30 832.46
  Q 1061.93 832.69 1061.53 833.23
  Q 1053.61 844.03 1040.77 847.50
  C 1036.57 848.63 1032.14 849.57 1027.71 849.85
  Q 1004.10 851.33 982.49 840.76
  Q 969.49 834.40 960.29 829.16
  Q 885.99 786.86 805.92 741.21
  C 778.74 725.70 751.26 711.22 724.56 695.85
  C 693.14 677.76 662.67 660.59 630.58 645.14
  Q 606.96 633.76 586.45 624.72
  A 1.77 1.77 0.0 0 1 585.40 623.06
  L 585.53 618.44
  A 1.63 1.63 0.0 0 1 586.64 616.95
  Q 595.18 614.05 604.70 612.54
  Q 615.02 610.90 624.54 610.12
  C 639.75 608.86 654.90 608.61 670.03 607.81
  Q 688.65 606.83 706.06 602.58
  A 0.90 0.90 0.0 0 0 706.34 600.95
  Q 700.73 597.30 695.10 593.62
  Q 670.67 577.64 652.27 555.38
  C 638.46 538.67 625.82 518.01 617.42 497.00
  Q 604.95 465.84 600.24 436.41
  C 596.47 412.83 593.18 389.37 584.96 367.57
  Q 574.09 338.75 548.57 321.42
  C 534.09 311.58 517.93 305.10 500.50 298.93
  C 472.36 288.98 444.00 279.30 415.91 269.00
  Q 273.08 216.61 133.50 168.69
  Q 127.14 166.51 117.87 160.62
  Q 109.67 155.40 106.05 147.84
  Q 79.64 92.70 55.33 42.24
  A 0.56 0.56 0.0 0 1 55.98 41.46
  C 59.75 42.49 63.53 43.14 67.24 44.46
  Q 81.15 49.38 87.75 52.04
  C 121.59 65.69 168.20 85.12 219.74 106.09
  Q 402.61 180.51 585.47 254.97
  C 613.81 266.51 643.40 276.72 670.36 290.38
  C 682.97 296.77 694.75 303.77 704.91 313.79
  C 710.13 318.93 713.30 325.05 714.67 332.45
  Q 714.88 333.62 715.52 332.62
  C 737.17 299.12 766.36 270.41 799.68 248.93
  C 814.39 239.45 830.15 230.76 846.46 223.69
  Q 865.19 215.56 881.87 210.43
  Q 896.40 205.96 914.54 202.39
  Q 954.86 194.46 994.28 196.36
  Q 1010.43 197.14 1026.30 199.33
  Q 1038.52 201.01 1056.78 205.20
  C 1104.61 216.20 1148.87 238.35 1186.57 269.62
  C 1211.73 290.49 1232.72 315.73 1249.57 343.57
  A 0.55 0.55 0.0 0 0 1250.31 343.77
  Q 1314.53 308.62 1382.64 272.17
  Q 1390.77 267.82 1400.15 262.53
  Q 1435.99 242.29 1478.44 219.65
  Q 1528.35 193.02 1578.55 166.04
  Q 1604.42 152.14 1629.46 138.05
  Q 1638.72 132.84 1647.66 128.07
  Q 1731.02 83.56 1814.43 38.99
  A 0.53 0.52 79.4 0 1 1815.20 39.52
  Q 1814.15 47.28 1812.96 55.53
  Q 1811.77 63.74 1810.19 71.41
  Q 1807.55 84.17 1806.27 89.00
  Q 1800.14 112.25 1791.50 133.97
  Q 1787.14 144.92 1780.75 155.10
  Q 1776.98 161.10 1772.05 164.81
  Q 1766.31 169.12 1754.42 175.48
  C 1732.93 186.98 1711.11 197.07 1689.11 207.16
  Q 1680.25 211.22 1671.11 215.77
  Q 1645.87 228.32 1621.28 240.53
  Q 1543.46 279.17 1465.11 314.86
  Q 1443.39 324.75 1399.75 347.88
  Q 1389.67 353.22 1382.69 358.53
  C 1364.43 372.39 1349.30 390.10 1343.85 412.56
  Q 1340.75 425.36 1340.85 436.55
  Q 1341.08 461.92 1340.88 483.55
  C 1340.55 519.01 1332.75 554.34 1320.59 587.07
  Q 1312.27 609.45 1296.82 627.76
  Q 1295.68 629.12 1297.41 628.71
  L 1494.04 582.18
  A 0.51 0.51 0.0 0 1 1494.64 582.85
  C 1492.25 589.31 1489.40 595.42 1483.46 599.78
  C 1477.86 603.88 1472.43 607.79 1467.33 612.66
  Q 1450.98 628.27 1435.35 641.16
  Q 1425.89 648.97 1412.39 653.72
  Q 1400.22 658.00 1387.60 656.49
  Q 1380.88 655.68 1372.74 653.81
  C 1363.23 651.62 1353.95 649.28 1344.38 647.32
  Q 1329.47 644.25 1318.01 641.39
  C 1310.10 639.42 1302.35 636.17 1296.02 630.74
  A 1.29 1.28 42.3 0 0 1294.26 630.82
  Q 1288.61 636.65 1282.16 642.54
  Q 1268.51 655.02 1253.54 663.94
  Q 1252.83 664.36 1253.47 664.89
  Q 1257.45 668.17 1262.06 666.99
  Q 1292.48 659.16 1323.62 660.24
  Q 1352.08 661.23 1385.48 662.71
  A 0.44 0.43 -70.6 0 1 1385.81 663.40
  Q 1380.84 670.31 1373.88 674.91
  Q 1366.62 679.70 1360.02 683.14
  C 1346.18 690.34 1331.84 697.30 1318.45 705.51
  Q 1309.57 710.95 1289.60 725.64
  Q 1273.02 737.83 1258.72 747.72
  Q 1252.44 752.05 1244.55 755.92
  Q 1241.34 757.50 1238.32 759.96
  Q 1234.19 763.33 1229.41 765.29
  Q 1213.96 771.62 1201.50 773.71
  Q 1195.15 774.78 1184.32 772.50
  Q 1183.36 772.30 1184.16 772.86
  L 1185.22 773.59
  Q 1185.75 773.96 1185.45 774.52
  C 1179.91 785.00 1171.12 791.26 1160.53 795.84
  Q 1142.44 803.66 1120.37 804.93
  Q 1115.13 805.23 1109.58 804.45
  Q 1108.49 804.30 1109.46 804.81
  Z
  M 995.57 759.95
  L 997.88 753.42
  A 0.19 0.18 -68.0 0 1 998.13 753.31
  Q 1046.77 773.46 1095.42 793.74
  Q 1103.60 797.15 1109.69 797.28
  Q 1117.20 797.44 1124.92 796.82
  Q 1137.01 795.84 1151.03 791.51
  C 1159.95 788.76 1168.68 784.28 1174.57 777.50
  Q 1175.06 776.94 1174.39 776.61
  L 1101.85 741.44
  Q 1101.59 741.31 1101.70 741.04
  L 1104.11 734.90
  A 0.26 0.25 21.2 0 1 1104.45 734.76
  C 1126.31 744.13 1147.29 753.18 1169.21 760.78
  Q 1182.03 765.22 1193.85 766.41
  Q 1197.49 766.77 1201.18 765.95
  Q 1214.53 762.99 1225.62 758.47
  Q 1228.58 757.26 1231.27 755.51
  A 0.53 0.53 0.0 0 0 1231.23 754.60
  Q 1151.09 711.15 1072.49 669.94
  Q 1064.96 665.99 1055.67 663.21
  Q 1037.95 657.92 1022.73 657.24
  Q 1006.31 656.51 990.47 657.57
  Q 981.15 658.19 970.82 659.90
  Q 956.70 662.24 946.61 664.65
  Q 928.25 669.05 910.82 672.78
  C 908.62 673.25 906.42 673.31 904.22 673.65
  C 892.27 675.51 881.84 666.43 880.92 654.60
  C 880.22 645.47 882.51 637.57 890.87 633.04
  A 0.75 0.75 0.0 0 0 890.78 631.68
  Q 824.97 606.78 759.69 582.07
  Q 752.82 579.47 748.47 575.96
  Q 740.35 569.38 729.85 558.64
  Q 722.41 551.02 715.67 542.25
  Q 702.51 525.12 695.72 505.69
  Q 688.81 485.94 689.59 462.50
  Q 690.44 437.12 695.30 413.49
  Q 700.16 389.78 705.25 366.36
  C 707.34 356.73 708.59 346.75 707.73 337.00
  Q 707.00 328.77 702.81 323.05
  C 697.09 315.26 689.52 309.79 680.63 304.55
  Q 662.36 293.78 635.05 282.65
  Q 608.07 271.65 593.67 266.20
  Q 583.71 262.44 575.06 258.92
  Q 333.42 160.50 93.38 62.69
  Q 82.45 58.23 70.13 53.29
  Q 68.93 52.80 69.48 53.97
  Q 91.01 99.16 112.29 143.72
  C 114.80 148.96 118.86 153.00 123.96 155.68
  C 128.69 158.15 133.49 160.70 138.55 162.49
  C 148.62 166.05 159.46 169.38 169.45 172.83
  C 271.50 208.08 372.97 245.76 472.75 281.22
  Q 479.56 283.64 486.79 285.98
  Q 510.12 293.54 531.51 303.01
  C 548.37 310.48 565.70 322.08 576.47 336.27
  Q 587.70 351.07 593.72 369.01
  Q 600.85 390.26 604.09 412.50
  Q 605.48 421.99 607.19 432.97
  Q 614.31 478.49 635.61 517.65
  Q 653.78 551.03 682.13 574.80
  Q 698.71 588.71 719.48 599.22
  A 1.64 1.62 -75.6 0 1 720.37 600.74
  L 720.19 605.51
  A 1.34 1.34 0.0 0 1 719.23 606.74
  C 712.15 608.80 705.67 610.97 698.25 612.04
  C 692.00 612.94 685.57 614.08 679.15 614.61
  Q 661.50 616.07 640.71 616.93
  C 626.95 617.50 614.05 618.90 599.59 621.26
  Q 599.23 621.32 599.02 621.58
  Q 598.62 622.07 599.19 622.32
  C 620.77 632.12 642.45 641.92 663.30 652.99
  Q 683.64 663.80 694.74 670.07
  Q 765.53 710.01 839.59 751.53
  Q 848.62 756.59 856.96 761.42
  C 894.48 783.15 930.66 804.18 967.63 824.65
  Q 982.25 832.74 992.64 836.94
  Q 1010.26 844.07 1030.16 842.01
  Q 1039.93 841.01 1048.55 835.60
  A 0.46 0.46 0.0 0 0 1048.51 834.79
  L 949.95 787.28
  Q 949.70 787.16 949.80 786.90
  L 952.42 780.35
  Q 952.47 780.23 952.59 780.28
  Q 994.78 798.39 1038.42 817.19
  C 1043.31 819.30 1048.68 820.98 1054.05 821.55
  Q 1068.75 823.10 1083.70 819.81
  Q 1094.34 817.47 1102.44 811.29
  A 0.53 0.52 37.0 0 0 1102.31 810.38
  Q 1088.90 805.28 1076.99 799.41
  Q 1052.25 787.21 1025.14 773.57
  Q 1013.23 767.58 995.72 760.30
  Q 995.48 760.20 995.57 759.95
  Z
  M 1238.54 668.59
  A 0.29 0.28 -61.5 0 1 1238.41 668.13
  Q 1245.53 660.02 1254.01 654.67
  Q 1259.37 651.29 1263.97 647.77
  Q 1281.24 634.57 1293.21 619.94
  Q 1305.08 605.45 1312.01 587.96
  Q 1320.31 567.04 1326.44 540.84
  Q 1328.69 531.23 1330.14 521.11
  Q 1333.80 495.57 1333.54 475.54
  Q 1333.28 456.39 1333.33 436.44
  Q 1333.38 417.88 1338.80 402.09
  C 1342.09 392.48 1347.47 383.70 1353.91 375.74
  C 1364.47 362.69 1376.53 352.01 1390.97 344.22
  C 1401.41 338.60 1411.47 332.97 1422.04 327.66
  Q 1435.86 320.73 1450.79 313.33
  Q 1459.65 308.94 1469.05 304.79
  Q 1493.74 293.89 1509.58 286.27
  Q 1586.19 249.47 1674.84 205.65
  C 1696.49 194.95 1721.79 183.71 1745.36 171.76
  Q 1757.66 165.52 1767.16 158.94
  Q 1771.29 156.07 1774.29 151.27
  Q 1780.52 141.30 1784.92 130.22
  Q 1792.62 110.86 1797.51 92.32
  Q 1802.63 72.92 1805.72 53.92
  Q 1805.96 52.42 1804.63 53.14
  Q 1747.22 84.05 1689.60 114.12
  C 1650.76 134.39 1612.79 156.42 1574.11 177.13
  Q 1514.06 209.27 1454.09 241.55
  Q 1445.53 246.16 1436.52 251.10
  Q 1356.40 295.08 1275.99 338.50
  Q 1264.17 344.88 1250.03 353.29
  C 1238.65 360.06 1227.46 369.60 1221.15 380.86
  Q 1214.74 392.31 1217.91 405.92
  C 1218.67 409.18 1219.96 412.74 1221.32 415.87
  Q 1234.39 445.97 1244.47 473.11
  C 1251.26 491.39 1256.34 509.72 1258.75 528.95
  Q 1260.03 539.17 1259.60 549.09
  C 1257.79 591.11 1231.19 623.99 1201.94 651.87
  A 1.07 1.06 -55.9 0 1 1200.83 652.09
  Q 1122.96 622.27 1047.43 593.45
  C 1034.92 588.68 1022.54 583.63 1010.24 578.46
  C 1003.21 575.51 996.10 573.59 989.02 576.46
  Q 981.88 579.34 974.97 586.02
  Q 964.46 596.17 953.83 606.66
  C 940.33 619.98 924.72 631.39 905.78 634.97
  C 901.29 635.82 897.53 637.68 893.97 640.18
  C 886.62 645.38 886.44 655.60 892.11 662.12
  C 896.13 666.74 900.87 666.69 906.51 665.73
  Q 912.82 664.66 918.38 663.34
  Q 940.86 658.02 959.46 654.11
  Q 977.49 650.32 1001.87 649.13
  Q 1031.02 647.70 1061.40 657.23
  Q 1068.25 659.38 1075.54 663.20
  Q 1159.12 706.96 1236.89 749.60
  Q 1238.64 750.56 1240.33 749.63
  Q 1250.22 744.21 1258.17 738.53
  C 1276.99 725.08 1295.45 711.33 1314.83 698.96
  Q 1325.99 691.84 1341.82 684.10
  C 1350.25 679.97 1358.46 675.20 1366.71 670.53
  Q 1368.14 669.72 1366.50 669.62
  C 1340.24 668.11 1314.16 667.03 1288.38 669.29
  Q 1282.70 669.79 1264.71 674.18
  C 1261.11 675.06 1257.73 675.24 1254.28 673.93
  Q 1246.68 671.05 1238.54 668.59
  Z
  M 847.38 348.15
  C 848.11 349.63 847.67 351.96 849.15 353.04
  Q 849.59 353.37 849.80 353.87
  Q 901.46 474.03 943.79 572.39
  Q 944.95 575.08 947.90 575.40
  C 950.00 575.62 954.71 575.90 955.75 573.43
  Q 1003.51 459.78 1046.33 358.13
  C 1047.90 354.40 1049.78 350.66 1050.81 346.93
  Q 1050.91 346.57 1051.26 346.68
  Q 1051.50 346.75 1051.50 347.00
  Q 1051.54 439.26 1051.48 531.22
  C 1051.48 535.40 1051.29 539.78 1050.83 543.90
  C 1049.65 554.66 1041.72 559.15 1031.52 559.93
  Q 1023.27 560.56 1014.71 560.36
  A 0.94 0.93 -88.5 0 0 1013.75 561.28
  L 1013.56 570.92
  Q 1013.55 571.47 1014.03 571.76
  Q 1020.15 575.32 1025.20 575.32
  Q 1091.96 575.26 1159.63 575.31
  Q 1161.99 575.31 1161.97 572.96
  L 1161.92 562.32
  Q 1161.91 560.15 1159.73 560.19
  C 1150.25 560.38 1139.18 561.27 1130.94 555.36
  C 1127.93 553.20 1125.82 550.81 1125.29 547.02
  Q 1124.04 537.95 1124.03 531.10
  Q 1123.94 433.60 1124.02 337.52
  C 1124.02 335.40 1124.33 333.26 1124.56 331.16
  C 1125.49 322.70 1129.65 316.91 1138.27 314.89
  C 1145.37 313.23 1152.49 313.54 1159.82 313.63
  Q 1161.56 313.65 1161.70 311.91
  Q 1162.15 306.04 1161.69 300.00
  A 1.43 1.42 87.8 0 0 1160.27 298.68
  L 1046.97 298.68
  Q 1045.97 298.68 1045.59 299.61
  L 976.78 466.62
  A 1.42 1.42 0.0 0 1 974.16 466.64
  L 903.33 300.22
  A 2.54 2.53 78.4 0 0 901.00 298.68
  L 787.42 298.68
  Q 786.26 298.68 786.26 299.83
  L 786.26 312.69
  A 1.08 1.07 -0.5 0 0 787.36 313.76
  Q 794.74 313.61 801.96 313.81
  C 810.31 314.03 822.04 318.21 822.98 328.04
  C 823.60 334.48 824.04 341.10 824.04 347.45
  Q 823.97 438.70 824.05 529.38
  C 824.06 543.13 819.65 554.46 805.26 558.38
  Q 796.90 560.65 787.86 560.26
  A 1.53 1.53 0.0 0 0 786.26 561.79
  L 786.26 574.66
  A 0.65 0.65 0.0 0 0 786.91 575.31
  L 883.84 575.31
  Q 885.99 575.31 885.99 573.16
  L 885.98 561.96
  A 1.71 1.71 0.0 0 0 884.24 560.25
  Q 878.34 560.36 872.09 559.59
  C 861.28 558.26 852.12 553.67 848.45 543.05
  Q 846.82 538.33 846.81 527.66
  Q 846.73 437.53 846.83 348.28
  Q 846.83 347.03 847.38 348.15
  Z
  M 1388.22 648.76
  C 1404.15 650.58 1420.06 644.10 1432.18 633.92
  Q 1445.42 622.80 1459.48 609.40
  Q 1467.84 601.44 1476.58 595.46
  Q 1479.57 593.41 1476.04 594.25
  L 1317.36 631.64
  Q 1314.68 632.27 1317.31 633.11
  C 1324.72 635.48 1331.72 637.06 1339.97 638.59
  C 1356.14 641.60 1371.91 646.89 1388.22 648.76
  Z"
/>
<path fill="#1b398c" d="
  M 995.72 760.30
  Q 1013.23 767.58 1025.14 773.57
  Q 1052.25 787.21 1076.99 799.41
  Q 1088.90 805.28 1102.31 810.38
  A 0.53 0.52 37.0 0 1 1102.44 811.29
  Q 1094.34 817.47 1083.70 819.81
  Q 1068.75 823.10 1054.05 821.55
  C 1048.68 820.98 1043.31 819.30 1038.42 817.19
  Q 994.78 798.39 952.59 780.28
  Q 952.47 780.23 952.42 780.35
  L 949.80 786.90
  Q 949.70 787.16 949.95 787.28
  L 1048.51 834.79
  A 0.46 0.46 0.0 0 1 1048.55 835.60
  Q 1039.93 841.01 1030.16 842.01
  Q 1010.26 844.07 992.64 836.94
  Q 982.25 832.74 967.63 824.65
  C 930.66 804.18 894.48 783.15 856.96 761.42
  Q 848.62 756.59 839.59 751.53
  Q 765.53 710.01 694.74 670.07
  Q 683.64 663.80 663.30 652.99
  C 642.45 641.92 620.77 632.12 599.19 622.32
  Q 598.62 622.07 599.02 621.58
  Q 599.23 621.32 599.59 621.26
  C 614.05 618.90 626.95 617.50 640.71 616.93
  Q 661.50 616.07 679.15 614.61
  C 685.57 614.08 692.00 612.94 698.25 612.04
  C 705.67 610.97 712.15 608.80 719.23 606.74
  A 1.34 1.34 0.0 0 0 720.19 605.51
  L 720.37 600.74
  A 1.64 1.62 -75.6 0 0 719.48 599.22
  Q 698.71 588.71 682.13 574.80
  Q 653.78 551.03 635.61 517.65
  Q 614.31 478.49 607.19 432.97
  Q 605.48 421.99 604.09 412.50
  Q 600.85 390.26 593.72 369.01
  Q 587.70 351.07 576.47 336.27
  C 565.70 322.08 548.37 310.48 531.51 303.01
  Q 510.12 293.54 486.79 285.98
  Q 479.56 283.64 472.75 281.22
  C 372.97 245.76 271.50 208.08 169.45 172.83
  C 159.46 169.38 148.62 166.05 138.55 162.49
  C 133.49 160.70 128.69 158.15 123.96 155.68
  C 118.86 153.00 114.80 148.96 112.29 143.72
  Q 91.01 99.16 69.48 53.97
  Q 68.93 52.80 70.13 53.29
  Q 82.45 58.23 93.38 62.69
  Q 333.42 160.50 575.06 258.92
  Q 583.71 262.44 593.67 266.20
  Q 608.07 271.65 635.05 282.65
  Q 662.36 293.78 680.63 304.55
  C 689.52 309.79 697.09 315.26 702.81 323.05
  Q 707.00 328.77 707.73 337.00
  C 708.59 346.75 707.34 356.73 705.25 366.36
  Q 700.16 389.78 695.30 413.49
  Q 690.44 437.12 689.59 462.50
  Q 688.81 485.94 695.72 505.69
  Q 702.51 525.12 715.67 542.25
  Q 722.41 551.02 729.85 558.64
  Q 740.35 569.38 748.47 575.96
  Q 752.82 579.47 759.69 582.07
  Q 824.97 606.78 890.78 631.68
  A 0.75 0.75 0.0 0 1 890.87 633.04
  C 882.51 637.57 880.22 645.47 880.92 654.60
  C 881.84 666.43 892.27 675.51 904.22 673.65
  C 906.42 673.31 908.62 673.25 910.82 672.78
  Q 928.25 669.05 946.61 664.65
  Q 956.70 662.24 970.82 659.90
  Q 981.15 658.19 990.47 657.57
  Q 1006.31 656.51 1022.73 657.24
  Q 1037.95 657.92 1055.67 663.21
  Q 1064.96 665.99 1072.49 669.94
  Q 1151.09 711.15 1231.23 754.60
  A 0.53 0.53 0.0 0 1 1231.27 755.51
  Q 1228.58 757.26 1225.62 758.47
  Q 1214.53 762.99 1201.18 765.95
  Q 1197.49 766.77 1193.85 766.41
  Q 1182.03 765.22 1169.21 760.78
  C 1147.29 753.18 1126.31 744.13 1104.45 734.76
  A 0.26 0.25 21.2 0 0 1104.11 734.90
  L 1101.70 741.04
  Q 1101.59 741.31 1101.85 741.44
  L 1174.39 776.61
  Q 1175.06 776.94 1174.57 777.50
  C 1168.68 784.28 1159.95 788.76 1151.03 791.51
  Q 1137.01 795.84 1124.92 796.82
  Q 1117.20 797.44 1109.69 797.28
  Q 1103.60 797.15 1095.42 793.74
  Q 1046.77 773.46 998.13 753.31
  A 0.19 0.18 -68.0 0 0 997.88 753.42
  L 995.57 759.95
  Q 995.48 760.20 995.72 760.30
  Z"
/>
<path fill="#1b398c" d="
  M 1238.54 668.59
  Q 1246.68 671.05 1254.28 673.93
  C 1257.73 675.24 1261.11 675.06 1264.71 674.18
  Q 1282.70 669.79 1288.38 669.29
  C 1314.16 667.03 1340.24 668.11 1366.50 669.62
  Q 1368.14 669.72 1366.71 670.53
  C 1358.46 675.20 1350.25 679.97 1341.82 684.10
  Q 1325.99 691.84 1314.83 698.96
  C 1295.45 711.33 1276.99 725.08 1258.17 738.53
  Q 1250.22 744.21 1240.33 749.63
  Q 1238.64 750.56 1236.89 749.60
  Q 1159.12 706.96 1075.54 663.20
  Q 1068.25 659.38 1061.40 657.23
  Q 1031.02 647.70 1001.87 649.13
  Q 977.49 650.32 959.46 654.11
  Q 940.86 658.02 918.38 663.34
  Q 912.82 664.66 906.51 665.73
  C 900.87 666.69 896.13 666.74 892.11 662.12
  C 886.44 655.60 886.62 645.38 893.97 640.18
  C 897.53 637.68 901.29 635.82 905.78 634.97
  C 924.72 631.39 940.33 619.98 953.83 606.66
  Q 964.46 596.17 974.97 586.02
  Q 981.88 579.34 989.02 576.46
  C 996.10 573.59 1003.21 575.51 1010.24 578.46
  C 1022.54 583.63 1034.92 588.68 1047.43 593.45
  Q 1122.96 622.27 1200.83 652.09
  A 1.07 1.06 -55.9 0 0 1201.94 651.87
  C 1231.19 623.99 1257.79 591.11 1259.60 549.09
  Q 1260.03 539.17 1258.75 528.95
  C 1256.34 509.72 1251.26 491.39 1244.47 473.11
  Q 1234.39 445.97 1221.32 415.87
  C 1219.96 412.74 1218.67 409.18 1217.91 405.92
  Q 1214.74 392.31 1221.15 380.86
  C 1227.46 369.60 1238.65 360.06 1250.03 353.29
  Q 1264.17 344.88 1275.99 338.50
  Q 1356.40 295.08 1436.52 251.10
  Q 1445.53 246.16 1454.09 241.55
  Q 1514.06 209.27 1574.11 177.13
  C 1612.79 156.42 1650.76 134.39 1689.60 114.12
  Q 1747.22 84.05 1804.63 53.14
  Q 1805.96 52.42 1805.72 53.92
  Q 1802.63 72.92 1797.51 92.32
  Q 1792.62 110.86 1784.92 130.22
  Q 1780.52 141.30 1774.29 151.27
  Q 1771.29 156.07 1767.16 158.94
  Q 1757.66 165.52 1745.36 171.76
  C 1721.79 183.71 1696.49 194.95 1674.84 205.65
  Q 1586.19 249.47 1509.58 286.27
  Q 1493.74 293.89 1469.05 304.79
  Q 1459.65 308.94 1450.79 313.33
  Q 1435.86 320.73 1422.04 327.66
  C 1411.47 332.97 1401.41 338.60 1390.97 344.22
  C 1376.53 352.01 1364.47 362.69 1353.91 375.74
  C 1347.47 383.70 1342.09 392.48 1338.80 402.09
  Q 1333.38 417.88 1333.33 436.44
  Q 1333.28 456.39 1333.54 475.54
  Q 1333.80 495.57 1330.14 521.11
  Q 1328.69 531.23 1326.44 540.84
  Q 1320.31 567.04 1312.01 587.96
  Q 1305.08 605.45 1293.21 619.94
  Q 1281.24 634.57 1263.97 647.77
  Q 1259.37 651.29 1254.01 654.67
  Q 1245.53 660.02 1238.41 668.13
  A 0.29 0.28 -61.5 0 0 1238.54 668.59
  Z"
/>
<path fill="#f07c00" d="
  M 372.98 262.12
  C 407.55 275.24 442.16 288.18 476.00 302.35
  C 501.21 312.91 524.64 326.82 546.82 343.99
  Q 554.23 349.73 559.17 355.31
  Q 569.94 367.47 578.30 378.71
  A 1.68 1.68 0.0 0 1 578.44 380.52
  L 576.34 384.52
  Q 575.74 385.66 574.47 385.46
  Q 534.56 379.22 497.51 372.19
  C 415.80 356.67 334.37 340.87 252.77 325.97
  Q 235.41 322.79 218.67 315.36
  Q 215.81 314.08 213.43 312.29
  C 197.97 300.62 186.13 284.98 174.39 269.22
  Q 165.97 257.92 151.06 232.68
  Q 131.62 199.75 115.03 167.79
  A 0.25 0.25 0.0 0 1 115.30 167.43
  Q 128.97 170.25 141.44 175.10
  Q 247.55 216.39 354.26 255.17
  Q 363.38 258.48 372.98 262.12
  Z
  M 422.14 288.70
  C 344.31 259.77 265.83 230.49 189.65 201.73
  Q 180.22 198.17 171.00 194.51
  Q 150.53 186.36 129.79 178.72
  Q 129.25 178.53 129.49 179.05
  Q 131.98 184.42 135.14 189.92
  Q 148.91 213.90 162.91 237.72
  Q 177.83 263.12 193.37 281.74
  Q 195.94 284.82 198.47 287.48
  C 202.91 292.16 207.19 297.36 211.89 301.28
  Q 220.55 308.49 231.14 312.50
  C 236.55 314.55 242.53 316.09 248.26 317.22
  Q 260.67 319.68 272.27 321.89
  Q 390.35 344.38 508.51 366.48
  Q 534.02 371.25 566.96 376.59
  Q 567.96 376.75 567.18 376.11
  Q 565.58 374.78 564.43 373.32
  Q 559.93 367.55 555.33 362.35
  Q 549.42 355.67 540.39 348.29
  C 534.35 343.34 527.65 339.21 521.23 334.96
  C 511.89 328.79 502.05 323.52 492.44 318.27
  Q 483.56 313.41 472.74 308.95
  C 455.93 302.01 439.11 295.00 422.14 288.70
  Z"
/>
<path fill="#f07c00" d="
  M 1769.56 196.92
  C 1760.10 222.94 1748.78 249.39 1736.59 275.92
  Q 1728.99 292.47 1718.17 306.93
  Q 1716.09 309.71 1708.71 317.89
  Q 1698.50 329.20 1685.26 335.33
  C 1678.72 338.35 1671.77 341.11 1664.74 342.97
  C 1606.49 358.34 1552.56 374.65 1496.10 391.41
  Q 1486.70 394.20 1476.89 396.95
  Q 1433.71 409.05 1390.55 422.63
  C 1377.37 426.78 1364.24 430.36 1350.87 432.52
  A 0.49 0.49 0.0 0 1 1350.31 431.91
  C 1353.13 421.13 1358.78 410.73 1365.80 402.51
  C 1371.61 395.70 1377.61 388.77 1384.05 382.43
  Q 1397.57 369.12 1411.71 358.82
  Q 1425.34 348.89 1444.34 338.44
  Q 1462.11 328.66 1480.49 319.41
  Q 1626.62 245.87 1777.74 169.64
  Q 1778.45 169.29 1778.23 170.05
  Q 1774.02 184.66 1769.56 196.92
  Z
  M 1728.14 275.80
  C 1742.17 246.16 1754.67 215.71 1765.75 184.66
  Q 1765.94 184.15 1765.45 184.39
  Q 1613.53 261.23 1463.40 336.88
  Q 1455.15 341.03 1437.54 351.10
  C 1432.84 353.79 1428.27 357.02 1423.66 360.00
  Q 1418.56 363.30 1413.69 367.07
  Q 1404.03 374.55 1400.54 377.50
  Q 1378.35 396.29 1362.77 420.54
  Q 1362.29 421.29 1362.09 422.07
  A 0.53 0.53 0.0 0 0 1362.75 422.71
  Q 1387.78 415.86 1412.59 407.85
  Q 1422.08 404.78 1431.70 401.97
  Q 1527.88 373.89 1618.49 347.61
  C 1638.11 341.92 1658.21 338.06 1677.23 330.21
  Q 1684.27 327.30 1690.47 323.20
  Q 1697.71 318.41 1702.10 313.77
  Q 1718.28 296.66 1728.14 275.80
  Z"
/>
<path fill="#1b398c" d="
  M 189.65 201.73
  C 265.83 230.49 344.31 259.77 422.14 288.70
  C 439.11 295.00 455.93 302.01 472.74 308.95
  Q 483.56 313.41 492.44 318.27
  C 502.05 323.52 511.89 328.79 521.23 334.96
  C 527.65 339.21 534.35 343.34 540.39 348.29
  Q 549.42 355.67 555.33 362.35
  Q 559.93 367.55 564.43 373.32
  Q 565.58 374.78 567.18 376.11
  Q 567.96 376.75 566.96 376.59
  Q 534.02 371.25 508.51 366.48
  Q 390.35 344.38 272.27 321.89
  Q 260.67 319.68 248.26 317.22
  C 242.53 316.09 236.55 314.55 231.14 312.50
  Q 220.55 308.49 211.89 301.28
  C 207.19 297.36 202.91 292.16 198.47 287.48
  Q 195.94 284.82 193.37 281.74
  Q 177.83 263.12 162.91 237.72
  Q 148.91 213.90 135.14 189.92
  Q 131.98 184.42 129.49 179.05
  Q 129.25 178.53 129.79 178.72
  Q 150.53 186.36 171.00 194.51
  Q 180.22 198.17 189.65 201.73
  Z"
/>
<path fill="#1b398c" d="
  M 1728.14 275.80
  Q 1718.28 296.66 1702.10 313.77
  Q 1697.71 318.41 1690.47 323.20
  Q 1684.27 327.30 1677.23 330.21
  C 1658.21 338.06 1638.11 341.92 1618.49 347.61
  Q 1527.88 373.89 1431.70 401.97
  Q 1422.08 404.78 1412.59 407.85
  Q 1387.78 415.86 1362.75 422.71
  A 0.53 0.53 0.0 0 1 1362.09 422.07
  Q 1362.29 421.29 1362.77 420.54
  Q 1378.35 396.29 1400.54 377.50
  Q 1404.03 374.55 1413.69 367.07
  Q 1418.56 363.30 1423.66 360.00
  C 1428.27 357.02 1432.84 353.79 1437.54 351.10
  Q 1455.15 341.03 1463.40 336.88
  Q 1613.53 261.23 1765.45 184.39
  Q 1765.94 184.15 1765.75 184.66
  C 1754.67 215.71 1742.17 246.16 1728.14 275.80
  Z"
/>
<path fill="#ffffff" d="
  M 847.38 348.15
  Q 846.83 347.03 846.83 348.28
  Q 846.73 437.53 846.81 527.66
  Q 846.82 538.33 848.45 543.05
  C 852.12 553.67 861.28 558.26 872.09 559.59
  Q 878.34 560.36 884.24 560.25
  A 1.71 1.71 0.0 0 1 885.98 561.96
  L 885.99 573.16
  Q 885.99 575.31 883.84 575.31
  L 786.91 575.31
  A 0.65 0.65 0.0 0 1 786.26 574.66
  L 786.26 561.79
  A 1.53 1.53 0.0 0 1 787.86 560.26
  Q 796.90 560.65 805.26 558.38
  C 819.65 554.46 824.06 543.13 824.05 529.38
  Q 823.97 438.70 824.04 347.45
  C 824.04 341.10 823.60 334.48 822.98 328.04
  C 822.04 318.21 810.31 314.03 801.96 313.81
  Q 794.74 313.61 787.36 313.76
  A 1.08 1.07 -0.5 0 1 786.26 312.69
  L 786.26 299.83
  Q 786.26 298.68 787.42 298.68
  L 901.00 298.68
  A 2.54 2.53 78.4 0 1 903.33 300.22
  L 974.16 466.64
  A 1.42 1.42 0.0 0 0 976.78 466.62
  L 1045.59 299.61
  Q 1045.97 298.68 1046.97 298.68
  L 1160.27 298.68
  A 1.43 1.42 87.8 0 1 1161.69 300.00
  Q 1162.15 306.04 1161.70 311.91
  Q 1161.56 313.65 1159.82 313.63
  C 1152.49 313.54 1145.37 313.23 1138.27 314.89
  C 1129.65 316.91 1125.49 322.70 1124.56 331.16
  C 1124.33 333.26 1124.02 335.40 1124.02 337.52
  Q 1123.94 433.60 1124.03 531.10
  Q 1124.04 537.95 1125.29 547.02
  C 1125.82 550.81 1127.93 553.20 1130.94 555.36
  C 1139.18 561.27 1150.25 560.38 1159.73 560.19
  Q 1161.91 560.15 1161.92 562.32
  L 1161.97 572.96
  Q 1161.99 575.31 1159.63 575.31
  Q 1091.96 575.26 1025.20 575.32
  Q 1020.15 575.32 1014.03 571.76
  Q 1013.55 571.47 1013.56 570.92
  L 1013.75 561.28
  A 0.94 0.93 -88.5 0 1 1014.71 560.36
  Q 1023.27 560.56 1031.52 559.93
  C 1041.72 559.15 1049.65 554.66 1050.83 543.90
  C 1051.29 539.78 1051.48 535.40 1051.48 531.22
  Q 1051.54 439.26 1051.50 347.00
  Q 1051.50 346.75 1051.26 346.68
  Q 1050.91 346.57 1050.81 346.93
  C 1049.78 350.66 1047.90 354.40 1046.33 358.13
  Q 1003.51 459.78 955.75 573.43
  C 954.71 575.90 950.00 575.62 947.90 575.40
  Q 944.95 575.08 943.79 572.39
  Q 901.46 474.03 849.80 353.87
  Q 849.59 353.37 849.15 353.04
  C 847.67 351.96 848.11 349.63 847.38 348.15
  Z
  M 843.58 329.34
  C 843.89 333.03 846.18 335.65 847.61 338.97
  Q 896.27 452.51 946.66 569.26
  C 947.89 572.13 952.04 572.35 953.30 569.35
  Q 1004.00 448.72 1054.24 329.01
  Q 1054.45 328.51 1054.70 328.99
  Q 1055.37 330.27 1055.37 331.50
  Q 1055.29 431.80 1055.35 530.75
  C 1055.36 544.58 1054.78 558.48 1038.66 562.38
  C 1032.46 563.89 1026.53 564.37 1020.21 564.16
  Q 1017.27 564.07 1017.35 567.01
  L 1017.40 568.75
  Q 1017.49 571.64 1020.37 571.64
  L 1155.81 571.64
  Q 1158.00 571.64 1158.01 569.44
  L 1158.01 565.95
  Q 1158.02 563.84 1155.91 563.97
  C 1144.52 564.67 1129.72 563.54 1123.22 552.40
  Q 1121.30 549.10 1120.92 543.97
  Q 1120.35 536.19 1120.34 529.35
  Q 1120.22 437.09 1120.29 342.83
  Q 1120.30 334.59 1121.23 328.51
  Q 1121.93 323.96 1124.42 319.76
  C 1130.41 309.66 1145.67 309.85 1155.70 309.98
  Q 1157.98 310.02 1157.99 307.74
  L 1158.02 304.45
  Q 1158.04 302.37 1155.96 302.37
  L 1050.82 302.37
  A 3.52 3.51 11.0 0 0 1047.56 304.56
  Q 1006.83 403.87 978.99 470.83
  Q 977.60 474.19 975.52 477.74
  A 0.39 0.39 0.0 0 1 974.82 477.69
  L 900.50 303.52
  A 1.89 1.89 0.0 0 0 898.76 302.37
  L 791.93 302.37
  A 1.76 1.76 0.0 0 0 790.17 304.06
  L 789.97 308.48
  Q 789.91 309.87 791.31 309.86
  C 800.66 309.80 810.17 309.88 818.09 314.64
  C 822.67 317.40 826.19 321.92 826.71 327.24
  Q 827.65 336.98 827.68 347.06
  Q 827.95 440.34 827.70 531.24
  C 827.67 544.78 822.20 556.36 809.16 561.16
  Q 801.73 563.89 792.01 564.18
  Q 790.00 564.24 790.00 566.25
  L 790.00 569.44
  Q 790.00 571.63 792.19 571.63
  L 879.41 571.64
  Q 881.85 571.64 882.18 569.22
  Q 882.34 568.02 882.26 566.78
  Q 882.10 564.18 879.50 563.99
  Q 874.34 563.60 869.45 562.95
  C 855.02 561.01 843.38 550.46 843.34 535.38
  Q 843.05 434.02 843.01 329.58
  Q 843.01 329.36 843.23 329.33
  L 843.51 329.29
  Q 843.57 329.28 843.58 329.34
  Z"
/>
<path fill="#1b398c" d="
  M 843.58 329.34
  Q 843.57 329.28 843.51 329.29
  L 843.23 329.33
  Q 843.01 329.36 843.01 329.58
  Q 843.05 434.02 843.34 535.38
  C 843.38 550.46 855.02 561.01 869.45 562.95
  Q 874.34 563.60 879.50 563.99
  Q 882.10 564.18 882.26 566.78
  Q 882.34 568.02 882.18 569.22
  Q 881.85 571.64 879.41 571.64
  L 792.19 571.63
  Q 790.00 571.63 790.00 569.44
  L 790.00 566.25
  Q 790.00 564.24 792.01 564.18
  Q 801.73 563.89 809.16 561.16
  C 822.20 556.36 827.67 544.78 827.70 531.24
  Q 827.95 440.34 827.68 347.06
  Q 827.65 336.98 826.71 327.24
  C 826.19 321.92 822.67 317.40 818.09 314.64
  C 810.17 309.88 800.66 309.80 791.31 309.86
  Q 789.91 309.87 789.97 308.48
  L 790.17 304.06
  A 1.76 1.76 0.0 0 1 791.93 302.37
  L 898.76 302.37
  A 1.89 1.89 0.0 0 1 900.50 303.52
  L 974.82 477.69
  A 0.39 0.39 0.0 0 0 975.52 477.74
  Q 977.60 474.19 978.99 470.83
  Q 1006.83 403.87 1047.56 304.56
  A 3.52 3.51 11.0 0 1 1050.82 302.37
  L 1155.96 302.37
  Q 1158.04 302.37 1158.02 304.45
  L 1157.99 307.74
  Q 1157.98 310.02 1155.70 309.98
  C 1145.67 309.85 1130.41 309.66 1124.42 319.76
  Q 1121.93 323.96 1121.23 328.51
  Q 1120.30 334.59 1120.29 342.83
  Q 1120.22 437.09 1120.34 529.35
  Q 1120.35 536.19 1120.92 543.97
  Q 1121.30 549.10 1123.22 552.40
  C 1129.72 563.54 1144.52 564.67 1155.91 563.97
  Q 1158.02 563.84 1158.01 565.95
  L 1158.01 569.44
  Q 1158.00 571.64 1155.81 571.64
  L 1020.37 571.64
  Q 1017.49 571.64 1017.40 568.75
  L 1017.35 567.01
  Q 1017.27 564.07 1020.21 564.16
  C 1026.53 564.37 1032.46 563.89 1038.66 562.38
  C 1054.78 558.48 1055.36 544.58 1055.35 530.75
  Q 1055.29 431.80 1055.37 331.50
  Q 1055.37 330.27 1054.70 328.99
  Q 1054.45 328.51 1054.24 329.01
  Q 1004.00 448.72 953.30 569.35
  C 952.04 572.35 947.89 572.13 946.66 569.26
  Q 896.27 452.51 847.61 338.97
  C 846.18 335.65 843.89 333.03 843.58 329.34
  Z"
/>
<path fill="#f07c00" d="
  M 336.49 440.92
  C 324.96 435.35 313.99 427.57 303.72 418.56
  Q 289.92 406.45 277.74 392.98
  Q 274.16 389.02 263.37 376.40
  C 254.90 366.51 247.14 356.58 238.75 347.19
  C 233.31 341.10 230.52 336.21 228.48 328.76
  Q 228.20 327.76 229.22 327.95
  C 237.42 329.52 245.52 331.03 253.61 332.97
  Q 331.20 351.58 409.63 372.30
  Q 418.62 374.67 428.73 377.08
  Q 453.80 383.05 480.94 389.27
  Q 490.40 391.44 500.75 394.44
  Q 522.54 400.75 538.17 408.90
  Q 548.17 414.12 559.86 421.46
  Q 569.20 427.32 575.66 433.00
  Q 585.09 441.29 592.95 451.99
  Q 593.76 453.08 593.47 454.39
  Q 593.33 455.04 592.66 455.03
  Q 481.53 452.85 388.96 449.69
  Q 374.13 449.19 358.76 447.51
  Q 347.61 446.29 336.49 440.92
  Z
  M 517.94 407.94
  Q 513.41 406.11 508.48 404.62
  Q 483.37 397.02 450.02 389.82
  Q 439.31 387.50 430.55 385.28
  C 385.86 373.92 338.44 361.57 295.71 350.80
  Q 268.69 344.00 244.84 338.78
  Q 241.55 338.06 243.64 340.71
  Q 260.36 361.86 279.19 383.31
  Q 294.08 400.26 307.88 412.24
  Q 320.22 422.95 334.67 431.39
  Q 348.03 439.20 362.92 440.44
  Q 374.70 441.43 386.51 441.87
  Q 471.85 445.03 561.98 446.84
  Q 569.59 446.99 577.95 446.98
  A 0.56 0.56 0.0 0 0 578.37 446.06
  Q 574.04 440.89 569.31 437.33
  Q 544.32 418.55 517.94 407.94
  Z"
/>
<path fill="#1b398c" d="
  M 517.94 407.94
  Q 544.32 418.55 569.31 437.33
  Q 574.04 440.89 578.37 446.06
  A 0.56 0.56 0.0 0 1 577.95 446.98
  Q 569.59 446.99 561.98 446.84
  Q 471.85 445.03 386.51 441.87
  Q 374.70 441.43 362.92 440.44
  Q 348.03 439.20 334.67 431.39
  Q 320.22 422.95 307.88 412.24
  Q 294.08 400.26 279.19 383.31
  Q 260.36 361.86 243.64 340.71
  Q 241.55 338.06 244.84 338.78
  Q 268.69 344.00 295.71 350.80
  C 338.44 361.57 385.86 373.92 430.55 385.28
  Q 439.31 387.50 450.02 389.82
  Q 483.37 397.02 508.48 404.62
  Q 513.41 406.11 517.94 407.94
  Z"
/>
<path fill="#f07c00" d="
  M 1684.68 360.99
  C 1669.56 386.99 1652.71 411.01 1633.68 435.08
  Q 1626.57 444.08 1619.41 451.70
  Q 1613.42 458.07 1605.00 463.47
  Q 1598.58 467.58 1589.83 470.11
  Q 1579.84 472.99 1571.22 474.15
  Q 1458.11 489.31 1351.61 502.29
  A 0.99 0.99 0.0 0 1 1350.55 500.98
  C 1354.48 489.63 1362.08 481.63 1370.52 473.51
  Q 1390.19 454.60 1413.51 442.27
  Q 1424.62 436.40 1437.64 431.55
  Q 1471.51 418.93 1498.29 409.25
  Q 1594.94 374.34 1692.02 340.50
  A 1.04 1.04 0.0 0 1 1693.35 341.81
  Q 1690.18 351.52 1684.68 360.99
  Z
  M 1678.31 356.26
  C 1678.62 355.31 1679.13 354.64 1679.60 353.78
  Q 1680.06 352.93 1679.14 353.25
  Q 1563.13 393.28 1447.89 435.96
  C 1437.83 439.68 1427.08 443.86 1417.43 448.96
  Q 1397.10 459.70 1377.89 477.00
  Q 1370.81 483.38 1365.04 490.62
  Q 1363.08 493.08 1366.21 492.72
  Q 1433.49 484.99 1501.31 475.86
  Q 1532.40 471.67 1563.50 467.49
  C 1576.46 465.75 1588.55 463.93 1598.85 458.03
  Q 1606.22 453.80 1611.48 448.51
  C 1617.31 442.65 1624.06 435.09 1629.78 427.82
  Q 1656.52 393.78 1677.63 357.77
  Q 1678.05 357.06 1678.31 356.26
  Z"
/>
<path fill="#1b398c" d="
  M 1678.31 356.26
  Q 1678.05 357.06 1677.63 357.77
  Q 1656.52 393.78 1629.78 427.82
  C 1624.06 435.09 1617.31 442.65 1611.48 448.51
  Q 1606.22 453.80 1598.85 458.03
  C 1588.55 463.93 1576.46 465.75 1563.50 467.49
  Q 1532.40 471.67 1501.31 475.86
  Q 1433.49 484.99 1366.21 492.72
  Q 1363.08 493.08 1365.04 490.62
  Q 1370.81 483.38 1377.89 477.00
  Q 1397.10 459.70 1417.43 448.96
  C 1427.08 443.86 1437.83 439.68 1447.89 435.96
  Q 1563.13 393.28 1679.14 353.25
  Q 1680.06 352.93 1679.60 353.78
  C 1679.13 354.64 1678.62 355.31 1678.31 356.26
  Z"
/>
<path fill="#f07c00" d="
  M 352.10 456.14
  Q 352.42 453.80 354.75 454.01
  C 407.05 458.79 461.61 465.26 515.50 471.48
  C 531.96 473.38 549.24 476.57 563.67 483.28
  Q 573.18 487.70 584.62 494.73
  Q 602.49 505.70 620.78 516.81
  A 0.36 0.36 0.0 0 1 620.73 517.45
  Q 614.40 520.19 608.21 521.47
  Q 557.11 532.12 503.28 538.77
  Q 488.76 540.57 470.26 541.89
  C 455.57 542.94 440.05 536.98 428.60 528.36
  C 422.61 523.87 416.55 518.89 410.63 513.68
  Q 380.57 487.26 351.41 461.54
  A 1.72 1.70 -74.8 0 1 350.88 460.60
  Q 350.57 458.98 351.70 457.23
  Q 352.02 456.73 352.10 456.14
  Z
  M 546.10 484.89
  Q 532.80 481.17 518.76 479.52
  Q 462.88 472.95 408.52 466.87
  Q 388.85 464.68 365.65 462.69
  A 0.65 0.65 0.0 0 0 364.97 463.17
  Q 364.87 463.57 365.18 463.85
  Q 390.35 485.93 416.47 509.05
  Q 430.04 521.06 442.35 527.99
  C 455.68 535.48 470.06 534.84 485.75 533.04
  Q 507.08 530.58 526.25 527.90
  Q 559.60 523.22 600.95 515.15
  A 0.64 0.64 0.0 0 0 601.33 514.13
  Q 601.02 513.74 600.59 513.46
  Q 580.50 500.59 566.03 492.74
  Q 557.38 488.04 546.10 484.89
  Z"
/>
<path fill="#1b398c" d="
  M 546.10 484.89
  Q 557.38 488.04 566.03 492.74
  Q 580.50 500.59 600.59 513.46
  Q 601.02 513.74 601.33 514.13
  A 0.64 0.64 0.0 0 1 600.95 515.15
  Q 559.60 523.22 526.25 527.90
  Q 507.08 530.58 485.75 533.04
  C 470.06 534.84 455.68 535.48 442.35 527.99
  Q 430.04 521.06 416.47 509.05
  Q 390.35 485.93 365.18 463.85
  Q 364.87 463.57 364.97 463.17
  A 0.65 0.65 0.0 0 1 365.65 462.69
  Q 388.85 464.68 408.52 466.87
  Q 462.88 472.95 518.76 479.52
  Q 532.80 481.17 546.10 484.89
  Z"
/>
<path fill="#f07c00" d="
  M 1597.68 477.73
  C 1595.91 481.14 1593.96 484.76 1591.49 487.52
  C 1587.22 492.27 1582.72 496.54 1578.54 501.53
  C 1563.74 519.19 1548.69 536.99 1532.51 553.23
  Q 1529.23 556.52 1525.41 559.83
  Q 1504.48 577.90 1478.08 577.56
  Q 1460.84 577.34 1438.71 575.51
  Q 1429.07 574.72 1418.78 574.26
  Q 1397.73 573.33 1372.73 571.88
  C 1360.98 571.20 1349.37 570.27 1337.70 567.31
  A 0.83 0.83 0.0 0 1 1337.17 566.12
  C 1342.94 555.22 1350.69 546.69 1360.88 539.88
  Q 1378.14 528.35 1398.28 521.30
  Q 1422.13 512.94 1447.94 507.51
  Q 1518.16 492.74 1596.95 476.76
  Q 1598.33 476.48 1597.68 477.73
  Z
  M 1503.49 564.86
  Q 1516.48 558.80 1527.27 547.77
  C 1544.17 530.49 1561.92 509.30 1578.60 489.44
  Q 1579.77 488.05 1577.99 488.41
  Q 1519.93 500.31 1461.05 512.29
  C 1444.61 515.64 1428.27 519.86 1412.76 524.48
  Q 1392.18 530.62 1373.00 541.44
  Q 1365.54 545.64 1360.07 550.28
  Q 1354.31 555.16 1349.60 560.91
  A 0.86 0.85 22.4 0 0 1350.18 562.30
  Q 1357.99 563.10 1365.57 563.82
  Q 1373.41 564.58 1380.93 564.89
  Q 1396.50 565.53 1413.49 566.39
  C 1431.99 567.33 1451.55 569.24 1470.77 569.96
  Q 1480.05 570.32 1486.87 569.47
  Q 1496.03 568.34 1503.49 564.86
  Z"
/>
<path fill="#1b398c" d="
  M 1503.49 564.86
  Q 1496.03 568.34 1486.87 569.47
  Q 1480.05 570.32 1470.77 569.96
  C 1451.55 569.24 1431.99 567.33 1413.49 566.39
  Q 1396.50 565.53 1380.93 564.89
  Q 1373.41 564.58 1365.57 563.82
  Q 1357.99 563.10 1350.18 562.30
  A 0.86 0.85 22.4 0 1 1349.60 560.91
  Q 1354.31 555.16 1360.07 550.28
  Q 1365.54 545.64 1373.00 541.44
  Q 1392.18 530.62 1412.76 524.48
  C 1428.27 519.86 1444.61 515.64 1461.05 512.29
  Q 1519.93 500.31 1577.99 488.41
  Q 1579.77 488.05 1578.60 489.44
  C 1561.92 509.30 1544.17 530.49 1527.27 547.77
  Q 1516.48 558.80 1503.49 564.86
  Z"
/>
<path fill="#f07c00" d="
  M 641.06 563.85
  Q 655.47 569.70 669.48 575.01
  A 0.39 0.39 0.0 0 1 669.62 575.64
  Q 667.44 577.97 665.32 580.49
  C 662.94 583.34 658.87 585.48 655.25 586.82
  C 644.45 590.82 632.90 594.60 622.38 598.58
  Q 605.72 604.88 588.79 610.42
  Q 584.79 611.73 576.25 612.68
  Q 563.12 614.14 550.92 609.06
  Q 541.04 604.94 530.94 598.47
  Q 505.71 582.30 481.98 566.63
  Q 471.96 560.01 462.94 551.08
  A 0.47 0.46 -25.8 0 1 463.22 550.29
  Q 498.37 546.14 534.90 546.80
  Q 556.17 547.19 571.48 548.28
  Q 586.29 549.33 603.25 552.17
  Q 611.64 553.58 617.92 555.47
  Q 627.68 558.42 641.06 563.85
  Z
  M 653.59 576.92
  Q 638.03 570.48 624.42 565.33
  C 618.15 562.96 611.09 561.02 604.48 559.96
  Q 573.68 555.04 545.87 554.39
  Q 513.19 553.62 480.90 556.05
  Q 479.49 556.15 480.67 556.92
  Q 503.49 571.75 526.37 586.71
  C 535.71 592.83 545.57 598.80 555.89 602.56
  Q 558.71 603.59 561.70 604.13
  Q 574.81 606.53 587.77 602.56
  C 606.77 596.74 625.67 589.00 644.97 582.35
  Q 649.79 580.69 654.51 578.87
  A 0.70 0.69 58.4 0 0 654.77 577.76
  Q 654.27 577.21 653.59 576.92
  Z"
/>
<path fill="#1b398c" d="
  M 653.59 576.92
  Q 654.27 577.21 654.77 577.76
  A 0.70 0.69 58.4 0 1 654.51 578.87
  Q 649.79 580.69 644.97 582.35
  C 625.67 589.00 606.77 596.74 587.77 602.56
  Q 574.81 606.53 561.70 604.13
  Q 558.71 603.59 555.89 602.56
  C 545.57 598.80 535.71 592.83 526.37 586.71
  Q 503.49 571.75 480.67 556.92
  Q 479.49 556.15 480.90 556.05
  Q 513.19 553.62 545.87 554.39
  Q 573.68 555.04 604.48 559.96
  C 611.09 561.02 618.15 562.96 624.42 565.33
  Q 638.03 570.48 653.59 576.92
  Z"
/>
<path fill="#1b398c" d="
  M 1432.18 633.92
  C 1420.06 644.10 1404.15 650.58 1388.22 648.76
  C 1371.91 646.89 1356.14 641.60 1339.97 638.59
  C 1331.72 637.06 1324.72 635.48 1317.31 633.11
  Q 1314.68 632.27 1317.36 631.64
  L 1476.04 594.25
  Q 1479.57 593.41 1476.58 595.46
  Q 1467.84 601.44 1459.48 609.40
  Q 1445.42 622.80 1432.18 633.92
  Z"
/>
</svg>
