<?xml version="1.0" encoding="UTF-8" standalone="no"?>
<!DOCTYPE svg PUBLIC "-//W3C//DTD SVG 1.1//EN" "http://www.w3.org/Graphics/SVG/1.1/DTD/svg11.dtd">
<svg xmlns="http://www.w3.org/2000/svg" version="1.1" viewBox="0.00 0.00 189.00 54.00">
<g stroke-width="1.00" fill="none" stroke-linecap="butt">
<path stroke="#8e9dbd" vector-effect="non-scaling-stroke" d="
  M 98.03 11.21
  L 98.17 24.95
  Q 98.17 25.73 98.96 25.73
  L 101.15 25.70
  Q 102.25 25.69 102.25 24.60
  L 102.26 5.27
  Q 102.26 3.68 100.70 3.35
  C 98.91 2.97 97.46 3.52 96.51 5.06
  Q 94.22 8.81 92.14 12.07
  A 0.45 0.45 0.0 0 1 91.40 12.10
  Q 88.86 8.66 86.44 4.76
  C 85.48 3.22 83.62 3.30 82.05 3.53
  A 1.24 1.23 -4.3 0 0 81.00 4.75
  L 81.00 25.28
  Q 81.00 25.80 81.53 25.78
  L 84.34 25.64
  A 0.60 0.59 89.0 0 0 84.91 25.04
  L 84.89 11.54
  Q 84.89 9.66 85.89 11.26
  Q 87.48 13.79 89.16 15.96
  C 92.64 20.43 95.91 13.63 97.32 11.03
  Q 98.02 9.74 98.03 11.21"
/>
<path stroke="#8e9dbd" vector-effect="non-scaling-stroke" d="
  M 173.38 12.10
  A 2.40 2.40 0.0 0 1 171.79 8.91
  Q 172.55 6.98 174.61 7.00
  Q 180.23 7.05 186.05 6.92
  Q 187.35 6.89 187.57 5.61
  Q 187.74 4.59 187.75 4.51
  Q 187.96 3.27 186.73 3.26
  Q 181.37 3.21 175.28 3.29
  Q 169.03 3.37 167.60 8.63
  C 166.66 12.09 169.55 14.95 172.74 15.72
  Q 177.48 16.86 182.13 17.67
  Q 183.92 17.98 184.76 19.58
  Q 185.08 20.20 184.72 20.79
  Q 183.82 22.26 182.04 22.26
  Q 175.60 22.26 169.64 22.27
  Q 168.27 22.27 168.03 23.62
  L 167.88 24.50
  Q 167.65 25.80 168.96 25.77
  Q 174.43 25.66 180.51 25.77
  C 184.11 25.83 187.58 25.10 188.30 21.02
  C 189.19 15.95 185.85 14.73 181.45 13.94
  Q 177.19 13.17 173.38 12.10"
/>
<path stroke="#8e9dbd" vector-effect="non-scaling-stroke" d="
  M 19.33 10.91
  Q 19.92 9.94 19.93 11.08
  L 20.04 24.55
  Q 20.05 25.80 21.30 25.76
  L 22.91 25.71
  Q 23.99 25.67 23.99 24.59
  L 24.00 4.62
  A 1.08 1.07 -85.3 0 0 23.11 3.56
  Q 21.26 3.23 19.63 3.70
  A 1.42 1.38 7.4 0 0 18.84 4.29
  L 14.01 11.99
  A 0.58 0.57 44.1 0 1 13.04 12.00
  L 7.69 4.07
  Q 7.35 3.56 6.73 3.54
  L 4.34 3.47
  A 1.44 1.43 0.6 0 0 2.86 4.91
  L 2.87 24.98
  Q 2.87 26.10 3.98 25.95
  L 5.46 25.75
  Q 6.74 25.58 6.74 24.29
  L 6.79 11.51
  Q 6.79 9.94 7.68 11.24
  C 8.92 13.05 12.64 20.39 15.65 16.36
  Q 17.69 13.63 19.33 10.91"
/>
<path stroke="#8e9dbd" vector-effect="non-scaling-stroke" d="
  M 34.80 21.42
  L 43.97 21.73
  Q 44.55 21.75 44.88 22.24
  Q 45.69 23.43 46.02 24.97
  A 0.97 0.96 83.6 0 0 46.96 25.73
  L 49.99 25.75
  Q 51.05 25.76 50.66 24.76
  Q 46.53 14.22 42.70 4.65
  Q 42.21 3.42 40.86 3.44
  C 39.56 3.46 38.24 3.32 37.00 3.76
  A 1.17 1.15 0.4 0 0 36.31 4.43
  L 28.27 25.02
  A 0.54 0.53 10.8 0 0 28.77 25.75
  L 31.92 25.75
  A 1.02 1.00 10.0 0 0 32.89 25.08
  L 34.03 21.94
  Q 34.22 21.40 34.80 21.42"
/>
<path stroke="#8e9dbd" vector-effect="non-scaling-stroke" d="
  M 60.73 17.76
  L 65.26 17.74
  A 1.25 1.24 -18.7 0 1 66.28 18.24
  L 71.17 24.76
  A 2.45 2.43 71.9 0 0 73.08 25.74
  L 75.45 25.79
  Q 76.69 25.82 75.96 24.82
  L 70.75 17.76
  A 0.38 0.37 -25.3 0 1 70.96 17.18
  Q 75.37 16.01 75.90 11.50
  C 76.43 6.97 73.39 3.88 68.88 3.63
  Q 62.92 3.28 57.23 3.63
  Q 55.63 3.72 55.62 5.33
  L 55.61 25.05
  A 0.70 0.69 0.4 0 0 56.30 25.74
  L 58.79 25.76
  Q 59.84 25.77 59.86 24.71
  L 59.96 18.52
  Q 59.97 17.76 60.73 17.76"
/>
<path stroke="#8e9dbd" vector-effect="non-scaling-stroke" d="
  M 128.26 12.92
  A 9.44 9.44 0.0 0 0 118.82 3.48
  L 116.30 3.48
  A 9.44 9.44 0.0 0 0 106.86 12.92
  L 106.86 16.54
  A 9.44 9.44 0.0 0 0 116.30 25.98
  L 118.82 25.98
  A 9.44 9.44 0.0 0 0 128.26 16.54
  L 128.26 12.92"
/>
<path stroke="#8e9dbd" vector-effect="non-scaling-stroke" d="
  M 149.09 17.13
  Q 154.85 14.79 153.52 8.51
  C 152.79 5.05 148.81 3.59 145.73 3.53
  Q 140.53 3.44 134.89 3.53
  A 1.53 1.52 89.8 0 0 133.39 5.05
  L 133.36 24.71
  Q 133.36 25.81 134.46 25.80
  L 136.48 25.79
  Q 137.73 25.78 137.74 24.52
  L 137.76 18.51
  Q 137.76 17.78 138.49 17.76
  C 140.89 17.72 143.28 17.09 144.89 19.35
  Q 146.92 22.21 148.94 24.59
  Q 150.09 25.94 151.86 25.94
  L 152.77 25.94
  Q 154.61 25.94 153.50 24.47
  L 148.79 18.19
  Q 148.25 17.47 149.09 17.13"
/>
<path stroke="#8e9dbd" vector-effect="non-scaling-stroke" d="
  M 162.9878 4.4437
  A 0.95 0.95 0.0 0 0 162.0394 3.4921
  L 159.6994 3.4880
  A 0.95 0.95 0.0 0 0 158.7478 4.4363
  L 158.7122 24.8163
  A 0.95 0.95 0.0 0 0 159.6606 25.7679
  L 162.0006 25.7720
  A 0.95 0.95 0.0 0 0 162.9522 24.8237
  L 162.9878 4.4437"
/>
<path stroke="#8e9dbd" vector-effect="non-scaling-stroke" d="
  M 79.06 42.09
  L 75.76 36.51
  Q 74.78 34.84 72.86 34.62
  L 71.78 34.50
  A 0.84 0.84 0.0 0 0 71.01 35.85
  C 74.58 40.53 78.35 45.16 77.36 50.81
  Q 77.08 52.40 78.69 52.38
  L 79.23 52.37
  Q 81.12 52.34 81.00 50.45
  Q 80.72 46.02 82.15 43.99
  Q 85.27 39.56 87.67 35.57
  Q 88.38 34.39 87.00 34.41
  L 86.35 34.42
  A 2.78 2.78 0.0 0 0 84.15 35.58
  L 79.52 42.11
  A 0.28 0.27 -42.1 0 1 79.06 42.09"
/>
<path stroke="#8e9dbd" vector-effect="non-scaling-stroke" d="
  M 31.41 50.35
  A 0.55 0.55 0.0 0 0 30.89 49.82
  L 23.80 49.48
  A 0.55 0.55 0.0 0 1 23.27 48.93
  L 23.34 35.35
  A 0.55 0.55 0.0 0 0 22.79 34.80
  L 20.81 34.80
  A 0.55 0.55 0.0 0 0 20.26 35.36
  L 20.41 51.69
  A 0.55 0.55 0.0 0 0 20.97 52.24
  L 30.90 52.23
  A 0.55 0.55 0.0 0 0 31.45 51.66
  L 31.41 50.35"
/>
<path stroke="#8e9dbd" vector-effect="non-scaling-stroke" d="
  M 39.06 49.45
  A 0.58 0.58 0.0 0 1 38.50 48.87
  L 38.49 35.44
  A 0.58 0.58 0.0 0 0 37.95 34.86
  L 35.62 34.71
  A 0.58 0.58 0.0 0 0 35.00 35.29
  L 34.99 51.70
  A 0.58 0.58 0.0 0 0 35.57 52.28
  L 46.03 52.22
  A 0.58 0.58 0.0 0 0 46.60 51.57
  L 46.42 50.19
  A 0.58 0.58 0.0 0 0 45.87 49.68
  L 39.06 49.45"
/>
<path stroke="#8e9dbd" vector-effect="non-scaling-stroke" d="
  M 67.2478 42.0352
  A 7.32 7.32 0.0 0 0 59.9662 34.6769
  L 57.3663 34.6633
  A 7.32 7.32 0.0 0 0 50.0080 41.9449
  L 49.9922 44.9648
  A 7.32 7.32 0.0 0 0 57.2738 52.3231
  L 59.8737 52.3367
  A 7.32 7.32 0.0 0 0 67.2320 45.0551
  L 67.2478 42.0352"
/>
<path stroke="#8e9dbd" vector-effect="non-scaling-stroke" d="
  M 91.37 35.40
  L 91.37 51.62
  A 0.66 0.66 0.0 0 0 92.03 52.28
  L 99.50 52.28
  A 6.87 6.65 90.0 0 0 106.15 45.41
  L 106.15 41.61
  A 6.87 6.65 90.0 0 0 99.50 34.74
  L 92.03 34.74
  A 0.66 0.66 0.0 0 0 91.37 35.40"
/>
<path stroke="#8e9dbd" vector-effect="non-scaling-stroke" d="
  M 125.53 48.70
  L 125.64 35.75
  Q 125.65 34.85 124.75 34.80
  L 122.93 34.70
  A 0.87 0.87 0.0 0 0 122.01 35.57
  L 121.99 51.75
  Q 121.99 52.26 122.50 52.26
  L 132.75 52.24
  A 1.06 1.04 -87.9 0 0 133.79 51.26
  Q 133.82 50.96 133.71 50.66
  Q 133.39 49.74 132.42 49.69
  L 126.20 49.40
  Q 125.53 49.37 125.53 48.70"
/>
<path stroke="#8e9dbd" vector-effect="non-scaling-stroke" d="
  M 148.42 50.30
  A 0.56 0.56 0.0 0 0 147.89 49.76
  L 140.89 49.43
  A 0.56 0.56 0.0 0 1 140.36 48.87
  L 140.28 35.34
  A 0.56 0.56 0.0 0 0 139.75 34.78
  L 138.21 34.71
  A 0.56 0.56 0.0 0 0 137.62 35.27
  L 137.61 51.70
  A 0.56 0.56 0.0 0 0 138.18 52.26
  L 147.90 52.18
  A 0.56 0.56 0.0 0 0 148.46 51.60
  L 148.42 50.30"
/>
<path stroke="#8e9dbd" vector-effect="non-scaling-stroke" d="
  M 156.81 46.25
  C 160.62 46.29 168.30 47.17 169.28 41.93
  C 169.90 38.64 168.00 34.67 164.26 34.71
  Q 158.02 34.76 152.92 34.78
  A 0.49 0.49 0.0 0 0 152.43 35.27
  L 152.45 51.48
  Q 152.45 52.26 153.23 52.27
  L 154.72 52.27
  Q 155.72 52.27 155.77 51.28
  L 155.97 47.03
  Q 156.01 46.24 156.81 46.25"
/>
<path stroke="#8e9dbd" vector-effect="non-scaling-stroke" d="
  M 35.23 17.72
  A 0.39 0.39 0.0 0 0 35.59 18.26
  L 43.52 18.24
  A 0.39 0.39 0.0 0 0 43.88 17.70
  L 39.90 8.03
  A 0.39 0.39 0.0 0 0 39.18 8.03
  L 35.23 17.72"
/>
<path stroke="#8e9dbd" vector-effect="non-scaling-stroke" d="
  M 59.91 7.38
  L 59.91 13.60
  A 0.64 0.64 0.0 0 0 60.55 14.24
  L 67.79 14.24
  A 3.70 3.51 -0.0 0 0 71.49 10.73
  L 71.49 10.25
  A 3.70 3.51 0.0 0 0 67.79 6.74
  L 60.55 6.74
  A 0.64 0.64 0.0 0 0 59.91 7.38"
/>
<path stroke="#8e9dbd" vector-effect="non-scaling-stroke" d="
  M 123.6944 11.7810
  A 5.21 5.21 0.0 0 0 118.3676 6.6905
  L 116.4681 6.7336
  A 5.21 5.21 0.0 0 0 111.3776 12.0605
  L 111.5056 17.6990
  A 5.21 5.21 0.0 0 0 116.8324 22.7895
  L 118.7319 22.7464
  A 5.21 5.21 0.0 0 0 123.8224 17.4195
  L 123.6944 11.7810"
/>
<path stroke="#8e9dbd" vector-effect="non-scaling-stroke" d="
  M 137.56 7.51
  L 137.60 13.53
  A 0.72 0.72 0.0 0 0 138.32 14.25
  L 145.61 14.21
  A 3.59 3.25 -0.3 0 0 149.18 10.94
  L 149.18 9.98
  A 3.59 3.25 -0.3 0 0 145.57 6.75
  L 138.28 6.79
  A 0.72 0.72 0.0 0 0 137.56 7.51"
/>
<path stroke="#8e9dbd" vector-effect="non-scaling-stroke" d="
  M 63.4672 41.0650
  A 3.91 3.91 0.0 0 0 59.5368 37.1755
  L 57.7768 37.1847
  A 3.91 3.91 0.0 0 0 53.8873 41.1151
  L 53.9128 45.9750
  A 3.91 3.91 0.0 0 0 57.8432 49.8645
  L 59.6032 49.8553
  A 3.91 3.91 0.0 0 0 63.4927 45.9249
  L 63.4672 41.0650"
/>
<path stroke="#8e9dbd" vector-effect="non-scaling-stroke" d="
  M 94.76 37.53
  L 94.74 49.19
  A 0.43 0.43 0.0 0 0 95.17 49.62
  L 98.01 49.63
  A 5.14 4.97 -89.9 0 0 102.99 44.50
  L 102.99 42.26
  A 5.14 4.97 -89.9 0 0 98.03 37.11
  L 95.19 37.10
  A 0.43 0.43 0.0 0 0 94.76 37.53"
/>
<path stroke="#8e9dbd" vector-effect="non-scaling-stroke" d="
  M 155.87 38.27
  L 155.87 42.49
  A 0.77 0.77 0.0 0 0 156.64 43.26
  L 162.97 43.26
  A 2.72 2.56 0.0 0 0 165.69 40.70
  L 165.69 40.06
  A 2.72 2.56 -0.0 0 0 162.97 37.50
  L 156.64 37.50
  A 0.77 0.77 0.0 0 0 155.87 38.27"
/>
</g>
<path fill="#1c3b7b" d="
  M 97.32 11.03
  C 95.91 13.63 92.64 20.43 89.16 15.96
  Q 87.48 13.79 85.89 11.26
  Q 84.89 9.66 84.89 11.54
  L 84.91 25.04
  A 0.60 0.59 89.0 0 1 84.34 25.64
  L 81.53 25.78
  Q 81.00 25.80 81.00 25.28
  L 81.00 4.75
  A 1.24 1.23 -4.3 0 1 82.05 3.53
  C 83.62 3.30 85.48 3.22 86.44 4.76
  Q 88.86 8.66 91.40 12.10
  A 0.45 0.45 0.0 0 0 92.14 12.07
  Q 94.22 8.81 96.51 5.06
  C 97.46 3.52 98.91 2.97 100.70 3.35
  Q 102.26 3.68 102.26 5.27
  L 102.25 24.60
  Q 102.25 25.69 101.15 25.70
  L 98.96 25.73
  Q 98.17 25.73 98.17 24.95
  L 98.03 11.21
  Q 98.02 9.74 97.32 11.03
  Z"
/>
<path fill="#1c3b7b" d="
  M 173.38 12.10
  Q 177.19 13.17 181.45 13.94
  C 185.85 14.73 189.19 15.95 188.30 21.02
  C 187.58 25.10 184.11 25.83 180.51 25.77
  Q 174.43 25.66 168.96 25.77
  Q 167.65 25.80 167.88 24.50
  L 168.03 23.62
  Q 168.27 22.27 169.64 22.27
  Q 175.60 22.26 182.04 22.26
  Q 183.82 22.26 184.72 20.79
  Q 185.08 20.20 184.76 19.58
  Q 183.92 17.98 182.13 17.67
  Q 177.48 16.86 172.74 15.72
  C 169.55 14.95 166.66 12.09 167.60 8.63
  Q 169.03 3.37 175.28 3.29
  Q 181.37 3.21 186.73 3.26
  Q 187.96 3.27 187.75 4.51
  Q 187.74 4.59 187.57 5.61
  Q 187.35 6.89 186.05 6.92
  Q 180.23 7.05 174.61 7.00
  Q 172.55 6.98 171.79 8.91
  A 2.40 2.40 0.0 0 0 173.38 12.10
  Z"
/>
<path fill="#1c3b7b" d="
  M 19.33 10.91
  Q 17.69 13.63 15.65 16.36
  C 12.64 20.39 8.92 13.05 7.68 11.24
  Q 6.79 9.94 6.79 11.51
  L 6.74 24.29
  Q 6.74 25.58 5.46 25.75
  L 3.98 25.95
  Q 2.87 26.10 2.87 24.98
  L 2.86 4.91
  A 1.44 1.43 0.6 0 1 4.34 3.47
  L 6.73 3.54
  Q 7.35 3.56 7.69 4.07
  L 13.04 12.00
  A 0.58 0.57 44.1 0 0 14.01 11.99
  L 18.84 4.29
  A 1.42 1.38 7.4 0 1 19.63 3.70
  Q 21.26 3.23 23.11 3.56
  A 1.08 1.07 -85.3 0 1 24.00 4.62
  L 23.99 24.59
  Q 23.99 25.67 22.91 25.71
  L 21.30 25.76
  Q 20.05 25.80 20.04 24.55
  L 19.93 11.08
  Q 19.92 9.94 19.33 10.91
  Z"
/>
<path fill="#1c3b7b" d="
  M 34.03 21.94
  L 32.89 25.08
  A 1.02 1.00 10.0 0 1 31.92 25.75
  L 28.77 25.75
  A 0.54 0.53 10.8 0 1 28.27 25.02
  L 36.31 4.43
  A 1.17 1.15 0.4 0 1 37.00 3.76
  C 38.24 3.32 39.56 3.46 40.86 3.44
  Q 42.21 3.42 42.70 4.65
  Q 46.53 14.22 50.66 24.76
  Q 51.05 25.76 49.99 25.75
  L 46.96 25.73
  A 0.97 0.96 83.6 0 1 46.02 24.97
  Q 45.69 23.43 44.88 22.24
  Q 44.55 21.75 43.97 21.73
  L 34.80 21.42
  Q 34.22 21.40 34.03 21.94
  Z
  M 35.23 17.72
  A 0.39 0.39 0.0 0 0 35.59 18.26
  L 43.52 18.24
  A 0.39 0.39 0.0 0 0 43.88 17.70
  L 39.90 8.03
  A 0.39 0.39 0.0 0 0 39.18 8.03
  L 35.23 17.72
  Z"
/>
<path fill="#1c3b7b" d="
  M 59.96 18.52
  L 59.86 24.71
  Q 59.84 25.77 58.79 25.76
  L 56.30 25.74
  A 0.70 0.69 0.4 0 1 55.61 25.05
  L 55.62 5.33
  Q 55.63 3.72 57.23 3.63
  Q 62.92 3.28 68.88 3.63
  C 73.39 3.88 76.43 6.97 75.90 11.50
  Q 75.37 16.01 70.96 17.18
  A 0.38 0.37 -25.3 0 0 70.75 17.76
  L 75.96 24.82
  Q 76.69 25.82 75.45 25.79
  L 73.08 25.74
  A 2.45 2.43 71.9 0 1 71.17 24.76
  L 66.28 18.24
  A 1.25 1.24 -18.7 0 0 65.26 17.74
  L 60.73 17.76
  Q 59.97 17.76 59.96 18.52
  Z
  M 59.91 7.38
  L 59.91 13.60
  A 0.64 0.64 0.0 0 0 60.55 14.24
  L 67.79 14.24
  A 3.70 3.51 -0.0 0 0 71.49 10.73
  L 71.49 10.25
  A 3.70 3.51 0.0 0 0 67.79 6.74
  L 60.55 6.74
  A 0.64 0.64 0.0 0 0 59.91 7.38
  Z"
/>
<path fill="#1c3b7b" d="
  M 128.26 16.54
  A 9.44 9.44 0.0 0 1 118.82 25.98
  L 116.30 25.98
  A 9.44 9.44 0.0 0 1 106.86 16.54
  L 106.86 12.92
  A 9.44 9.44 0.0 0 1 116.30 3.48
  L 118.82 3.48
  A 9.44 9.44 0.0 0 1 128.26 12.92
  L 128.26 16.54
  Z
  M 123.6944 11.7810
  A 5.21 5.21 0.0 0 0 118.3676 6.6905
  L 116.4681 6.7336
  A 5.21 5.21 0.0 0 0 111.3776 12.0605
  L 111.5056 17.6990
  A 5.21 5.21 0.0 0 0 116.8324 22.7895
  L 118.7319 22.7464
  A 5.21 5.21 0.0 0 0 123.8224 17.4195
  L 123.6944 11.7810
  Z"
/>
<path fill="#1c3b7b" d="
  M 148.79 18.19
  L 153.50 24.47
  Q 154.61 25.94 152.77 25.94
  L 151.86 25.94
  Q 150.09 25.94 148.94 24.59
  Q 146.92 22.21 144.89 19.35
  C 143.28 17.09 140.89 17.72 138.49 17.76
  Q 137.76 17.78 137.76 18.51
  L 137.74 24.52
  Q 137.73 25.78 136.48 25.79
  L 134.46 25.80
  Q 133.36 25.81 133.36 24.71
  L 133.39 5.05
  A 1.53 1.52 89.8 0 1 134.89 3.53
  Q 140.53 3.44 145.73 3.53
  C 148.81 3.59 152.79 5.05 153.52 8.51
  Q 154.85 14.79 149.09 17.13
  Q 148.25 17.47 148.79 18.19
  Z
  M 137.56 7.51
  L 137.60 13.53
  A 0.72 0.72 0.0 0 0 138.32 14.25
  L 145.61 14.21
  A 3.59 3.25 -0.3 0 0 149.18 10.94
  L 149.18 9.98
  A 3.59 3.25 -0.3 0 0 145.57 6.75
  L 138.28 6.79
  A 0.72 0.72 0.0 0 0 137.56 7.51
  Z"
/>
<rect fill="#1c3b7b" x="-2.12" y="-11.14" transform="translate(160.85,14.63) rotate(0.1)" width="4.24" height="22.28" rx="0.95"/>
<path fill="#1c3b7b" d="
  M 79.06 42.09
  A 0.28 0.27 -42.1 0 0 79.52 42.11
  L 84.15 35.58
  A 2.78 2.78 0.0 0 1 86.35 34.42
  L 87.00 34.41
  Q 88.38 34.39 87.67 35.57
  Q 85.27 39.56 82.15 43.99
  Q 80.72 46.02 81.00 50.45
  Q 81.12 52.34 79.23 52.37
  L 78.69 52.38
  Q 77.08 52.40 77.36 50.81
  C 78.35 45.16 74.58 40.53 71.01 35.85
  A 0.84 0.84 0.0 0 1 71.78 34.50
  L 72.86 34.62
  Q 74.78 34.84 75.76 36.51
  L 79.06 42.09
  Z"
/>
<path fill="#1c3b7b" d="
  M 31.41 50.35
  L 31.45 51.66
  A 0.55 0.55 0.0 0 1 30.90 52.23
  L 20.97 52.24
  A 0.55 0.55 0.0 0 1 20.41 51.69
  L 20.26 35.36
  A 0.55 0.55 0.0 0 1 20.81 34.80
  L 22.79 34.80
  A 0.55 0.55 0.0 0 1 23.34 35.35
  L 23.27 48.93
  A 0.55 0.55 0.0 0 0 23.80 49.48
  L 30.89 49.82
  A 0.55 0.55 0.0 0 1 31.41 50.35
  Z"
/>
<path fill="#1c3b7b" d="
  M 39.06 49.45
  L 45.87 49.68
  A 0.58 0.58 0.0 0 1 46.42 50.19
  L 46.60 51.57
  A 0.58 0.58 0.0 0 1 46.03 52.22
  L 35.57 52.28
  A 0.58 0.58 0.0 0 1 34.99 51.70
  L 35.00 35.29
  A 0.58 0.58 0.0 0 1 35.62 34.71
  L 37.95 34.86
  A 0.58 0.58 0.0 0 1 38.49 35.44
  L 38.50 48.87
  A 0.58 0.58 0.0 0 0 39.06 49.45
  Z"
/>
<path fill="#1c3b7b" d="
  M 67.2320 45.0551
  A 7.32 7.32 0.0 0 1 59.8737 52.3367
  L 57.2738 52.3231
  A 7.32 7.32 0.0 0 1 49.9922 44.9648
  L 50.0080 41.9449
  A 7.32 7.32 0.0 0 1 57.3663 34.6633
  L 59.9662 34.6769
  A 7.32 7.32 0.0 0 1 67.2478 42.0352
  L 67.2320 45.0551
  Z
  M 63.4672 41.0650
  A 3.91 3.91 0.0 0 0 59.5368 37.1755
  L 57.7768 37.1847
  A 3.91 3.91 0.0 0 0 53.8873 41.1151
  L 53.9128 45.9750
  A 3.91 3.91 0.0 0 0 57.8432 49.8645
  L 59.6032 49.8553
  A 3.91 3.91 0.0 0 0 63.4927 45.9249
  L 63.4672 41.0650
  Z"
/>
<path fill="#1c3b7b" d="
  M 91.37 35.40
  A 0.66 0.66 0.0 0 1 92.03 34.74
  L 99.50 34.74
  A 6.87 6.65 -90.0 0 1 106.15 41.61
  L 106.15 45.41
  A 6.87 6.65 90.0 0 1 99.50 52.28
  L 92.03 52.28
  A 0.66 0.66 0.0 0 1 91.37 51.62
  L 91.37 35.40
  Z
  M 94.76 37.53
  L 94.74 49.19
  A 0.43 0.43 0.0 0 0 95.17 49.62
  L 98.01 49.63
  A 5.14 4.97 -89.9 0 0 102.99 44.50
  L 102.99 42.26
  A 5.14 4.97 -89.9 0 0 98.03 37.11
  L 95.19 37.10
  A 0.43 0.43 0.0 0 0 94.76 37.53
  Z"
/>
<path fill="#1c3b7b" d="
  M 126.20 49.40
  L 132.42 49.69
  Q 133.39 49.74 133.71 50.66
  Q 133.82 50.96 133.79 51.26
  A 1.06 1.04 -87.9 0 1 132.75 52.24
  L 122.50 52.26
  Q 121.99 52.26 121.99 51.75
  L 122.01 35.57
  A 0.87 0.87 0.0 0 1 122.93 34.70
  L 124.75 34.80
  Q 125.65 34.85 125.64 35.75
  L 125.53 48.70
  Q 125.53 49.37 126.20 49.40
  Z"
/>
<path fill="#1c3b7b" d="
  M 148.42 50.30
  L 148.46 51.60
  A 0.56 0.56 0.0 0 1 147.90 52.18
  L 138.18 52.26
  A 0.56 0.56 0.0 0 1 137.61 51.70
  L 137.62 35.27
  A 0.56 0.56 0.0 0 1 138.21 34.71
  L 139.75 34.78
  A 0.56 0.56 0.0 0 1 140.28 35.34
  L 140.36 48.87
  A 0.56 0.56 0.0 0 0 140.89 49.43
  L 147.89 49.76
  A 0.56 0.56 0.0 0 1 148.42 50.30
  Z"
/>
<path fill="#1c3b7b" d="
  M 155.97 47.03
  L 155.77 51.28
  Q 155.72 52.27 154.72 52.27
  L 153.23 52.27
  Q 152.45 52.26 152.45 51.48
  L 152.43 35.27
  A 0.49 0.49 0.0 0 1 152.92 34.78
  Q 158.02 34.76 164.26 34.71
  C 168.00 34.67 169.90 38.64 169.28 41.93
  C 168.30 47.17 160.62 46.29 156.81 46.25
  Q 156.01 46.24 155.97 47.03
  Z
  M 155.87 38.27
  L 155.87 42.49
  A 0.77 0.77 0.0 0 0 156.64 43.26
  L 162.97 43.26
  A 2.72 2.56 0.0 0 0 165.69 40.70
  L 165.69 40.06
  A 2.72 2.56 -0.0 0 0 162.97 37.50
  L 156.64 37.50
  A 0.77 0.77 0.0 0 0 155.87 38.27
  Z"
/>
</svg>
