<?xml version="1.0" encoding="UTF-8"?>
<svg xmlns="http://www.w3.org/2000/svg" xmlns:xlink="http://www.w3.org/1999/xlink" width="205px" height="71px" viewBox="0 0 205 71" version="1.1">
<g id="surface1">
<path style=" stroke:none;fill-rule:nonzero;fill:rgb(10.588235%,22.352941%,54.901961%);fill-opacity:1;" d="M 190.980469 29.335938 C 192.078125 27.097656 189.816406 26.289062 188.203125 25.976562 C 185.351562 25.425781 182.472656 24.859375 179.574219 24.285156 C 174.863281 23.351562 172.292969 19.109375 174.863281 14.882812 C 176.148438 12.773438 178.28125 11.699219 181.265625 11.660156 C 185.328125 11.605469 189.292969 11.585938 193.167969 11.605469 C 193.972656 11.609375 194.308594 12.007812 194.175781 12.800781 C 194.09375 13.265625 194.015625 13.726562 193.9375 14.1875 C 193.8125 14.910156 193.191406 15.441406 192.460938 15.441406 C 188.503906 15.421875 184.46875 15.417969 180.355469 15.425781 C 179.316406 15.433594 178.636719 15.914062 178.308594 16.875 C 177.570312 19.050781 178.363281 20.351562 180.691406 20.777344 C 184.078125 21.394531 187.292969 22.0625 190.339844 22.773438 C 192.714844 23.324219 194.695312 24.855469 194.902344 27.523438 C 195.148438 30.75 193.25 33.707031 189.921875 33.949219 C 184.890625 34.304688 179.945312 34.171875 175.214844 34.1875 C 174.5625 34.1875 174.257812 33.859375 174.296875 33.210938 L 174.367188 32.101562 C 174.433594 31.066406 174.984375 30.546875 176.015625 30.542969 C 180.425781 30.519531 184.773438 30.515625 189.0625 30.53125 C 189.953125 30.53125 190.59375 30.132812 190.980469 29.335938 Z M 190.980469 29.335938 "/>
<path style=" stroke:none;fill-rule:nonzero;fill:rgb(10.588235%,22.352941%,54.901961%);fill-opacity:1;" d="M 13.21875 19.042969 L 13.207031 32.8125 C 13.203125 33.429688 12.753906 33.945312 12.148438 34.027344 C 11.839844 34.066406 11.222656 34.144531 10.304688 34.265625 C 9.605469 34.355469 9.257812 34.046875 9.257812 33.34375 L 9.257812 13.105469 C 9.257812 12.375 9.847656 11.78125 10.582031 11.777344 L 13.257812 11.777344 C 13.546875 11.777344 13.769531 11.898438 13.933594 12.136719 L 19.71875 20.730469 C 19.882812 20.972656 20.042969 20.96875 20.195312 20.722656 L 25.597656 12.125 C 25.742188 11.886719 25.957031 11.769531 26.234375 11.769531 C 27.0625 11.777344 27.980469 11.78125 28.984375 11.792969 C 30.828125 11.8125 30.492188 13.503906 30.492188 14.710938 C 30.5 20.5 30.496094 26.5625 30.472656 32.898438 C 30.46875 33.582031 29.917969 34.136719 29.234375 34.144531 L 27.1875 34.179688 C 26.667969 34.1875 26.410156 33.933594 26.410156 33.417969 L 26.324219 19.214844 C 26.324219 18.730469 26.1875 18.6875 25.914062 19.089844 L 22.09375 24.730469 C 21.605469 25.453125 20.796875 25.890625 19.925781 25.898438 C 19.058594 25.90625 18.238281 25.488281 17.734375 24.777344 L 13.589844 18.925781 C 13.34375 18.570312 13.21875 18.609375 13.21875 19.042969 Z M 13.21875 19.042969 "/>
<path style=" stroke:none;fill-rule:nonzero;fill:rgb(10.588235%,22.352941%,54.901961%);fill-opacity:1;" d="M 77.085938 25.59375 C 77.011719 25.601562 76.949219 25.652344 76.917969 25.722656 C 76.890625 25.792969 76.902344 25.875 76.949219 25.9375 L 82.640625 33.527344 C 82.964844 33.957031 82.859375 34.171875 82.324219 34.171875 L 79.289062 34.171875 C 78.722656 34.171875 78.273438 33.949219 77.933594 33.503906 L 72.53125 26.363281 C 72.367188 26.152344 72.152344 26.042969 71.890625 26.042969 L 66.828125 26.042969 C 66.527344 26.042969 66.375 26.195312 66.375 26.503906 L 66.347656 32.984375 C 66.347656 33.640625 65.816406 34.171875 65.164062 34.171875 L 62.757812 34.171875 C 62.273438 34.171875 62.027344 33.929688 62.027344 33.441406 L 62.023438 13.570312 C 62.023438 12.582031 62.824219 11.777344 63.816406 11.777344 C 66.945312 11.785156 70.015625 11.785156 73.03125 11.777344 C 76.464844 11.765625 80.804688 12.460938 81.96875 16.222656 C 83.222656 20.277344 81.789062 24.875 77.085938 25.59375 Z M 66.3125 15.394531 L 66.289062 22.242188 C 66.289062 22.40625 66.421875 22.539062 66.585938 22.539062 L 74.238281 22.566406 C 76.246094 22.574219 77.878906 21.1875 77.886719 19.46875 L 77.886719 18.246094 C 77.894531 16.53125 76.269531 15.128906 74.261719 15.121094 L 66.613281 15.097656 C 66.449219 15.097656 66.3125 15.230469 66.3125 15.394531 Z M 66.3125 15.394531 "/>
<path style=" stroke:none;fill-rule:nonzero;fill:rgb(10.588235%,22.352941%,54.901961%);fill-opacity:1;" d="M 91.699219 18.871094 C 91.480469 18.5625 91.371094 18.597656 91.371094 18.976562 L 91.363281 33.066406 C 91.363281 33.617188 90.929688 34.074219 90.378906 34.101562 L 88.214844 34.199219 C 87.6875 34.226562 87.425781 33.972656 87.429688 33.441406 L 87.429688 13.046875 C 87.429688 12.351562 87.984375 11.789062 88.671875 11.785156 L 91.4375 11.769531 C 91.714844 11.769531 91.929688 11.886719 92.085938 12.117188 L 97.882812 20.734375 C 97.9375 20.816406 98.027344 20.863281 98.125 20.863281 C 98.21875 20.859375 98.308594 20.8125 98.359375 20.730469 L 103.761719 12.109375 C 103.894531 11.898438 104.085938 11.792969 104.339844 11.792969 C 105.734375 11.785156 108.644531 11.121094 108.644531 13.371094 C 108.640625 19.78125 108.632812 26.3125 108.628906 32.964844 C 108.628906 33.496094 108.242188 33.949219 107.71875 34.035156 C 107.003906 34.152344 106.179688 34.214844 105.246094 34.21875 C 104.777344 34.21875 104.542969 33.988281 104.542969 33.523438 L 104.476562 19.097656 C 104.476562 18.671875 104.359375 18.636719 104.121094 18.992188 L 100.316406 24.671875 C 99.824219 25.410156 99 25.859375 98.113281 25.871094 C 97.226562 25.882812 96.390625 25.457031 95.875 24.730469 Z M 91.699219 18.871094 "/>
<path style=" stroke:none;fill-rule:nonzero;fill:rgb(10.588235%,22.352941%,54.901961%);fill-opacity:1;" d="M 134.703125 25.121094 C 134.703125 30.179688 130.617188 34.277344 125.578125 34.277344 L 122.40625 34.277344 C 117.363281 34.277344 113.277344 30.179688 113.277344 25.121094 L 113.277344 21.019531 C 113.277344 15.964844 117.363281 11.863281 122.40625 11.863281 L 125.578125 11.863281 C 130.617188 11.863281 134.703125 15.964844 134.703125 21.019531 Z M 130.191406 20.183594 C 130.179688 17.296875 127.839844 14.964844 124.960938 14.972656 L 123.03125 14.980469 C 120.152344 14.988281 117.828125 17.339844 117.839844 20.226562 L 117.859375 26.011719 C 117.867188 28.902344 120.210938 31.234375 123.085938 31.222656 L 125.019531 31.214844 C 127.898438 31.207031 130.222656 28.859375 130.210938 25.96875 Z M 130.191406 20.183594 "/>
<path style=" stroke:none;fill-rule:nonzero;fill:rgb(10.588235%,22.352941%,54.901961%);fill-opacity:1;" d="M 144.15625 26.542969 L 144.140625 32.773438 C 144.136719 33.707031 143.671875 34.171875 142.746094 34.171875 L 140.332031 34.167969 C 139.988281 34.167969 139.816406 33.992188 139.816406 33.648438 L 139.824219 13.277344 C 139.824219 12.5 140.433594 11.863281 141.207031 11.835938 C 144.242188 11.730469 147.3125 11.710938 150.410156 11.769531 C 155.304688 11.871094 159.808594 12.675781 160.152344 18.480469 C 160.363281 22.078125 158.644531 24.832031 154.953125 25.574219 C 154.648438 25.636719 154.589844 25.789062 154.773438 26.039062 L 160.382812 33.488281 C 160.726562 33.945312 160.613281 34.171875 160.046875 34.171875 L 157.136719 34.171875 C 156.527344 34.171875 156.039062 33.933594 155.675781 33.449219 L 150.3125 26.382812 C 150.148438 26.167969 149.898438 26.042969 149.628906 26.042969 L 144.65625 26.042969 C 144.320312 26.042969 144.15625 26.210938 144.15625 26.542969 Z M 144.074219 15.347656 L 144.074219 22.316406 C 144.074219 22.445312 144.183594 22.554688 144.3125 22.554688 L 152.078125 22.554688 C 154.050781 22.554688 155.648438 21.164062 155.648438 19.449219 L 155.648438 18.214844 C 155.648438 16.5 154.050781 15.109375 152.078125 15.109375 L 144.3125 15.109375 C 144.183594 15.109375 144.074219 15.214844 144.074219 15.347656 Z M 144.074219 15.347656 "/>
<path style=" stroke:none;fill-rule:nonzero;fill:rgb(10.588235%,22.352941%,54.901961%);fill-opacity:1;" d="M 165.824219 11.785156 L 168.667969 11.785156 C 169.011719 11.785156 169.289062 12.0625 169.289062 12.410156 L 169.289062 33.550781 C 169.289062 33.894531 169.011719 34.171875 168.667969 34.171875 L 165.824219 34.171875 C 165.480469 34.171875 165.203125 33.894531 165.203125 33.550781 L 165.203125 12.410156 C 165.203125 12.0625 165.480469 11.785156 165.824219 11.785156 Z M 165.824219 11.785156 "/>
<path style=" stroke:none;fill-rule:nonzero;fill:rgb(10.588235%,22.352941%,54.901961%);fill-opacity:1;" d="M 50.980469 30.03125 L 40.875 29.851562 C 40.734375 29.851562 40.609375 29.9375 40.558594 30.066406 L 39.042969 33.949219 C 38.992188 34.078125 38.863281 34.160156 38.726562 34.160156 L 34.824219 34.1875 C 34.710938 34.183594 34.609375 34.128906 34.546875 34.035156 C 34.484375 33.945312 34.472656 33.824219 34.511719 33.722656 L 42.992188 12.175781 C 43.042969 12.046875 43.167969 11.960938 43.308594 11.964844 L 48.460938 11.964844 C 48.597656 11.960938 48.726562 12.046875 48.777344 12.175781 L 57.28125 33.707031 C 57.324219 33.8125 57.308594 33.929688 57.246094 34.023438 C 57.1875 34.117188 57.082031 34.171875 56.96875 34.171875 L 53.0625 34.167969 C 52.921875 34.167969 52.796875 34.082031 52.746094 33.953125 L 51.289062 30.25 C 51.242188 30.121094 51.117188 30.035156 50.980469 30.03125 Z M 41.488281 26.414062 C 41.460938 26.480469 41.472656 26.554688 41.511719 26.617188 C 41.550781 26.675781 41.617188 26.707031 41.6875 26.707031 L 50.230469 26.707031 C 50.300781 26.707031 50.367188 26.675781 50.410156 26.617188 C 50.449219 26.554688 50.457031 26.480469 50.429688 26.414062 L 46.15625 15.90625 C 46.128906 15.820312 46.046875 15.765625 45.960938 15.765625 C 45.871094 15.765625 45.792969 15.820312 45.761719 15.90625 Z M 41.488281 26.414062 "/>
<path style=" stroke:none;fill-rule:nonzero;fill:rgb(10.588235%,22.352941%,54.901961%);fill-opacity:1;" d="M 68.230469 60.429688 C 64.765625 61.292969 59.992188 60.867188 57.9375 57.644531 C 56.007812 54.621094 55.683594 51.242188 56.964844 47.503906 C 57.386719 46.261719 58.453125 45.554688 59.152344 44.484375 C 59.597656 43.804688 60.207031 43.40625 60.984375 43.296875 C 63.03125 43 65.464844 42.941406 68.292969 43.125 C 71.902344 43.363281 73.667969 47.882812 73.8125 51.207031 C 73.917969 53.480469 73.34375 55.773438 72.085938 58.085938 C 71.78125 58.644531 71.351562 59.03125 70.796875 59.25 C 69.890625 59.605469 69.203125 60.183594 68.230469 60.429688 Z M 61.46875 46.195312 C 60.691406 47.75 60.171875 49.148438 60.136719 50.933594 C 60.089844 53.175781 60.289062 57.199219 62.980469 58.074219 C 64.925781 58.703125 66.71875 58.515625 68.363281 57.511719 C 70.769531 56.035156 69.957031 49.183594 69.285156 46.628906 C 69.179688 46.230469 68.855469 45.929688 68.449219 45.851562 C 66.242188 45.4375 64.0625 45.441406 61.910156 45.863281 C 61.707031 45.90625 61.558594 46.015625 61.46875 46.195312 Z M 61.46875 46.195312 "/>
<path style=" stroke:none;fill-rule:nonzero;fill:rgb(10.588235%,22.352941%,54.901961%);fill-opacity:1;" d="M 85.863281 50.65625 L 88.726562 46.390625 C 88.867188 46.171875 89.035156 45.984375 89.234375 45.824219 C 89.976562 45.230469 90.449219 44.492188 90.65625 43.609375 C 90.742188 43.246094 91.0625 42.988281 91.4375 42.984375 L 94.253906 42.957031 C 94.558594 42.953125 94.625 43.082031 94.457031 43.34375 C 93.1875 45.308594 91.933594 47.277344 90.695312 49.253906 C 90.214844 50.03125 89.742188 50.667969 89.273438 51.171875 C 86.867188 53.765625 87.632812 56.023438 87.457031 59.203125 C 87.417969 59.867188 86.933594 60.417969 86.277344 60.535156 C 85.960938 60.589844 85.484375 60.671875 84.851562 60.789062 C 84.128906 60.910156 83.773438 60.605469 83.785156 59.867188 C 83.820312 58.226562 84.25 54.738281 83.277344 53.261719 C 82.753906 52.472656 82.582031 51.632812 81.972656 50.859375 C 81.015625 49.648438 80.199219 48.363281 79.519531 47 C 78.800781 45.546875 77.207031 45.28125 77.3125 43.316406 C 77.328125 43.046875 77.472656 42.917969 77.742188 42.933594 C 79.441406 43.023438 81.042969 42.566406 81.914062 44.53125 C 82.699219 46.304688 83.667969 47.839844 84.824219 49.136719 C 85.175781 49.535156 85.378906 50.003906 85.425781 50.542969 C 85.46875 50.984375 85.613281 51.023438 85.863281 50.65625 Z M 85.863281 50.65625 "/>
<path style=" stroke:none;fill-rule:nonzero;fill:rgb(10.588235%,22.352941%,54.901961%);fill-opacity:1;" d="M 30.113281 57.882812 L 37.289062 57.933594 C 37.484375 57.933594 37.648438 58.089844 37.652344 58.285156 L 37.71875 60.351562 C 37.722656 60.449219 37.6875 60.546875 37.617188 60.617188 C 37.550781 60.6875 37.457031 60.726562 37.355469 60.726562 L 27.007812 60.6875 C 26.804688 60.6875 26.644531 60.523438 26.644531 60.324219 L 26.597656 43.488281 C 26.597656 43.289062 26.761719 43.125 26.960938 43.125 L 29.394531 43.128906 C 29.59375 43.128906 29.757812 43.292969 29.757812 43.496094 L 29.75 57.515625 C 29.75 57.71875 29.914062 57.882812 30.113281 57.882812 Z M 30.113281 57.882812 "/>
<path style=" stroke:none;fill-rule:nonzero;fill:rgb(10.588235%,22.352941%,54.901961%);fill-opacity:1;" d="M 45.378906 57.886719 L 51.648438 57.902344 C 52.394531 57.902344 52.800781 58.277344 52.855469 59.03125 L 52.921875 59.925781 C 52.960938 60.453125 52.71875 60.714844 52.195312 60.714844 L 42.128906 60.714844 C 41.753906 60.714844 41.449219 60.40625 41.449219 60.023438 L 41.375 43.441406 C 41.375 43.234375 41.480469 43.128906 41.6875 43.128906 L 44.636719 43.136719 C 44.859375 43.136719 44.96875 43.246094 44.96875 43.460938 L 44.96875 57.476562 C 44.96875 57.75 45.105469 57.886719 45.378906 57.886719 Z M 45.378906 57.886719 "/>
<path style=" stroke:none;fill-rule:nonzero;fill:rgb(10.588235%,22.352941%,54.901961%);fill-opacity:1;" d="M 97.832031 43.457031 C 97.832031 43.242188 98.003906 43.070312 98.214844 43.070312 L 105.984375 43.058594 C 109.609375 43.054688 112.550781 45.890625 112.558594 49.394531 L 112.570312 54.238281 C 112.578125 57.75 109.640625 60.597656 106.011719 60.601562 L 98.242188 60.617188 C 98.03125 60.617188 97.859375 60.441406 97.859375 60.230469 Z M 109.34375 53.457031 C 109.6875 51.332031 109.4375 46.195312 106.652344 45.730469 C 105.007812 45.453125 103.296875 45.359375 101.519531 45.453125 C 101.285156 45.464844 101.164062 45.59375 101.164062 45.832031 L 101.152344 57.578125 C 101.152344 57.832031 101.277344 57.980469 101.527344 58.015625 C 105.09375 58.511719 108.710938 57.464844 109.34375 53.457031 Z M 109.34375 53.457031 "/>
<path style=" stroke:none;fill-rule:nonzero;fill:rgb(10.588235%,22.352941%,54.901961%);fill-opacity:1;" d="M 132.410156 57.894531 L 138.472656 57.894531 C 139.355469 57.894531 139.859375 58.332031 139.980469 59.207031 L 140.027344 59.558594 C 140.136719 60.332031 139.804688 60.714844 139.03125 60.714844 L 129.308594 60.714844 C 128.867188 60.714844 128.503906 60.355469 128.5 59.910156 L 128.46875 43.457031 C 128.46875 43.277344 128.613281 43.128906 128.792969 43.128906 L 131.75 43.128906 C 131.960938 43.128906 132.066406 43.238281 132.066406 43.449219 L 132.066406 57.550781 C 132.066406 57.78125 132.179688 57.894531 132.410156 57.894531 Z M 132.410156 57.894531 "/>
<path style=" stroke:none;fill-rule:nonzero;fill:rgb(10.588235%,22.352941%,54.901961%);fill-opacity:1;" d="M 147.15625 57.894531 L 154.386719 57.90625 C 154.5625 57.90625 154.707031 58.046875 154.714844 58.226562 L 154.78125 60.375 C 154.785156 60.46875 154.753906 60.554688 154.691406 60.621094 C 154.628906 60.683594 154.539062 60.722656 154.449219 60.722656 L 144.332031 60.703125 C 144.152344 60.703125 144.003906 60.554688 144.003906 60.371094 L 143.949219 43.457031 C 143.949219 43.273438 144.097656 43.125 144.28125 43.125 L 146.496094 43.117188 C 146.679688 43.117188 146.828125 43.265625 146.828125 43.449219 L 146.828125 57.5625 C 146.828125 57.746094 146.972656 57.894531 147.15625 57.894531 Z M 147.15625 57.894531 "/>
<path style=" stroke:none;fill-rule:nonzero;fill:rgb(10.588235%,22.352941%,54.901961%);fill-opacity:1;" d="M 162.351562 55.023438 L 162.289062 59.59375 C 162.277344 60.214844 161.769531 60.714844 161.148438 60.714844 L 159.523438 60.707031 C 159.074219 60.707031 158.847656 60.484375 158.847656 60.039062 L 158.855469 43.636719 C 158.855469 43.355469 159.082031 43.128906 159.359375 43.128906 L 172.273438 43.128906 C 172.5625 43.128906 172.804688 43.242188 172.992188 43.46875 C 174.164062 44.871094 175.785156 45.9375 175.898438 47.976562 C 176.0625 50.925781 175.070312 52.867188 172.914062 53.800781 C 170.003906 55.0625 166.117188 54.523438 162.808594 54.5625 C 162.511719 54.566406 162.359375 54.722656 162.351562 55.023438 Z M 162.328125 45.929688 L 162.339844 51.53125 C 162.339844 51.625 162.417969 51.703125 162.511719 51.703125 L 169.699219 51.691406 C 171.023438 51.6875 172.09375 50.652344 172.09375 49.375 L 172.09375 48.0625 C 172.09375 47.445312 171.839844 46.855469 171.390625 46.421875 C 170.9375 45.988281 170.324219 45.742188 169.6875 45.746094 L 162.5 45.757812 C 162.402344 45.757812 162.328125 45.835938 162.328125 45.929688 Z M 162.328125 45.929688 "/>
</g>
</svg>
